<svg width="100%" height="100%" viewBox="0 0 272 137" fill="none" xmlns="http://www.w3.org/2000/svg">
<path d="M272 -8H0V137H272V-8Z" fill="#FF6F47"/>
<path d="M232.55 27.72C240.18 27.72 246.37 33.91 246.37 41.54C246.37 49.17 240.18 55.36 232.55 55.36C224.92 55.36 218.73 49.17 218.73 41.54C218.73 33.91 224.92 27.72 232.55 27.72ZM232.55 18.22C219.7 18.22 209.24 28.68 209.24 41.53C209.24 54.38 219.7 64.84 232.55 64.84C245.4 64.84 255.86 54.38 255.86 41.53C255.86 28.68 245.4 18.22 232.55 18.22Z" fill="#FF9375"/>
<path d="M167.85 99.31C155 99.31 144.54 109.77 144.54 122.62C144.54 128.04 146.41 133.04 149.52 137H186.18C189.3 133.04 191.16 128.04 191.16 122.62C191.16 109.77 180.7 99.31 167.85 99.31ZM167.85 136.44C160.22 136.44 154.03 130.25 154.03 122.62C154.03 114.99 160.22 108.8 167.85 108.8C175.48 108.8 181.67 114.99 181.67 122.62C181.66 130.25 175.48 136.44 167.85 136.44Z" fill="#FF9375"/>
<path d="M239.5 122.62C239.5 128.04 241.37 133.04 244.48 137H272V132.92C269.56 135.1 266.35 136.43 262.82 136.43C255.19 136.43 249 130.24 249 122.61C249 114.98 255.19 108.79 262.82 108.79C266.35 108.79 269.56 110.13 272 112.3V101.2C269.18 99.99 266.08 99.31 262.82 99.31C249.96 99.31 239.5 109.77 239.5 122.62Z" fill="#FF9375"/>
<path d="M244.34 136.78C241.32 132.85 239.51 127.95 239.51 122.62C239.51 117.29 241.33 112.39 244.34 108.46H186.33C189.35 112.39 191.16 117.29 191.16 122.62C191.16 127.95 189.34 132.85 186.33 136.78H244.34Z" fill="#FF9375"/>
<path d="M237.24 108.8C237.18 118.4 235.97 127.73 233.76 136.67H244.27C241.3 132.76 239.51 127.9 239.51 122.62C239.51 117.45 241.23 112.68 244.09 108.8H237.24Z" fill="#FF9375"/>
<path d="M210.81 33.18C214.18 24.44 222.64 18.22 232.55 18.22C232.59 18.22 232.62 18.23 232.66 18.23C224.97 8.39 216.04 -0.42 206.11 -8H146.26C172.08 -1.66 194.62 13.09 210.81 33.18Z" fill="#FF9375"/>
<path d="M0 22.1V88.34C7.85 41.18 43.42 3.27 89.35 -8H29.46C18.25 0.55 8.32 10.7 0 22.1Z" fill="#FF9375"/>
<path d="M0 127.59V136.67H1.86C1.12 133.69 0.51 130.66 0 127.59Z" fill="#FF9375"/>
<path d="M230.967 38.9667H232.392C232.471 38.9667 232.55 38.8875 232.55 38.8083V37.6208C232.55 37.5417 232.471 37.4625 232.392 37.4625H230.967C230.887 37.4625 230.808 37.5417 230.808 37.6208V38.8875C230.808 38.8875 230.887 38.9667 230.967 38.9667ZM232.867 40.7875H234.292C234.371 40.7875 234.45 40.7083 234.45 40.6292V39.3625C234.45 39.2833 234.371 39.2042 234.292 39.2042H232.867C232.787 39.2042 232.708 39.2833 232.708 39.3625V40.6292C232.708 40.7083 232.787 40.7875 232.867 40.7875ZM232.867 38.9667H234.292C234.371 38.9667 234.45 38.8875 234.45 38.8083V37.6208C234.371 37.5417 234.292 37.4625 234.292 37.4625H232.867C232.787 37.4625 232.708 37.5417 232.708 37.6208V38.8875C232.708 38.8875 232.787 38.9667 232.867 38.9667ZM234.846 40.7875H236.271C236.35 40.7875 236.429 40.7083 236.429 40.6292V39.3625C236.429 39.2833 236.35 39.2042 236.271 39.2042H234.846C234.767 39.2042 234.687 39.2833 234.687 39.3625V40.6292C234.687 40.7083 234.767 40.7875 234.846 40.7875ZM232.867 37.1458H234.292C234.371 37.1458 234.45 37.0667 234.45 36.9875V35.8C234.45 35.7208 234.371 35.6417 234.292 35.6417H232.867C232.787 35.6417 232.708 35.7208 232.708 35.8V37.0667C232.708 37.1458 232.787 37.1458 232.867 37.1458ZM227.008 40.7875H228.433C228.512 40.7875 228.592 40.7083 228.592 40.6292V39.3625C228.592 39.2833 228.512 39.2042 228.433 39.2042H227.008C226.929 39.2042 226.85 39.2833 226.85 39.3625V40.6292C226.929 40.7083 227.008 40.7875 227.008 40.7875ZM241.258 39.9958C240.862 39.7583 240.387 39.6 239.992 39.6792C239.754 39.6792 239.517 39.6792 239.358 39.7583C239.2 39.0458 238.804 38.4125 238.25 38.0958L238.012 37.9375L237.854 38.175C237.617 38.3333 237.458 38.65 237.379 39.0458C237.221 39.6792 237.3 40.3125 237.617 40.7875C237.221 40.9458 236.825 41.025 236.429 41.1042H226.058C225.821 41.1042 225.583 41.3417 225.583 41.5792C225.583 42.5292 225.742 43.4 226.058 44.2708C226.375 45.1417 226.929 45.8542 227.642 46.3292C228.75 46.8833 229.937 47.1208 231.125 47.0417C231.758 47.0417 232.392 46.9625 233.025 46.8833C233.896 46.725 234.767 46.4083 235.558 45.9333C236.192 45.5375 236.746 45.0625 237.3 44.5083C238.012 43.6375 238.567 42.6875 238.962 41.5792H239.121C239.754 41.5792 240.387 41.3417 240.862 40.9458C241.1 40.7875 241.258 40.55 241.337 40.2333L241.417 40.075L241.258 39.9958ZM228.987 40.7875H230.333C230.412 40.7875 230.492 40.7083 230.492 40.6292V39.3625C230.492 39.2833 230.412 39.2042 230.333 39.2042H228.987C228.908 39.2042 228.829 39.2833 228.829 39.3625V40.6292C228.829 40.7083 228.908 40.7875 228.987 40.7875ZM228.987 38.9667H230.333C230.412 38.9667 230.492 38.8875 230.492 38.8083V37.6208C230.492 37.5417 230.412 37.4625 230.333 37.4625H228.987C228.908 37.4625 228.829 37.5417 228.829 37.6208V38.8875C228.829 38.8875 228.908 38.9667 228.987 38.9667ZM230.967 40.7875H232.392C232.471 40.7875 232.55 40.7083 232.55 40.6292V39.3625C232.55 39.2833 232.471 39.2042 232.392 39.2042H230.967C230.887 39.2042 230.808 39.2833 230.808 39.3625V40.6292C230.808 40.7083 230.887 40.7875 230.967 40.7875Z" fill="#2E2E46"/>
</svg>
