<svg width="100%" height="100%" viewBox="0 0 272 139" fill="none" xmlns="http://www.w3.org/2000/svg">
<path d="M272 -8H0V137H272V-8Z" fill="#32324B"/>
<path d="M232.55 27.72C240.18 27.72 246.37 33.91 246.37 41.54C246.37 49.17 240.18 55.36 232.55 55.36C224.92 55.36 218.73 49.17 218.73 41.54C218.73 33.91 224.92 27.72 232.55 27.72ZM232.55 18.22C219.7 18.22 209.24 28.68 209.24 41.53C209.24 54.38 219.7 64.84 232.55 64.84C245.4 64.84 255.86 54.38 255.86 41.53C255.86 28.68 245.4 18.22 232.55 18.22Z" fill="#46465D"/>
<path d="M167.85 99.31C155 99.31 144.54 109.77 144.54 122.62C144.54 128.04 146.41 133.04 149.52 137H186.18C189.3 133.04 191.16 128.04 191.16 122.62C191.16 109.77 180.7 99.31 167.85 99.31ZM167.85 136.44C160.22 136.44 154.03 130.25 154.03 122.62C154.03 114.99 160.22 108.8 167.85 108.8C175.48 108.8 181.67 114.99 181.67 122.62C181.66 130.25 175.48 136.44 167.85 136.44Z" fill="#46465D"/>
<path d="M239.5 122.62C239.5 128.04 241.37 133.04 244.48 137H272V132.92C269.56 135.1 266.35 136.43 262.82 136.43C255.19 136.43 249 130.24 249 122.61C249 114.98 255.19 108.79 262.82 108.79C266.35 108.79 269.56 110.13 272 112.3V101.2C269.18 99.99 266.08 99.31 262.82 99.31C249.96 99.31 239.5 109.77 239.5 122.62Z" fill="#46465D"/>
<path d="M244.34 136.78C241.32 132.85 239.51 127.95 239.51 122.62C239.51 117.29 241.33 112.39 244.34 108.46H186.33C189.35 112.39 191.16 117.29 191.16 122.62C191.16 127.95 189.34 132.85 186.33 136.78H244.34Z" fill="#46465D"/>
<path d="M237.24 108.8C237.18 118.4 235.97 127.73 233.76 136.67H244.27C241.3 132.76 239.51 127.9 239.51 122.62C239.51 117.45 241.23 112.68 244.09 108.8H237.24Z" fill="#46465D"/>
<path d="M210.81 33.18C214.18 24.44 222.64 18.22 232.55 18.22C232.59 18.22 232.62 18.23 232.66 18.23C224.97 8.39 216.04 -0.42 206.11 -8H146.26C172.08 -1.66 194.62 13.09 210.81 33.18Z" fill="#46465D"/>
<path d="M0 22.1V88.34C7.85 41.18 43.42 3.27 89.35 -8H29.46C18.25 0.55 8.32 10.7 0 22.1Z" fill="#46465D"/>
<path d="M0 127.59V136.67H1.86C1.12 133.69 0.51 130.66 0 127.59Z" fill="#46465D"/>
<path d="M237.874 35.04H227.126C226.474 35.04 225.877 35.5829 225.877 36.2886V39.1657H228.863V38.6771C228.863 38.2971 229.134 38.0257 229.514 38.0257H235.431C235.811 38.0257 236.083 38.2971 236.083 38.6771V39.1657H239.069V36.2886C239.123 35.5829 238.526 35.04 237.874 35.04Z" fill="#00D2FF"/>
<path d="M236.137 44.3229C236.137 44.7029 235.866 44.9743 235.486 44.9743H229.569C229.189 44.9743 228.917 44.7029 228.917 44.3229V43.8343H225.877V46.7114C225.877 47.3629 226.42 47.96 227.126 47.96H237.874C238.526 47.96 239.123 47.4171 239.123 46.7114V43.8343H236.137V44.3229Z" fill="#00D2FF"/>
<path d="M228.863 40.0343H225.877V43.02H228.863V40.0343Z" fill="#00D2FF"/>
<path d="M239.123 40.0343H236.137V43.02H239.123V40.0343Z" fill="#00D2FF"/>
</svg>
