<?xml version="1.0" encoding="UTF-8"?><svg id="EKS_amazon" xmlns="http://www.w3.org/2000/svg" xmlns:xlink="http://www.w3.org/1999/xlink" viewBox="0 0 32 32"><defs><style>.cls-1{fill:none;}.cls-2{clip-path:url(#clippath);}.cls-3{fill:url(#Degradado_sin_nombre_7-2);}.cls-4{clip-path:url(#clippath-1);}.cls-5{clip-path:url(#clippath-2);}.cls-6{fill:url(#Degradado_sin_nombre_6);}.cls-7{fill:url(#Degradado_sin_nombre_7);}</style><clipPath id="clippath"><polygon class="cls-1" points="12.97 10.98 14.28 10.98 14.28 14.86 18.06 10.98 19.8 10.98 15.65 15.25 20.06 20.18 18.38 20.18 14.28 15.58 14.28 20.18 12.97 20.18 12.97 10.98"/></clipPath><linearGradient id="Degradado_sin_nombre_7" x1="10239.73" y1="4435.59" x2="10166.78" y2="4315.39" gradientTransform="translate(-773.21 -323.24) scale(.08)" gradientUnits="userSpaceOnUse"><stop offset="0" stop-color="#4f66b9"/><stop offset="1" stop-color="#484fab"/></linearGradient><clipPath id="clippath-1"><path class="cls-1" d="m17.08,7.33l6.47,3.74c.11.06.18.18.18.31v7.47c0,.13.07.25.18.31l5.77,3.33c.24.14.54-.03.54-.31V7.63c0-.13-.07-.25-.18-.31L17.44.05c-.24-.14-.54.03-.54.31v6.67c0,.13.07.25.18.31h0Z"/></clipPath><linearGradient id="Degradado_sin_nombre_7-2" x1="10402.56" y1="4452.51" x2="10237.2" y2="4167.77" xlink:href="#Degradado_sin_nombre_7"/><clipPath id="clippath-2"><path class="cls-1" d="m22.65,20.72l-6.47,3.74c-.11.06-.25.06-.36,0l-7.37-4.26c-.11-.06-.18-.18-.18-.31v-8.51c0-.13.07-.25.18-.31l6.47-3.74c.11-.06.18-.18.18-.31V.36c0-.27-.3-.45-.54-.31L1.96,7.32c-.11.06-.18.18-.18.31v16.01c0,.13.07.25.18.31l13.86,8c.11.06.25.06.36,0l12.6-7.28c.24-.14.24-.48,0-.62l-5.77-3.33c-.11-.06-.25-.06-.36,0Z"/></clipPath><linearGradient id="Degradado_sin_nombre_6" x1="10238.2" y1="4568.83" x2="10057.89" y2="4250.49" gradientTransform="translate(-773.21 -323.24) scale(.08)" gradientUnits="userSpaceOnUse"><stop offset="0" stop-color="#4c68bb"/><stop offset="1" stop-color="#5180c9"/></linearGradient></defs><g class="cls-2"><path class="cls-7" d="m12.97,10.98h1.31v3.88l3.78-3.88h1.73l-4.15,4.27,4.41,4.93h-1.68l-4.1-4.6v4.6h-1.31v-9.2"/></g><g class="cls-4"><path class="cls-3" d="m17.08,7.33l6.47,3.74c.11.06.18.18.18.31v7.47c0,.13.07.25.18.31l5.77,3.33c.24.14.54-.03.54-.31V7.63c0-.13-.07-.25-.18-.31L17.44.05c-.24-.14-.54.03-.54.31v6.67c0,.13.07.25.18.31"/></g><g class="cls-5"><path class="cls-6" d="m22.65,20.72l-6.47,3.74c-.11.06-.25.06-.36,0l-7.37-4.26c-.11-.06-.18-.18-.18-.31v-8.51c0-.13.07-.25.18-.31l6.47-3.74c.11-.06.18-.18.18-.31V.36c0-.27-.3-.45-.54-.31L1.96,7.32c-.11.06-.18.18-.18.31v16.01c0,.13.07.25.18.31l13.86,8c.11.06.25.06.36,0l12.6-7.28c.24-.14.24-.48,0-.62l-5.77-3.33c-.11-.06-.25-.06-.36,0"/></g></svg>