<svg width="23" height="24" viewBox="0 0 23 24" fill="none" xmlns="http://www.w3.org/2000/svg">
<path d="M12.4584 13H10.5417V7H12.4584V13ZM12.4584 17H10.5417V15H12.4584V17ZM11.5 2C10.2415 2 8.99534 2.25866 7.83264 2.7612C6.66993 3.26375 5.61348 4.00035 4.72358 4.92893C2.92636 6.8043 1.91669 9.34784 1.91669 12C1.91669 14.6522 2.92636 17.1957 4.72358 19.0711C5.61348 19.9997 6.66993 20.7362 7.83264 21.2388C8.99534 21.7413 10.2415 22 11.5 22C14.0417 22 16.4792 20.9464 18.2765 19.0711C20.0737 17.1957 21.0834 14.6522 21.0834 12C21.0834 10.6868 20.8355 9.38642 20.3539 8.17317C19.8723 6.95991 19.1664 5.85752 18.2765 4.92893C17.3866 4.00035 16.3301 3.26375 15.1674 2.7612C14.0047 2.25866 12.7585 2 11.5 2V2Z" fill="#BC3B1D"/>
</svg>
