<?xml version="1.0" encoding="UTF-8"?><svg id="GKE_google" xmlns="http://www.w3.org/2000/svg" viewBox="0 0 32 32"><defs><style>.cls-1{fill:#fff;}.cls-2{fill:#137bd3;}.cls-3{fill:#010202;isolation:isolate;opacity:.07;}</style></defs><path class="cls-2" d="m31.61,14.52l-6.57-11.43c-.5-.89-1.44-1.45-2.47-1.47h-13.15c-1.02.02-1.97.58-2.47,1.47L.38,14.49c-.51.89-.51,1.97,0,2.86l6.57,11.5c.5.9,1.43,1.48,2.47,1.52h13.15c1.03-.04,1.97-.61,2.47-1.51l6.57-11.43c.51-.9.51-2,0-2.9Z"/><path class="cls-3" d="m22.41,12.11l-6.4-2.86-6.12,3.33-.25,7.33,10.46,10.47h2.5c1.03-.04,1.97-.61,2.47-1.51l5.14-8.97-7.79-7.79Z"/><g id="art"><path class="cls-1" d="m22.24,11.99l-5.91-3.42c-.21-.12-.46-.12-.68,0l-5.91,3.42c-.21.12-.34.35-.34.58v6.84c0,.24.13.46.34.58l5.91,3.42c.21.12.46.12.68,0l5.91-3.42c.21-.12.34-.35.34-.58v-6.84c0-.24-.13-.46-.34-.58Zm-.8,6.76l-2.07-1.19v-3.14l-3.05,1.75v3.54l2.72-1.57,2.07,1.19-5.12,2.95-5.12-2.95,2.07-1.19,2.72,1.57v-3.52l-3.04-1.75v3.13l-2.07,1.19v-5.9l5.12-2.95v2.38l-2.72,1.57,3.05,1.75,3.05-1.75-2.72-1.57v-2.38l5.12,2.95v5.9h-.01Z"/></g></svg>