<?xml version="1.0" encoding="UTF-8"?><svg id="Liquid_Metal" xmlns="http://www.w3.org/2000/svg" xmlns:xlink="http://www.w3.org/1999/xlink" viewBox="0 0 32 32"><defs><style>.cls-1{fill:url(#Degradado_sin_nombre_2);}.cls-2{fill:url(#Degradado_sin_nombre_3);}.cls-3{fill:url(#Degradado_sin_nombre_4);}</style><linearGradient id="Degradado_sin_nombre_4" x1="7.56" y1="31.31" x2="26.2" y2="31.31" gradientTransform="translate(0 42) scale(1 -1)" gradientUnits="userSpaceOnUse"><stop offset="0" stop-color="#00d2ff"/><stop offset=".46" stop-color="#00d2ff"/><stop offset=".6" stop-color="#00caf6"/><stop offset=".83" stop-color="#00b5de"/><stop offset=".99" stop-color="#00a4ca"/></linearGradient><linearGradient id="Degradado_sin_nombre_2" x1="10.28" y1="22.2" x2="29.29" y2="22.2" gradientTransform="translate(0 42) scale(1 -1)" gradientUnits="userSpaceOnUse"><stop offset="0" stop-color="#514d64"/><stop offset=".12" stop-color="#525571"/><stop offset=".38" stop-color="#556489"/><stop offset=".54" stop-color="#576a92"/><stop offset="1" stop-color="#576a92"/></linearGradient><linearGradient id="Degradado_sin_nombre_3" x1="12.13" y1="10" x2="12.13" y2="37.14" gradientTransform="translate(0 42) scale(1 -1)" gradientUnits="userSpaceOnUse"><stop offset="0" stop-color="#e84f2a"/><stop offset=".46" stop-color="#e84f2a"/><stop offset=".61" stop-color="#df4b29"/><stop offset=".87" stop-color="#c74229"/><stop offset="1" stop-color="#b83d29"/></linearGradient></defs><path class="cls-3" d="m25.64,8.36c-1.97-2.92-4.08-5.18-5.83-6.81-2.22-2.07-5.67-2.07-7.89,0-1.32,1.23-2.84,2.82-4.36,4.78,3.37-3.58,6.19.23,8.31,2.31.06.06.13.13.2.2.8.83,1.75,1.97,2.62,3.22.36.52.71,1.07,1.03,1.61.88,1.53,1.51,3.11,1.51,4.4s-.43,2.4-1.15,3.31c4.45-1.38,7.43-8.21,5.56-13.03h0Z"/><path class="cls-1" d="m25.59,8.29h0s0,.01,0,.01c-.06.43-.12.85-.19,1.26h0c-.02.15-.04.28-.07.42h0c-.02.12-.04.23-.05.35,0,.03,0,.06-.01.09-.02.11-.04.21-.05.31,0,.03-.01.07-.02.1-.02.1-.04.21-.06.31,0,.04-.01.07-.02.11-.02.1-.04.2-.06.3,0,.04-.01.08-.02.12-.02.09-.04.18-.06.28,0,.04-.02.09-.03.14-.02.09-.04.18-.06.27-.01.05-.02.1-.03.14-.02.08-.04.17-.06.25-.01.05-.02.11-.04.16-.02.08-.04.16-.06.24-.01.05-.03.11-.04.16-.02.08-.04.15-.06.23l-.05.18c-.02.08-.04.15-.07.23-.02.06-.03.12-.05.17-.02.07-.05.15-.07.23-.02.06-.04.12-.06.18-.02.07-.05.14-.07.21-.02.06-.04.13-.07.19-.03.07-.06.15-.08.22-.02.06-.04.12-.07.18-.03.08-.06.15-.09.23-.02.06-.04.11-.07.17-.03.07-.06.15-.09.22-.03.06-.05.12-.08.18-.03.07-.06.14-.1.21-.03.06-.06.13-.09.19-.03.07-.07.14-.1.2-.03.07-.06.13-.1.2-.04.07-.07.14-.11.21-.03.06-.07.13-.1.19-.04.07-.07.13-.11.2-.04.07-.07.14-.11.2-.04.06-.07.12-.11.18-.04.07-.09.15-.13.22-.04.07-.09.14-.13.2-.04.07-.08.13-.13.2-.05.07-.1.14-.15.22-.04.06-.08.13-.13.19-.05.07-.1.14-.15.21-.05.06-.09.13-.14.19-.06.07-.11.15-.17.22-.05.06-.09.12-.14.18-.07.09-.14.17-.2.25-.04.05-.08.1-.12.15-.06.07-.12.14-.18.21-.06.07-.11.13-.17.2-.05.06-.11.12-.16.18-.07.08-.14.15-.21.23-.13.14-.26.27-.39.41-.07.08-.13.16-.2.24,0,0,0,0,0,.01-.02.02-.04.04-.06.06-.05.06-.1.11-.15.16h0s-.01.02-.02.02c-.02.02-.04.04-.06.06-.05.05-.1.1-.15.14-.02.02-.05.04-.07.06-.06.05-.11.1-.17.14,0,0-.02.02-.03.02,0,0,0,0-.01.01h0s-.01,0-.02.01h0s-.03.02-.04.03c-.05.04-.1.07-.15.11-.02.01-.04.03-.06.04h0s-.03.02-.04.03c-.14.09-.29.18-.44.26-.01,0-.02.01-.03.02-.18.09-.37.18-.56.25-.03.01-.06.02-.09.04-.09.03-.17.06-.26.09-.03,0-.05.02-.08.02-.07.02-.13.04-.2.05-.03,0-.05.01-.08.02-.18.04-.36.07-.55.1-.03,0-.06,0-.08,0-.07,0-.14.01-.21.02-.03,0-.06,0-.08,0-.09,0-.19,0-.29,0s-.2,0-.29,0h-.01c-.09,0-.19-.01-.28-.02h0c-.11-.01-.21-.03-.32-.04h0c-.2-.04-.4-.08-.59-.14h0c-.24-.07-.47-.16-.7-.26h0s-.06-.03-.09-.04c-.04-.02-.08-.04-.11-.06,0,0-.01,0-.02-.01-.03-.01-.06-.03-.09-.05-.04-.02-.09-.05-.13-.07h0c-.38-.22-.72-.48-1.03-.77l-.03-.03s-.02-.02-.02-.02c-.04-.04-.08-.08-.12-.12h0s-.04-.04-.05-.06c-.02-.02-.03-.03-.05-.05h0s-.02-.02-.03-.03c-.04-.05-.09-.1-.13-.15,0,0-.01-.01-.02-.02-.15-.18-.28-.36-.4-.56,0,0,0,0,0-.01-.03-.05-.06-.09-.08-.14-.01-.02-.03-.05-.04-.07,0-.01-.02-.03-.02-.04-.03-.05-.06-.1-.08-.15,0,0,0-.01-.01-.02h0c-.11-.22-.2-.44-.28-.66,0,0,0-.01,0-.02-.01-.04-.03-.09-.04-.13,0-.03-.02-.06-.03-.09,0,0,0-.01,0-.02h0s0-.03-.01-.04c-.09-.31-.14-.63-.17-.96h0c0-.11-.01-.21-.02-.32h-.23v1.2h.28c0,.15.02.3.03.46,0,.04,0,.07,0,.11.03.32.07.66.12,1,0,.03,0,.06.01.09.06.35.13.72.21,1.09,0,.02,0,.04.01.06.09.38.19.75.32,1.14,0,.02.01.03.02.05.06.19.13.39.21.58,1,2.61,2.97,5.11,6.7,6.1,1.26.27,1.4.96,2.03,1.21,2.48-.83,4.64-2.38,6.22-4.39,1.78-2.26,2.84-5.11,2.84-8.21,0-5.06-3.27-9.8-3.7-10.42h0Z"/><path class="cls-2" d="m10.52,18.32h0c0-.08,0-.16,0-.25h0c0-.1,0-.19,0-.28h0c.2-2.96,3.36-7.16,5.35-9.16-2.12-2.08-4.94-5.89-8.31-2.31-.39.5-.77,1.03-1.16,1.58-2.16,3.77-3.69,7.63-3.69,10.81,0,.39.02.78.05,1.16.59,6.79,6.29,12.12,13.24,12.12,1.99,0,3.87-.44,5.56-1.22-6.16-.86-10.93-6.09-11.05-12.46h0Z"/></svg>