<svg width="18" height="18" viewBox="0 0 18 18"  xmlns="http://www.w3.org/2000/svg">
<path d="M8.8 10.29C9.17 10.29 9.485 10.1625 9.745 9.9075C10.005 9.6525 10.135 9.335 10.135 8.955C10.135 8.585 10.005 8.27 9.745 8.01C9.485 7.75 9.17 7.62 8.8 7.62C8.43 7.62 8.115 7.75 7.855 8.01C7.595 8.27 7.465 8.585 7.465 8.955C7.465 9.335 7.595 9.6525 7.855 9.9075C8.115 10.1625 8.43 10.29 8.8 10.29ZM8.8 14.07C9.27 13.91 9.75 13.6575 10.24 13.3125C10.73 12.9675 11.125 12.575 11.425 12.135L10.045 10.815C9.855 10.925 9.655 11.015 9.445 11.085C9.235 11.155 9.02 11.19 8.8 11.19C8.18 11.19 7.6525 10.975 7.2175 10.545C6.7825 10.115 6.565 9.585 6.565 8.955C6.565 8.335 6.7825 7.8075 7.2175 7.3725C7.6525 6.9375 8.18 6.72 8.8 6.72C9.42 6.72 9.9475 6.9375 10.3825 7.3725C10.8175 7.8075 11.035 8.34 11.035 8.97C11.035 9.18 11.005 9.39 10.945 9.6C10.885 9.81 10.79 10 10.66 10.17L11.92 11.37C12.16 10.94 12.35 10.4675 12.49 9.9525C12.63 9.4375 12.7 8.91 12.7 8.37V5.4L8.8 3.975L4.9 5.4V8.37C4.9 9.68 5.2625 10.8625 5.9875 11.9175C6.7125 12.9725 7.65 13.69 8.8 14.07ZM8.8 15C7.4 14.65 6.25 13.8375 5.35 12.5625C4.45 11.2875 4 9.89 4 8.37V4.8L8.8 3L13.6 4.8V8.37C13.6 9.89 13.15 11.2875 12.25 12.5625C11.35 13.8375 10.2 14.65 8.8 15Z"/>
</svg>
