<?xml version="1.0" encoding="UTF-8"?><svg id="rancher" xmlns="http://www.w3.org/2000/svg" viewBox="0 0 32 32"><defs><style>.cls-1{fill:#0075a8;}</style></defs><path class="cls-1" d="m19.66,8.98c.21,0,.38.56.38,1.23h0v.32s.06-.02.11-.02h6.82c.67,0,1.23.56,1.23,1.25h0v6.4c0,.67-.56,1.23-1.23,1.23h-3.31c-.67,0-1.23-.56-1.23-1.23h0v-2.51c-.3.22-.5.58-.5.98h0v2.1c0,.67.56,1.23,1.23,1.23h2.16v3.31c0,.42-.34.75-.75.75h-4.06c-.42,0-.75-.34-.75-.75h0v-3.04c0-.42-.34-.75-.75-.75h-10.13c-.42,0-.75.34-.75.75h0v3.04c0,.42-.34.75-.75.75H3.31c-.42,0-.75-.34-.75-.75h0v-8.77l-1.82,1.44c-.08.06-.19.05-.26-.03H.48l-.53-.62c-.06-.06-.06-.16-.02-.22H-.07l2.69-4.11c.13-.27.38-.45.69-.45h14.27c.46,0,.82.42.74.88h0l-.29,1.74c-.08.46.27.88.74.88h2.88c.37,0,.67-.26.74-.61-.16.06-.37.1-.58.1h-2.05c-.67,0-1.14-.54-1.02-1.22h0l.35-2.08c.11-.67.37-1.22.58-1.22Zm11.29,0c.21,0,.46.54.58,1.22h0l.35,2.08c.11.67-.35,1.22-1.04,1.22h-2.16v-1.5h.66c.67,0,1.23-.56,1.23-1.23h0v-.54c0-.67.18-1.23.38-1.23Z"/></svg>