<svg width="150" height="32" viewBox="0 0 150 32" fill="none" xmlns="http://www.w3.org/2000/svg">
<path d="M46.6432 20.8319L44.3968 13.5871L42.1504 20.8319H39.1552L35.9189 10.1973H38.8245L40.8064 17.3525L43.1403 10.1973H45.6278L47.9616 17.3525L49.9435 10.1973H52.8491L49.6128 20.8319H46.6411H46.6432Z" fill="#32314A"/>
<path d="M52.7959 15.5037C52.7959 12.4211 55.0636 9.93359 58.2999 9.93359C61.5362 9.93359 63.629 12.3123 63.629 15.7896V16.4061H55.725C55.902 17.7501 56.9794 18.8723 58.7863 18.8723C59.6887 18.8723 60.9431 18.4755 61.6258 17.8163L62.8588 19.6211C61.8028 20.5896 60.1282 21.0973 58.477 21.0973C55.2407 21.0973 52.7959 18.9171 52.7959 15.5059V15.5037ZM58.2999 12.1565C56.5612 12.1565 55.8124 13.4557 55.6802 14.5117H60.9196C60.8535 13.4984 60.1495 12.1565 58.2999 12.1565Z" fill="#32314A"/>
<path d="M71.4584 20.8326V19.7318C70.7309 20.5894 69.4765 21.0972 68.0898 21.0972C66.3938 21.0972 64.3906 19.9516 64.3906 17.575C64.3906 15.1985 66.3938 14.1404 68.0898 14.1404C69.5 14.1404 70.7544 14.6033 71.4584 15.4396V14.0081C71.4584 12.9286 70.5346 12.2246 69.1245 12.2246C67.9789 12.2246 66.9229 12.6428 66.0205 13.479L64.9645 11.6081C66.2637 10.4625 67.9362 9.93555 69.6109 9.93555C72.0322 9.93555 74.2573 10.9041 74.2573 13.9654V20.8348H71.4605L71.4584 20.8326ZM71.4584 18.279V16.9585C70.9954 16.342 70.1144 16.0347 69.212 16.0347C68.1112 16.0347 67.2088 16.6065 67.2088 17.6412C67.2088 18.6758 68.1112 19.2049 69.212 19.2049C70.1144 19.2049 70.9954 18.8956 71.4584 18.2812V18.279Z" fill="#32314A"/>
<path d="M78.7817 20.8319L74.5107 10.1973H77.5059L80.2793 17.5957L83.0526 10.1973H86.0691L81.7982 20.8319H78.7817Z" fill="#32314A"/>
<path d="M85.7065 15.5037C85.7065 12.4211 87.9743 9.93359 91.2105 9.93359C94.4468 9.93359 96.5396 12.3123 96.5396 15.7896V16.4061H88.6356C88.8127 17.7501 89.89 18.8723 91.6969 18.8723C92.5993 18.8723 93.8537 18.4755 94.5364 17.8163L95.7695 19.6211C94.7135 20.5896 93.0388 21.0973 91.3876 21.0973C88.1513 21.0973 85.7065 18.9171 85.7065 15.5059V15.5037ZM91.2105 12.1565C89.4719 12.1565 88.7231 13.4557 88.5908 14.5117H93.8303C93.7641 13.4984 93.0601 12.1565 91.2105 12.1565Z" fill="#32314A"/>
<path d="M98.193 23.54L98.8544 22.6589C99.7781 23.7597 100.791 24.1565 102.377 24.1565C104.314 24.1565 106.01 23.188 106.01 20.7432V19.0707C105.261 20.1501 103.895 21.0525 102.31 21.0525C99.4922 21.0525 97.5552 18.9171 97.5552 15.5037C97.5552 12.0904 99.4922 9.93359 102.31 9.93359C103.829 9.93359 105.15 10.7037 106.01 11.9155V10.1981H107.177V20.7219C107.177 23.9795 104.975 25.1485 102.377 25.1485C100.593 25.1485 99.4474 24.8179 98.193 23.5421V23.54ZM106.01 18.0787V12.9053C105.393 11.8707 103.983 10.9683 102.509 10.9683C100.154 10.9683 98.7882 12.9288 98.7882 15.5037C98.7882 18.0787 100.154 20.0179 102.509 20.0179C103.985 20.0179 105.393 19.1155 106.01 18.0808V18.0787Z" fill="#32314A"/>
<path d="M109.705 7.64196C109.705 7.15769 110.123 6.78223 110.586 6.78223C111.049 6.78223 111.467 7.15556 111.467 7.64196C111.467 8.12836 111.07 8.52303 110.586 8.52303C110.101 8.52303 109.705 8.12623 109.705 7.64196ZM110.014 20.8302V10.1956H111.16V20.8302H110.014Z" fill="#32314A"/>
<path d="M114.426 18.7843V11.2109H112.664V10.1976H114.426V7.29199H115.593V10.1976H117.749V11.2109H115.593V18.6093C115.593 19.4669 115.945 20.0621 116.693 20.0621C117.199 20.0621 117.641 19.8189 117.882 19.5565L118.321 20.4376C117.903 20.8344 117.397 21.0989 116.516 21.0989C115.106 21.0989 114.426 20.2392 114.426 18.7864V18.7843Z" fill="#32314A"/>
<path d="M118.641 15.5037C118.641 12.3997 120.644 9.93359 123.75 9.93359C126.857 9.93359 128.881 12.3997 128.881 15.5037C128.881 18.6077 126.899 21.0952 123.75 21.0952C120.602 21.0952 118.641 18.6077 118.641 15.5037ZM127.646 15.5037C127.646 13.1485 126.259 10.9683 123.748 10.9683C121.237 10.9683 119.872 13.1485 119.872 15.5037C119.872 17.8589 121.282 20.0605 123.748 20.0605C126.214 20.0605 127.646 17.8803 127.646 15.5037Z" fill="#32314A"/>
<path d="M131.927 19.1155V24.884H130.782V10.1981H131.927V11.8707C132.676 10.7912 134.041 9.93359 135.627 9.93359C138.466 9.93359 140.382 12.0904 140.382 15.5037C140.382 18.9171 138.466 21.0952 135.627 21.0952C134.129 21.0952 132.787 20.3251 131.927 19.1133V19.1155ZM139.149 15.5037C139.149 12.9267 137.805 10.9683 135.428 10.9683C133.952 10.9683 132.544 11.8493 131.927 12.8627V18.1256C132.544 19.1389 133.954 20.0627 135.428 20.0627C137.807 20.0627 139.149 18.0808 139.149 15.5059V15.5037Z" fill="#32314A"/>
<path d="M141.331 19.4227L142.014 18.5629C142.696 19.4227 143.951 20.1267 145.448 20.1267C147.232 20.1267 148.288 19.2029 148.288 17.9699C148.288 15.0643 141.572 16.692 141.572 12.884C141.572 11.2541 142.959 9.93359 145.359 9.93359C147.187 9.93359 148.397 10.6376 149.169 11.4973L148.531 12.3123C147.915 11.476 146.769 10.9021 145.361 10.9021C143.71 10.9021 142.696 11.7384 142.696 12.8392C142.696 15.5037 149.412 13.8739 149.412 17.9699C149.412 19.6872 148.092 21.0973 145.427 21.0973C143.71 21.0973 142.389 20.5917 141.331 19.4248V19.4227Z" fill="#32314A"/>
<path d="M13.0368 27.0891C8.22827 25.9413 4.6272 21.4037 4.6272 15.9979C4.6272 9.72587 9.472 4.62507 15.4261 4.62507C18.9312 4.62507 22.2336 6.43414 24.2603 9.46347L27.9339 6.63467C25.1328 2.61547 20.5739 0 15.4261 0C6.90774 0 0 7.16374 0 15.9979C0 23.9893 5.6512 30.6134 13.0347 31.8059V27.0912L13.0368 27.0891Z" fill="#32314A"/>
<path d="M30.8117 15.0637H20.4991V19.7101H29.2607L17.9775 31.7741C18.001 31.7698 18.0245 31.7655 18.0479 31.7613C18.1973 31.7357 18.3445 31.7058 18.4938 31.6759C18.5514 31.6631 18.609 31.6503 18.6666 31.6375C18.7733 31.6141 18.8799 31.5885 18.9866 31.5629C19.0698 31.5437 19.1509 31.5223 19.2341 31.501C19.2895 31.4861 19.345 31.4711 19.4026 31.4541C25.7045 29.7133 30.417 23.9341 30.8159 16.9517C30.8245 16.8109 30.8287 16.6701 30.8351 16.5357C30.8351 16.5165 30.8351 16.4973 30.8351 16.4802C30.8351 16.4354 30.8373 16.3927 30.8394 16.3501C30.8415 16.2413 30.8437 16.1325 30.8437 16.0215C30.8437 15.6994 30.833 15.3794 30.8138 15.0615L30.8117 15.0637Z" fill="#32314A"/>
<path d="M13.0366 20.6399L9.16029 24.3839V6.74121C6.42322 8.80201 4.63335 12.1748 4.62695 15.9785V27.4239C5.53789 28.3647 6.53416 29.073 6.62802 29.1434C8.12562 30.2335 9.26269 30.6708 9.31602 30.6943L13.0366 27.1018V20.642V20.6399Z" fill="#FF4B19"/>
<path d="M22.9356 19.7122L17.9372 25.2162V9.95215L13.0391 14.4215V31.806C14.0055 31.9959 15.3004 31.9938 15.422 31.998C16.2732 32.0194 17.4913 31.8743 17.9777 31.7804L29.2631 19.7122H22.9356Z" fill="#00D2FF"/>
<path d="M16.7895 4.71673C16.3393 4.657 15.8807 4.625 15.422 4.625C14.6028 4.625 13.8049 4.721 13.0391 4.9066V8.14073L16.7895 4.71886V4.71673Z" fill="#00D2FF"/>
<path d="M16.7893 4.7168L9.1626 11.6779V17.9605L21.5615 6.64533C20.1471 5.61706 18.513 4.94933 16.7914 4.7168H16.7893Z" fill="#576A92"/>
</svg>
