<svg width="18" height="18" viewBox="0 0 18 18" xmlns="http://www.w3.org/2000/svg">
<path d="M4 15C3.73333 15 3.5 14.9 3.3 14.7C3.1 14.5 3 14.2667 3 14V4C3 3.73333 3.1 3.5 3.3 3.3C3.5 3.1 3.73333 3 4 3H14C14.2667 3 14.5 3.1 14.7 3.3C14.9 3.5 15 3.73333 15 4V14C15 14.2667 14.9 14.5 14.7 14.7C14.5 14.9 14.2667 15 14 15H4ZM4 14H14V4H4V14ZM8.53333 12.2333H9.46667L9.63333 11.3333C9.85556 11.2667 10.0444 11.1833 10.2 11.0833C10.3556 10.9833 10.5 10.8667 10.6333 10.7333L11.6667 11.05L12.1 10.15L11.3167 9.65C11.3611 9.41667 11.3833 9.2 11.3833 9C11.3833 8.8 11.3611 8.58333 11.3167 8.35L12.1 7.85L11.6667 6.95L10.6333 7.26667C10.5 7.13333 10.3556 7.01667 10.2 6.91667C10.0444 6.81667 9.85556 6.73333 9.63333 6.66667L9.46667 5.76667H8.53333L8.36667 6.66667C8.14444 6.73333 7.95556 6.81667 7.8 6.91667C7.64444 7.01667 7.5 7.13333 7.36667 7.26667L6.33333 6.95L5.9 7.85L6.68333 8.35C6.63889 8.58333 6.61667 8.8 6.61667 9C6.61667 9.2 6.63889 9.41667 6.68333 9.65L5.9 10.15L6.33333 11.05L7.36667 10.7333C7.5 10.8667 7.64444 10.9833 7.8 11.0833C7.95556 11.1833 8.14444 11.2667 8.36667 11.3333L8.53333 12.2333ZM9 10.4167C8.6 10.4167 8.26389 10.2806 7.99167 10.0083C7.71944 9.73611 7.58333 9.4 7.58333 9C7.58333 8.6 7.71944 8.26389 7.99167 7.99167C8.26389 7.71944 8.6 7.58333 9 7.58333C9.4 7.58333 9.73611 7.71944 10.0083 7.99167C10.2806 8.26389 10.4167 8.6 10.4167 9C10.4167 9.4 10.2806 9.73611 10.0083 10.0083C9.73611 10.2806 9.4 10.4167 9 10.4167ZM4 14V4V14Z"/>
</svg>
