<svg width="20" height="20" viewBox="0 0 12 12" fill="#1A1A1A" xmlns="http://www.w3.org/2000/svg">
<path d="M1 12C0.733333 12 0.5 11.9 0.3 11.7C0.1 11.5 0 11.2667 0 11V1C0 0.733333 0.1 0.5 0.3 0.3C0.5 0.1 0.733333 0 1 0H11C11.2667 0 11.5 0.1 11.7 0.3C11.9 0.5 12 0.733333 12 1V11C12 11.2667 11.9 11.5 11.7 11.7C11.5 11.9 11.2667 12 11 12H1ZM1 11H11V1H1V11ZM5.53333 9.23333H6.46667L6.63333 8.33333C6.85556 8.26667 7.04444 8.18333 7.2 8.08333C7.35556 7.98333 7.5 7.86667 7.63333 7.73333L8.66667 8.05L9.1 7.15L8.31667 6.65C8.36111 6.41667 8.38333 6.2 8.38333 6C8.38333 5.8 8.36111 5.58333 8.31667 5.35L9.1 4.85L8.66667 3.95L7.63333 4.26667C7.5 4.13333 7.35556 4.01667 7.2 3.91667C7.04444 3.81667 6.85556 3.73333 6.63333 3.66667L6.46667 2.76667H5.53333L5.36667 3.66667C5.14444 3.73333 4.95556 3.81667 4.8 3.91667C4.64444 4.01667 4.5 4.13333 4.36667 4.26667L3.33333 3.95L2.9 4.85L3.68333 5.35C3.63889 5.58333 3.61667 5.8 3.61667 6C3.61667 6.2 3.63889 6.41667 3.68333 6.65L2.9 7.15L3.33333 8.05L4.36667 7.73333C4.5 7.86667 4.64444 7.98333 4.8 8.08333C4.95556 8.18333 5.14444 8.26667 5.36667 8.33333L5.53333 9.23333ZM6 7.41667C5.6 7.41667 5.26389 7.28056 4.99167 7.00833C4.71944 6.73611 4.58333 6.4 4.58333 6C4.58333 5.6 4.71944 5.26389 4.99167 4.99167C5.26389 4.71944 5.6 4.58333 6 4.58333C6.4 4.58333 6.73611 4.71944 7.00833 4.99167C7.28056 5.26389 7.41667 5.6 7.41667 6C7.41667 6.4 7.28056 6.73611 7.00833 7.00833C6.73611 7.28056 6.4 7.41667 6 7.41667ZM1 11V1V11Z"/>
</svg>
