<svg width="18" height="18" viewBox="0 0 18 18" xmlns="http://www.w3.org/2000/svg">
<path d="M5.64032 4.92885C5.41897 4.92885 5.23188 5.00527 5.07905 5.1581C4.92622 5.31094 4.8498 5.49802 4.8498 5.71937C4.8498 5.94071 4.92622 6.1278 5.07905 6.28063C5.23188 6.43346 5.41897 6.50988 5.64032 6.50988C5.86166 6.50988 6.04875 6.43346 6.20158 6.28063C6.35441 6.1278 6.43083 5.94071 6.43083 5.71937C6.43083 5.49802 6.35441 5.31094 6.20158 5.1581C6.04875 5.00527 5.86166 4.92885 5.64032 4.92885ZM5.64032 11.4743C5.41897 11.4743 5.23188 11.5507 5.07905 11.7036C4.92622 11.8564 4.8498 12.0435 4.8498 12.2648C4.8498 12.4862 4.92622 12.6733 5.07905 12.8261C5.23188 12.9789 5.41897 13.0553 5.64032 13.0553C5.86166 13.0553 6.04875 12.9789 6.20158 12.8261C6.35441 12.6733 6.43083 12.4862 6.43083 12.2648C6.43083 12.0435 6.35441 11.8564 6.20158 11.7036C6.04875 11.5507 5.86166 11.4743 5.64032 11.4743ZM3.53755 3H13.83C13.9987 3 14.1331 3.05007 14.2332 3.1502C14.3333 3.25033 14.3834 3.38472 14.3834 3.55336V7.80632C14.3834 7.98551 14.3333 8.13834 14.2332 8.26482C14.1331 8.3913 13.9987 8.45455 13.83 8.45455H3.53755C3.37945 8.45455 3.25033 8.3913 3.1502 8.26482C3.05007 8.13834 3 7.98551 3 7.80632V3.55336C3 3.38472 3.05007 3.25033 3.1502 3.1502C3.25033 3.05007 3.37945 3 3.53755 3ZM3.94862 3.94862V7.50593H13.4348V3.94862H3.94862ZM3.53755 9.52964H13.7668C13.9249 9.52964 14.0672 9.59552 14.1937 9.72727C14.3202 9.85903 14.3834 10.0092 14.3834 10.1779V14.3518C14.3834 14.5626 14.3202 14.7233 14.1937 14.834C14.0672 14.9447 13.9249 15 13.7668 15H3.6166C3.44796 15 3.30303 14.9447 3.18182 14.834C3.06061 14.7233 3 14.5626 3 14.3518V10.1779C3 10.0092 3.05007 9.85903 3.1502 9.72727C3.25033 9.59552 3.37945 9.52964 3.53755 9.52964ZM3.94862 10.4783V14.0514H13.4348V10.4783H3.94862ZM3.94862 3.94862V7.50593V3.94862ZM3.94862 10.4783V14.0514V10.4783Z"/>
</svg>
