<svg width="24" height="24" viewBox="0 0 18 19" fill="#1A1A1A" xmlns="http://www.w3.org/2000/svg">
<path d="M5.64032 5.42885C5.41897 5.42885 5.23188 5.50527 5.07905 5.6581C4.92622 5.81094 4.8498 5.99802 4.8498 6.21937C4.8498 6.44071 4.92622 6.6278 5.07905 6.78063C5.23188 6.93346 5.41897 7.00988 5.64032 7.00988C5.86166 7.00988 6.04875 6.93346 6.20158 6.78063C6.35441 6.6278 6.43083 6.44071 6.43083 6.21937C6.43083 5.99802 6.35441 5.81094 6.20158 5.6581C6.04875 5.50527 5.86166 5.42885 5.64032 5.42885ZM5.64032 11.9743C5.41897 11.9743 5.23188 12.0507 5.07905 12.2036C4.92622 12.3564 4.8498 12.5435 4.8498 12.7648C4.8498 12.9862 4.92622 13.1733 5.07905 13.3261C5.23188 13.4789 5.41897 13.5553 5.64032 13.5553C5.86166 13.5553 6.04875 13.4789 6.20158 13.3261C6.35441 13.1733 6.43083 12.9862 6.43083 12.7648C6.43083 12.5435 6.35441 12.3564 6.20158 12.2036C6.04875 12.0507 5.86166 11.9743 5.64032 11.9743ZM3.53755 3.5H13.83C13.9987 3.5 14.1331 3.55007 14.2332 3.6502C14.3333 3.75033 14.3834 3.88472 14.3834 4.05336V8.30632C14.3834 8.48551 14.3333 8.63834 14.2332 8.76482C14.1331 8.8913 13.9987 8.95455 13.83 8.95455H3.53755C3.37945 8.95455 3.25033 8.8913 3.1502 8.76482C3.05007 8.63834 3 8.48551 3 8.30632V4.05336C3 3.88472 3.05007 3.75033 3.1502 3.6502C3.25033 3.55007 3.37945 3.5 3.53755 3.5ZM3.94862 4.44862V8.00593H13.4348V4.44862H3.94862ZM3.53755 10.0296H13.7668C13.9249 10.0296 14.0672 10.0955 14.1937 10.2273C14.3202 10.359 14.3834 10.5092 14.3834 10.6779V14.8518C14.3834 15.0626 14.3202 15.2233 14.1937 15.334C14.0672 15.4447 13.9249 15.5 13.7668 15.5H3.6166C3.44796 15.5 3.30303 15.4447 3.18182 15.334C3.06061 15.2233 3 15.0626 3 14.8518V10.6779C3 10.5092 3.05007 10.359 3.1502 10.2273C3.25033 10.0955 3.37945 10.0296 3.53755 10.0296ZM3.94862 10.9783V14.5514H13.4348V10.9783H3.94862ZM3.94862 4.44862V8.00593V4.44862ZM3.94862 10.9783V14.5514V10.9783Z"/>
</svg>
