<?xml version="1.0" encoding="UTF-8"?>
<svg id="Docker" xmlns="http://www.w3.org/2000/svg" viewBox="0 0 32 32">
  <defs>
    <style>
      .cls-1 {
        fill: #00acd3;
      }

      .cls-1, .cls-2, .cls-3, .cls-4 {
        fill-rule: evenodd;
      }

      .cls-1, .cls-2, .cls-3, .cls-4, .cls-5, .cls-6, .cls-7, .cls-8, .cls-9, .cls-10 {
        stroke-width: 0px;
      }

      .cls-2 {
        fill: #23c2ee;
      }

      .cls-3 {
        fill: #3a4d54;
      }

      .cls-4, .cls-6 {
        fill: #d4eef1;
      }

      .cls-5 {
        fill: #28b8eb;
      }

      .cls-7 {
        fill: #bfdbe0;
      }

      .cls-8 {
        fill: #00aada;
      }

      .cls-9 {
        fill: #028bb8;
      }

      .cls-10 {
        fill: #019bc6;
      }
    </style>
  </defs>
  <path class="cls-3" d="m18.49,12.67h2.87v2.93h1.45c.66,0,1.35-.13,1.98-.33.31-.1.66-.25.97-.43-.41-.53-.61-1.2-.66-1.86-.08-.89.1-2.06.71-2.75l.31-.36.36.28c.92.74,1.65,1.73,1.81,2.9,1.09-.33,2.37-.25,3.33.31l.38.23-.2.41c-.81,1.58-2.52,2.09-4.17,1.98-2.49,6.18-7.89,9.11-14.45,9.11-3.38,0-6.49-1.27-8.27-4.27l-.03-.05-.25-.53c-.61-1.32-.79-2.77-.66-4.22l.05-.43h2.44v-2.9h2.87v-2.87h5.72v-2.87h3.43s0,5.75,0,5.75Z"/>
  <path class="cls-8" d="m27.78,13.74c.2-1.5-.92-2.67-1.63-3.23-.79.92-.92,3.36.33,4.38-.71.61-2.16,1.2-3.69,1.2H4.43c-.15,1.58.13,3.03.76,4.27l.2.38c.13.23.28.43.43.66.76.05,1.45.08,2.09.05,1.25-.03,2.26-.18,3.05-.43.13-.05.23.03.28.13.05.13-.03.23-.13.28-.1.03-.2.08-.33.1-.61.18-1.27.28-2.11.33h-.15c-.33.03-.69.03-1.07.03-.41,0-.79,0-1.25-.03,1.53,1.73,3.92,2.75,6.92,2.75,6.36,0,11.75-2.82,14.12-9.13,1.7.18,3.33-.25,4.07-1.7-1.14-.66-2.67-.46-3.54-.03Z"/>
  <path class="cls-5" d="m27.78,13.74c.2-1.5-.92-2.67-1.63-3.23-.79.92-.92,3.36.33,4.38-.71.61-2.16,1.2-3.69,1.2H5.49c-.08,2.42.81,4.25,2.42,5.34,1.25-.03,2.26-.18,3.05-.43.13-.05.23.03.28.13.05.13-.03.23-.13.28-.1.03-.2.08-.33.1-.61.18-1.32.31-2.16.36l-.03-.03c2.16,1.12,5.29,1.09,8.9-.28,4.02-1.55,7.78-4.5,10.4-7.86-.05.03-.08.05-.13.05h0Z"/>
  <path class="cls-9" d="m4.45,17.98c.1.84.36,1.63.74,2.37l.2.38c.13.23.28.43.43.66.76.05,1.45.08,2.09.05,1.25-.03,2.26-.18,3.05-.43.13-.05.23.03.28.13.05.13-.03.23-.13.28-.1.03-.2.08-.33.1-.61.18-1.32.31-2.16.36h-.1c-.33.03-.69.03-1.04.03-.41,0-.81,0-1.25-.03,1.53,1.73,3.94,2.75,6.94,2.75,5.44,0,10.17-2.06,12.92-6.61H4.45s0-.03,0-.03Z"/>
  <path class="cls-10" d="m5.67,17.98c.33,1.48,1.09,2.65,2.24,3.43,1.25-.03,2.26-.18,3.05-.43.13-.05.23.03.28.13.05.13-.03.23-.13.28-.1.03-.2.08-.33.1-.61.18-1.32.31-2.19.36,2.16,1.12,5.29,1.09,8.88-.28,2.16-.84,4.27-2.09,6.16-3.59,0,0-17.96,0-17.96,0Z"/>
  <path class="cls-1" d="m6.92,13.13h2.49v2.49h-2.49v-2.49Zm.2.23h.2v2.06h-.2v-2.06Zm.38,0h.2v2.06h-.2v-2.06Zm.38,0h.2v2.06h-.2v-2.06Zm.36,0h.2v2.06h-.2v-2.06Zm.38,0h.2v2.06h-.2v-2.06Zm.38,0h.2v2.06h-.2v-2.06Zm.79-3.08h2.49v2.47h-2.49v-2.47Zm.2.2h.2v2.06h-.2s0-2.06,0-2.06Zm.38,0h.2v2.06h-.2s0-2.06,0-2.06Zm.36,0h.2v2.06h-.2s0-2.06,0-2.06Zm.38,0h.2v2.06h-.2s0-2.06,0-2.06Zm.38,0h.2v2.06h-.2s0-2.06,0-2.06Zm.38,0h.2v2.06h-.2s0-2.06,0-2.06Z"/>
  <path class="cls-2" d="m9.79,13.13h2.49v2.49h-2.49v-2.49Zm.2.23h.2v2.06h-.2v-2.06Zm.38,0h.2v2.06h-.2v-2.06Zm.36,0h.2v2.06h-.2v-2.06Zm.38,0h.2v2.06h-.2v-2.06Zm.38,0h.2v2.06h-.2v-2.06Zm.38,0h.2v2.06h-.2v-2.06Z"/>
  <path class="cls-1" d="m12.67,13.13h2.49v2.49h-2.49v-2.49Zm.2.23h.2v2.06h-.2v-2.06Zm.36,0h.2v2.06h-.2v-2.06Zm.38,0h.2v2.06h-.2v-2.06Zm.38,0h.2v2.06h-.2v-2.06Zm.38,0h.2v2.06h-.2v-2.06Zm.36,0h.2v2.06h-.2v-2.06Z"/>
  <path class="cls-2" d="m12.67,10.28h2.49v2.47h-2.49v-2.47Zm.2.2h.2v2.06h-.2s0-2.06,0-2.06Zm.36,0h.2v2.06h-.2s0-2.06,0-2.06Zm.38,0h.2v2.06h-.2s0-2.06,0-2.06Zm.38,0h.2v2.06h-.2s0-2.06,0-2.06Zm.38,0h.2v2.06h-.2s0-2.06,0-2.06Zm.36,0h.2v2.06h-.2s0-2.06,0-2.06Zm.79,2.65h2.49v2.49h-2.49s0-2.49,0-2.49Zm.23.23h.2v2.06h-.2v-2.06Zm.36,0h.2v2.06h-.2v-2.06Zm.38,0h.2v2.06h-.2v-2.06Zm.38,0h.2v2.06h-.2v-2.06Zm.36,0h.2v2.06h-.2v-2.06Zm.38,0h.2v2.06h-.2v-2.06Z"/>
  <path class="cls-1" d="m15.52,10.28h2.49v2.47h-2.49s0-2.47,0-2.47Zm.23.2h.2v2.06h-.2s0-2.06,0-2.06Zm.36,0h.2v2.06h-.2s0-2.06,0-2.06Zm.38,0h.2v2.06h-.2s0-2.06,0-2.06Zm.38,0h.2v2.06h-.2s0-2.06,0-2.06Zm.36,0h.2v2.06h-.2s0-2.06,0-2.06Zm.38,0h.2v2.06h-.2s0-2.06,0-2.06Z"/>
  <path class="cls-2" d="m15.52,7.4h2.49v2.49h-2.49s0-2.49,0-2.49Zm.23.2h.2v2.09h-.2v-2.09Zm.36,0h.2v2.09h-.2v-2.09Zm.38,0h.2v2.09h-.2v-2.09Zm.38,0h.2v2.09h-.2v-2.09Zm.36,0h.2v2.09h-.2v-2.09Zm.38,0h.2v2.09h-.2v-2.09Z"/>
  <path class="cls-1" d="m18.39,13.13h2.49v2.49h-2.49v-2.49Zm.2.23h.2v2.06h-.2v-2.06Zm.38,0h.2v2.06h-.2v-2.06Zm.38,0h.2v2.06h-.2v-2.06Zm.36,0h.2v2.06h-.2v-2.06Zm.38,0h.2v2.06h-.2v-2.06Zm.38,0h.2v2.06h-.2v-2.06Z"/>
  <path class="cls-4" d="m12.11,19.66c.38,0,.69.31.69.69s-.31.69-.69.69-.69-.31-.69-.69c.03-.38.33-.69.69-.69"/>
  <path class="cls-3" d="m12.11,19.84c.05,0,.13,0,.18.03-.05.03-.1.1-.1.18,0,.1.1.2.2.2.08,0,.15-.05.18-.1.03.05.03.13.03.18,0,.28-.23.48-.48.48-.28,0-.48-.23-.48-.48s.23-.48.48-.48m-12.11-1.6h31.87c-.69-.18-2.19-.41-1.96-1.32-1.27,1.45-4.3,1.02-5.09.31-.86,1.25-5.85.76-6.18-.2-1.07,1.27-4.4,1.27-5.47,0-.36.97-5.34,1.45-6.18.2-.76.71-3.82,1.14-5.09-.31C2.19,17.81.69,18.06,0,18.24"/>
  <path class="cls-7" d="m13.94,24.6c-1.7-.81-2.62-1.91-3.15-3.1-.64.18-1.4.31-2.26.36-.33.03-.69.03-1.04.03-.43,0-.86,0-1.32-.03,1.55,1.55,3.48,2.75,7.02,2.77.25-.03.51-.03.76-.03Z"/>
  <path class="cls-6" d="m11.42,22.59c-.23-.33-.46-.71-.64-1.09-.64.18-1.4.31-2.26.36.61.33,1.48.64,2.9.74Z"/>
</svg>