<?xml version="1.0" encoding="UTF-8"?><svg id="Flux" xmlns="http://www.w3.org/2000/svg" viewBox="0 0 32 32"><defs><style>.cls-1{fill:none;}.cls-2{fill:#c1d2f7;}.cls-3{fill:#326ce5;}</style></defs><path class="cls-3" d="m5.06,8.49c-.43-.28-.55-.86-.27-1.29.07-.11.16-.2.27-.27L15.49.15c.31-.2.71-.2,1.01,0l10.43,6.78c.43.28.55.86.27,1.29-.07.11-.16.2-.27.27l-10.43,6.78c-.31.2-.71.2-1.01,0l-10.43-6.78Z"/><path class="cls-2" d="m17.65,9.69h.72c.3,0,.55-.25.55-.55,0-.1-.03-.19-.07-.27l-2.37-4.11c-.15-.26-.49-.35-.75-.2-.08.05-.15.12-.2.2l-2.37,4.11c-.15.26-.06.6.2.75.08.05.18.07.27.07h.72c.3,0,.55.25.55.55h0v4.69l.49.32c.37.24.85.24,1.22,0l.49-.32v-4.69c0-.3.25-.55.55-.55h0Z"/><path class="cls-1" d="m15.49,31.85c.1.06.2.11.32.13-.2-.11-.4-.22-.61-.32l.29.19Zm-.59-14.74l-1.03.67c.33.22.68.42,1.03.6v-1.28Zm2.2,2.17c.89.28,1.81.52,2.75.75,1,.25,2.01.5,3,.82l-3.24-2.11c-.86-.23-1.7-.52-2.52-.86v1.39Zm0,5.69v.05c0,.23-.25.43-.55.43h-1.1c-.3,0-.55-.19-.55-.43v-.6c-2.28-.59-4.56-1.32-6.48-3.09l-1.33.86c2.05,2.02,4.6,2.65,7.29,3.31,2.48.61,5.05,1.25,7.19,3.06l1.34-.87c-1.69-1.51-3.69-2.17-5.82-2.71Zm-8.96,2.1l3.56,2.31c1.83.47,3.68,1.03,5.33,2.14l1.36-.89c-1.81-1.25-3.89-1.77-6.07-2.3-1.4-.34-2.82-.7-4.18-1.26Zm6.77-7.52c-.69-.32-1.35-.7-1.97-1.15l-1.35.88c1.01.75,2.13,1.33,3.32,1.71v-1.44Zm4.7,1.49c-.83-.21-1.67-.41-2.5-.67v1.25c.31.08.62.16.93.23,2.74.67,5.57,1.37,7.84,3.64.06.06.11.11.16.17l.91-.59c.13-.09.24-.21.32-.35-.1-.11-.2-.21-.3-.32-2.06-2.06-4.63-2.7-7.35-3.37h0Zm-1.82,1.82c-.23-.06-.45-.11-.68-.17v1.21c2.36.6,4.74,1.34,6.72,3.2l1.33-.86s0,0-.01-.01c-2.06-2.06-4.63-2.7-7.35-3.37h0Zm-2.88-.79c-1.49-.48-2.94-1.13-4.24-2.21l-1.34.87c1.63,1.42,3.55,2.07,5.58,2.61v-1.27Z"/><path class="cls-1" d="m6.3,22.86s-.06-.06-.09-.1l-1.14.74c-.05.04-.1.08-.15.13.1.11.19.21.3.31,2.06,2.06,4.63,2.7,7.35,3.37,2.32.57,4.7,1.16,6.75,2.71l1.35-.88c-1.91-1.5-4.16-2.06-6.53-2.64-2.74-.67-5.57-1.37-7.84-3.64Z"/><path class="cls-3" d="m19.61,18.75l-2.52-1.64v.77c.82.34,1.66.63,2.52.86Zm-2.52.53v1.09c.83.25,1.67.46,2.5.67,2.72.67,5.29,1.3,7.35,3.37.1.1.2.21.3.32.22-.43.09-.95-.32-1.21l-4.09-2.66c-.99-.33-2-.58-3-.82-.94-.23-1.86-.46-2.75-.75h0Zm-2.2-.89c-.36-.18-.7-.38-1.03-.6l-.93.61c.62.45,1.28.84,1.97,1.15v-1.16Zm3.13,3.46c-.31-.08-.62-.15-.93-.23v1.07c.23.06.46.11.68.17,2.72.67,5.29,1.3,7.35,3.37,0,0,0,0,.01.01l.88-.57c-.05-.06-.1-.11-.16-.17-2.27-2.27-5.1-2.97-7.84-3.64h0Zm-3.13-.87c-1.19-.38-2.32-.96-3.32-1.71l-.91.59c1.3,1.07,2.75,1.72,4.24,2.21v-1.09Zm0,2.36c-2.03-.53-3.95-1.18-5.58-2.61l-.9.58c1.92,1.77,4.2,2.51,6.48,3.09v-1.07Zm2.2,1.62c2.13.55,4.13,1.21,5.82,2.71l.89-.58c-1.98-1.86-4.36-2.6-6.72-3.2v1.07Zm-10-2.78l-.89.58s.06.07.09.1c2.27,2.27,5.1,2.97,7.84,3.64,2.37.58,4.63,1.14,6.53,2.64l.91-.59c-2.15-1.81-4.71-2.45-7.19-3.06-2.69-.66-5.23-1.29-7.29-3.31h0Zm-1.89,1.76c-.1-.1-.2-.21-.3-.31-.36.36-.36.95,0,1.31.05.05.1.09.15.12l3.07,2c1.36.56,2.78.91,4.18,1.26,2.18.54,4.27,1.05,6.07,2.3l.93-.6c-2.05-1.54-4.44-2.14-6.75-2.71-2.72-.67-5.29-1.3-7.35-3.37h0Zm9.99,7.71c.2.1.41.2.61.32.24.05.49,0,.7-.13l.52-.34c-1.66-1.11-3.5-1.67-5.33-2.14l3.51,2.28Z"/></svg>