<svg width="18" height="18" viewBox="0 0 9 13" fill="#1A1A1A" xmlns="http://www.w3.org/2000/svg">
<path fill-rule="evenodd" clip-rule="evenodd" d="M0.158843 3.44985C-0.0529476 3.30064 -0.0529476 2.96474 0.158843 2.81565L4.0698 0.0611124C4.18553 -0.0203708 4.33468 -0.0203708 4.45042 0.0611124L8.36149 2.81565C8.57328 2.96474 8.57328 3.30064 8.36149 3.44985L4.45042 6.20439C4.33468 6.28587 4.18553 6.28587 4.0698 6.20439L0.158843 3.44985Z"/>
<path fill-rule="evenodd" clip-rule="evenodd" d="M4.87658 3.93597H5.14787C5.30634 3.93597 5.40542 3.75017 5.32613 3.60159L4.43729 1.93371C4.35811 1.78512 4.16006 1.78512 4.08077 1.93371L3.19193 3.60159C3.11275 3.75017 3.21172 3.93597 3.37018 3.93597H3.64159C3.75523 3.93597 3.84732 4.03587 3.84732 4.15898V6.06273L4.02942 6.19101C4.16903 6.2894 4.34903 6.2894 4.48863 6.19101L4.67073 6.06273V4.15898C4.67073 4.03587 4.76283 3.93597 4.87658 3.93597Z" fill="white"/>
<path fill-rule="evenodd" clip-rule="evenodd" d="M5.61521 7.6165L4.67188 6.95215V7.26698C4.97972 7.40977 5.2963 7.52102 5.61521 7.6165Z"/>
<path fill-rule="evenodd" clip-rule="evenodd" d="M4.67188 7.83301V8.27498C4.98356 8.37804 5.29898 8.46267 5.61113 8.54605C6.63061 8.81837 7.59351 9.07544 8.36778 9.91436C8.40714 9.95687 8.44405 10.0003 8.48061 10.0438C8.56001 9.87942 8.52019 9.66247 8.36138 9.55071L6.82948 8.47163C6.4576 8.33868 6.07873 8.23702 5.70428 8.13712C5.35114 8.04277 5.0058 7.94867 4.67188 7.83301Z"/>
<path fill-rule="evenodd" clip-rule="evenodd" d="M3.84767 7.47067C3.71552 7.39675 3.58535 7.31741 3.45972 7.22559L3.10938 7.47231C3.34562 7.6605 3.59303 7.81312 3.84767 7.94102V7.47067Z"/>
<path fill-rule="evenodd" clip-rule="evenodd" d="M5.02082 8.87755C4.90369 8.84627 4.78738 8.81512 4.67188 8.7832V9.21761C4.75734 9.24082 4.84268 9.2639 4.92768 9.28661C5.94716 9.55881 6.91005 9.81587 7.68444 10.6548C7.68572 10.6563 7.68689 10.6577 7.68829 10.6592L8.01942 10.4259C7.99928 10.403 7.9803 10.3796 7.95934 10.357C7.10845 9.43507 6.04706 9.15164 5.02082 8.87755Z"/>
<path fill-rule="evenodd" clip-rule="evenodd" d="M3.84872 8.52496C3.40569 8.3606 2.98584 8.14907 2.60278 7.83008L2.25977 8.07175C2.7475 8.50755 3.29054 8.77193 3.84872 8.96794V8.52496Z"/>
<path fill-rule="evenodd" clip-rule="evenodd" d="M3.84744 9.48443C3.08493 9.26798 2.36782 9.00361 1.75516 8.42578L1.41797 8.66329C2.13752 9.38151 2.99353 9.68171 3.84744 9.91947V9.48443Z"/>
<path fill-rule="evenodd" clip-rule="evenodd" d="M4.67188 10.1438C5.46955 10.3669 6.21961 10.6337 6.85498 11.2467L7.1903 11.0106C6.44793 10.2545 5.55711 9.95268 4.67188 9.70898V10.1438Z"/>
<path fill-rule="evenodd" clip-rule="evenodd" d="M0.920654 9.01367L0.587891 9.24803C0.599534 9.26102 0.610129 9.27452 0.622122 9.28738C1.47312 10.2093 2.53429 10.4927 3.56064 10.7668C4.44948 11.0041 5.29513 11.2304 6.01049 11.8402L6.35164 11.5999C5.54569 10.8648 4.58559 10.6066 3.65378 10.3579C2.64455 10.0883 1.69097 9.83267 0.920654 9.01367Z"/>
<path fill-rule="evenodd" clip-rule="evenodd" d="M0.21483 9.73031C0.176058 9.68831 0.139615 9.64555 0.103521 9.60254C-0.0481906 9.76715 -0.0303765 10.0509 0.159874 10.1849L1.31151 10.9961C1.82125 11.2246 2.35427 11.3675 2.87845 11.5076C3.69674 11.726 4.47846 11.9355 5.15575 12.4435L5.504 12.198C4.73391 11.5709 3.84041 11.3306 2.97148 11.0985C1.95212 10.8263 0.989221 10.5692 0.21483 9.73031Z"/>
<path fill-rule="evenodd" clip-rule="evenodd" d="M3.96126 12.8629C4.03799 12.9033 4.11379 12.9458 4.18831 12.9914C4.27714 13.0117 4.37157 12.995 4.45051 12.9393L4.64379 12.8032C4.02286 12.3533 3.33253 12.1254 2.64453 11.9355L3.96126 12.8629Z"/>
</svg>
