<svg width="18" height="18" viewBox="0 0 18 18" fill="none" fill-opacity='0' stroke='#4b4b4b' xmlns="http://www.w3.org/2000/svg">
<path fill-rule="evenodd" clip-rule="evenodd" d="M9 16.5C13.1421 16.5 16.5 13.1421 16.5 9C16.5 4.85786 13.1421 1.5 9 1.5C4.85786 1.5 1.5 4.85786 1.5 9C1.5 13.1421 4.85786 16.5 9 16.5Z"  stroke-linecap="round" stroke-linejoin="round"/>
<path fill-rule="evenodd" clip-rule="evenodd" d="M7.125 5.25C7.53922 5.25 7.875 4.91421 7.875 4.5C7.875 4.08579 7.53922 3.75 7.125 3.75C6.71079 3.75 6.375 4.08579 6.375 4.5C6.375 4.91421 6.71079 5.25 7.125 5.25Z"  stroke-linecap="round" stroke-linejoin="round"/>
<path fill-rule="evenodd" clip-rule="evenodd" d="M13.125 9C13.5392 9 13.875 8.66422 13.875 8.25C13.875 7.83578 13.5392 7.5 13.125 7.5C12.7108 7.5 12.375 7.83578 12.375 8.25C12.375 8.66422 12.7108 9 13.125 9Z"  stroke-linecap="round" stroke-linejoin="round"/>
<path d="M10.5 5.25C10.5 5.95953 10.5 7.5 10.5 7.5H1.6582"  stroke-linecap="round" stroke-linejoin="round"/>
<path d="M13.125 9V10.5H16.3471"  stroke-linecap="round" stroke-linejoin="round"/>
<path d="M6.375 4.50006L3.02197 4.49146"  stroke-linecap="round" stroke-linejoin="round"/>
<path fill-rule="evenodd" clip-rule="evenodd" d="M4.5 11.25C4.91421 11.25 5.25 10.9142 5.25 10.5C5.25 10.0858 4.91421 9.75 4.5 9.75C4.08579 9.75 3.75 10.0858 3.75 10.5C3.75 10.9142 4.08579 11.25 4.5 11.25Z"  stroke-linecap="round" stroke-linejoin="round"/>
<path fill-rule="evenodd" clip-rule="evenodd" d="M8.26721 14.2579C8.68144 14.2579 9.01721 13.9222 9.01721 13.5079C9.01721 13.0937 8.68144 12.7579 8.26721 12.7579C7.85306 12.7579 7.51721 13.0937 7.51721 13.5079C7.51721 13.9222 7.85306 14.2579 8.26721 14.2579Z"  stroke-linecap="round" stroke-linejoin="round"/>
<path d="M3.02124 13.5348H7.52123"  stroke-linecap="round" stroke-linejoin="round"/>
<path d="M5.25 10.5H10.875L11.625 12.75H15.4884"  stroke-linecap="round" stroke-linejoin="round"/>
<path fill-rule="evenodd" clip-rule="evenodd" d="M10.5 5.25C10.9142 5.25 11.25 4.91421 11.25 4.5C11.25 4.08579 10.9142 3.75 10.5 3.75C10.0858 3.75 9.75 4.08579 9.75 4.5C9.75 4.91421 10.0858 5.25 10.5 5.25Z"  stroke-linecap="round" stroke-linejoin="round"/>
</svg>
