<?xml version="1.0" encoding="UTF-8"?><svg id="Kubernetes" xmlns="http://www.w3.org/2000/svg" viewBox="0 0 32 32"><defs><style>.cls-1{fill:#137bd3;}</style></defs><g id="kubernetes"><path class="cls-1" d="m12.96,18.5c-.33.04-.65.09-.98.13-.77.09-1.52.18-2.28.25l-.37.03c.51,1.44,1.47,2.66,2.72,3.49l.1-.3c.24-.73.49-1.45.75-2.17.12-.35.25-.7.38-1.05.08-.2-.09-.42-.31-.39Z"/><path class="cls-1" d="m14.65,12.17c.07-.76.14-1.52.24-2.28l.03-.27c-1.35.19-2.58.77-3.57,1.62l.22.14c.65.41,1.28.84,1.92,1.26.36.23.71.49,1.05.74.03-.4.06-.81.11-1.21Z"/><path class="cls-1" d="m12.46,15.79c.22-.06.28-.34.11-.49-.24-.22-.47-.44-.7-.67-.55-.54-1.09-1.07-1.62-1.63l-.22-.23c-.7,1.09-1.11,2.39-1.11,3.79,0,.13.01.26.02.39l.32-.11c.72-.26,1.45-.49,2.18-.72.34-.11.69-.21,1.03-.32Z"/><path class="cls-1" d="m16.73,21.01c-.17-.29-.33-.58-.49-.87-.06-.1-.16-.15-.26-.15s-.2.05-.25.15c-.16.3-.33.6-.51.88-.39.66-.77,1.32-1.18,1.97l-.18.28c.65.2,1.34.31,2.06.31s1.45-.12,2.12-.33l-.17-.27c-.41-.65-.78-1.31-1.16-1.97Z"/><path class="cls-1" d="m14.54,16.35l.2.85c.01.13.11.24.22.3l.79.36c.11.06.25.06.36,0l.79-.36c.11-.06.2-.17.22-.3l.2-.85c.02-.12,0-.25-.08-.34l-.55-.69c-.07-.1-.2-.16-.33-.16h-.86c-.13,0-.26.06-.33.16l-.55.69c-.08.09-.11.22-.08.34Z"/><path class="cls-1" d="m31.94,19.24h0s-2.68-11.78-2.68-11.78h0c-.17-.73-.66-1.35-1.33-1.67L17.07.55s0,0,0,0c-.34-.16-.71-.24-1.07-.24s-.73.08-1.07.25L4.08,5.79c-.68.33-1.17.94-1.33,1.67L.06,19.24c-.17.73,0,1.5.47,2.08l7.51,9.45c.47.59,1.18.93,1.93.93h12.04c.75,0,1.46-.34,1.93-.93l7.51-9.44h0c.47-.59.64-1.35.48-2.08Zm-4.5.25c-.21.05-.42,0-.59-.11-.34-.23-.71-.36-1.07-.46-.18-.05-.37-.09-.55-.12-.18-.06-.39,0-.6.1-.21.12-.4.1-.6.08h-.02c-.6,2-1.94,3.68-3.69,4.75v.02c.06.18.12.36.07.6-.05.23-.06.44.04.61.08.17.16.34.25.5.19.33.4.66.71.93.31.29.33.77.05,1.08-.29.31-.77.33-1.08.05-.16-.15-.25-.34-.25-.55-.01-.41-.12-.78-.25-1.14-.06-.18-.13-.35-.22-.53-.06-.18-.23-.31-.43-.43-.2-.11-.3-.26-.4-.42-.9.33-1.86.52-2.87.52s-1.94-.18-2.83-.5c-.09.16-.18.3-.39.41-.2.11-.37.25-.43.43-.08.17-.16.34-.22.52-.13.36-.24.73-.25,1.14-.01.42-.37.75-.79.74-.42-.01-.75-.37-.74-.79,0-.22.11-.41.25-.54.31-.28.52-.6.72-.93.09-.17.18-.34.25-.51.1-.16.09-.38.05-.61-.05-.22,0-.4.06-.57-1.76-1.06-3.12-2.74-3.73-4.74-.16.02-.32.02-.5-.07-.22-.09-.42-.15-.6-.08-.19.04-.37.08-.56.14-.36.12-.72.25-1.06.49-.34.25-.82.16-1.07-.18-.24-.34-.16-.82.18-1.06.18-.13.39-.17.59-.13.4.08.79.06,1.17,0,.19-.02.38-.06.56-.11.19-.01.36-.15.51-.33.13-.16.29-.22.45-.27-.03-.29-.05-.58-.05-.88,0-1.79.57-3.46,1.53-4.83-.13-.13-.26-.26-.3-.48-.06-.22-.15-.42-.31-.53-.15-.13-.3-.24-.45-.34-.32-.21-.65-.41-1.05-.53-.41-.11-.65-.54-.53-.94.12-.41.54-.64.95-.53.2.06.37.2.46.38.19.36.45.65.72.92.13.13.28.26.43.37.13.14.34.18.58.2.25,0,.4.11.56.22h.01c1.33-1.26,3.06-2.11,4.99-2.29.02-.19.03-.38.18-.57.14-.19.24-.38.22-.57,0-.19,0-.38-.02-.58-.04-.38-.1-.76-.26-1.14-.17-.39.01-.84.4-1,.1-.04.2-.06.3-.06.3,0,.58.17.71.46.08.2.08.42,0,.6-.16.38-.22.76-.26,1.14-.01.2-.02.39-.02.58-.02.19.08.38.22.57.15.19.16.38.18.57,1.98.19,3.76,1.07,5.1,2.4.16-.11.32-.22.56-.22.23-.01.44-.06.58-.2.15-.12.29-.25.43-.38.27-.27.53-.55.72-.92.19-.38.65-.53,1.03-.33.38.19.53.65.33,1.02-.1.2-.27.33-.46.39-.39.11-.72.32-1.04.53-.15.11-.31.22-.45.35-.16.11-.25.3-.31.53-.05.24-.18.37-.32.51.91,1.34,1.44,2.96,1.44,4.7,0,.27-.02.53-.04.79h.01c.18.06.36.11.53.3.16.17.33.29.52.31.19.04.37.07.56.09.39.04.77.05,1.17-.04.41-.09.82.17.91.58.09.41-.17.81-.58.9Z"/><path class="cls-1" d="m20.63,11.35c-1.01-.91-2.28-1.53-3.69-1.73l.03.27c.1.76.17,1.52.24,2.28.03.3.06.6.08.9.01.23.27.35.46.22.24-.18.48-.35.74-.52.63-.43,1.26-.86,1.9-1.27l.23-.15Z"/><path class="cls-1" d="m21.74,13.11c-.53.56-1.07,1.1-1.61,1.64-.34.35-.72.69-1.07,1.03.48.12.96.24,1.43.39.74.21,1.47.42,2.2.65l.25.08c0-.12.02-.23.02-.35,0-1.34-.38-2.58-1.03-3.65l-.19.2Z"/><path class="cls-1" d="m20.01,18.7c-.33-.03-.65-.06-.98-.1-.21-.03-.38.18-.3.39.12.32.23.63.34.95.25.72.5,1.44.73,2.17l.08.25c1.22-.83,2.16-2.04,2.66-3.46h-.24c-.77-.06-1.52-.13-2.29-.2Z"/></g></svg>