<svg width="31" height="32" viewBox="0 0 31 32" fill="none" xmlns="http://www.w3.org/2000/svg">
<path d="M13.0368 27.0891C8.22827 25.9413 4.6272 21.4037 4.6272 15.9979C4.6272 9.72587 9.472 4.62507 15.4261 4.62507C18.9312 4.62507 22.2336 6.43414 24.2603 9.46347L27.9339 6.63467C25.1328 2.61547 20.5739 0 15.4261 0C6.90774 0 0 7.16374 0 15.9979C0 23.9893 5.6512 30.6134 13.0347 31.8059V27.0912L13.0368 27.0891Z" fill="#32314A"/>
<path d="M30.8118 15.0634H20.4993V19.7098H29.2609L17.9777 31.7738C18.0011 31.7696 18.0246 31.7653 18.0481 31.761C18.1974 31.7354 18.3446 31.7056 18.4939 31.6757C18.5515 31.6629 18.6091 31.6501 18.6667 31.6373C18.7734 31.6138 18.8801 31.5882 18.9867 31.5626C19.0699 31.5434 19.151 31.5221 19.2342 31.5008C19.2897 31.4858 19.3451 31.4709 19.4027 31.4538C25.7046 29.713 30.4171 23.9338 30.8161 16.9514C30.8246 16.8106 30.8289 16.6698 30.8353 16.5354C30.8353 16.5162 30.8353 16.497 30.8353 16.48C30.8353 16.4352 30.8374 16.3925 30.8395 16.3498C30.8417 16.241 30.8438 16.1322 30.8438 16.0213C30.8438 15.6991 30.8331 15.3791 30.8139 15.0613L30.8118 15.0634Z" fill="#32314A"/>
<path d="M13.0368 20.6399L9.16053 24.3839V6.74121C6.42347 8.80201 4.6336 12.1748 4.6272 15.9785V27.4239C5.53813 28.3647 6.5344 29.073 6.62827 29.1434C8.12587 30.2335 9.26293 30.6708 9.31627 30.6943L13.0368 27.1018V20.642V20.6399Z" fill="#FF4B19"/>
<path d="M22.9355 19.7119L17.9371 25.2159V9.9519L13.0389 14.4212V31.8058C14.0053 31.9957 15.3003 31.9935 15.4219 31.9978C16.2731 32.0191 17.4912 31.874 17.9776 31.7802L29.263 19.7119H22.9355Z" fill="#00D2FF"/>
<path d="M16.7893 4.71673C16.3392 4.657 15.8805 4.625 15.4219 4.625C14.6027 4.625 13.8048 4.721 13.0389 4.9066V8.14073L16.7893 4.71886V4.71673Z" fill="#00D2FF"/>
<path d="M16.7894 4.7168L9.16272 11.6779V17.9605L21.5617 6.64533C20.1473 5.61706 18.5131 4.94933 16.7915 4.7168H16.7894Z" fill="#576A92"/>
</svg>
