<?xml version="1.0" encoding="UTF-8"?><svg id="Openshift" xmlns="http://www.w3.org/2000/svg" viewBox="0 0 32 32"><defs><style>.cls-1{fill:#eb2126;}.cls-2{fill:#ba2133;}.cls-3{fill:#db212e;}.cls-4{fill:#ad213b;}.cls-5{fill:#c22133;}</style></defs><path id="path44560" class="cls-5" d="m32,8.8c-.36-.74-.77-1.45-1.25-2.13l-5.14,1.87c.6.61,1.1,1.3,1.51,2.03l4.88-1.78Zm-22.71,5.68l-5.14,1.87c.07.82.21,1.64.41,2.44l4.88-1.78c-.16-.83-.22-1.68-.15-2.53"/><path id="path44564" class="cls-3" d="m20.7,7.35c1.07.5,1.99,1.18,2.78,1.98l5.14-1.87c-1.42-2-3.36-3.67-5.74-4.77C15.53-.74,6.77,2.45,3.34,9.79c-1.11,2.38-1.52,4.9-1.33,7.34l5.14-1.87c.09-1.11.36-2.23.85-3.3,2.23-4.77,7.92-6.84,12.69-4.62"/><path id="path44572" class="cls-3" d="m26.18,16.74c-.08,1.11-.36,2.23-.86,3.3-2.22,4.77-7.92,6.84-12.69,4.62-1.07-.5-2-1.17-2.78-1.97l-5.13,1.87c1.42,2,3.36,3.67,5.73,4.77,7.34,3.42,16.1.24,19.53-7.11,1.11-2.37,1.52-4.9,1.32-7.34l-5.13,1.87h0Z"/><path id="path44576" class="cls-1" d="m27.44,10.46l-4.88,1.78c.91,1.62,1.34,3.49,1.19,5.38l5.13-1.86c-.15-1.84-.64-3.64-1.44-5.29M4.88,18.67l-4.88,1.78c.45,1.78,1.23,3.47,2.3,4.98l5.13-1.87c-1.32-1.35-2.19-3.06-2.54-4.89"/><path id="path44584" class="cls-4" d="m31.26,7.45c-.16-.26-.33-.52-.51-.77l-5.14,1.87c.23.23.43.48.63.73l5.01-1.82ZM9.27,15.52c-.01-.34,0-.69.02-1.03l-5.14,1.87c.03.33.07.66.12.98l5-1.82h0Z"/><path id="path44588" class="cls-2" d="m31.3,14.87l-5.13,1.87c-.05.74-.2,1.48-.43,2.2l5.58-2.03c.04-.68.03-1.36-.02-2.04M4.72,24.54c.39.56.83,1.09,1.31,1.59l5.58-2.04c-.65-.41-1.24-.88-1.76-1.42l-5.13,1.87Z"/></svg>