<svg width="10" height="12" viewBox="0 0 10 12" fill="none" xmlns="http://www.w3.org/2000/svg">
<path d="M4.8 7.29C5.17 7.29 5.485 7.1625 5.745 6.9075C6.005 6.6525 6.135 6.335 6.135 5.955C6.135 5.585 6.005 5.27 5.745 5.01C5.485 4.75 5.17 4.62 4.8 4.62C4.43 4.62 4.115 4.75 3.855 5.01C3.595 5.27 3.465 5.585 3.465 5.955C3.465 6.335 3.595 6.6525 3.855 6.9075C4.115 7.1625 4.43 7.29 4.8 7.29ZM4.8 11.07C5.27 10.91 5.75 10.6575 6.24 10.3125C6.73 9.9675 7.125 9.575 7.425 9.135L6.045 7.815C5.855 7.925 5.655 8.015 5.445 8.085C5.235 8.155 5.02 8.19 4.8 8.19C4.18 8.19 3.6525 7.975 3.2175 7.545C2.7825 7.115 2.565 6.585 2.565 5.955C2.565 5.335 2.7825 4.8075 3.2175 4.3725C3.6525 3.9375 4.18 3.72 4.8 3.72C5.42 3.72 5.9475 3.9375 6.3825 4.3725C6.8175 4.8075 7.035 5.34 7.035 5.97C7.035 6.18 7.005 6.39 6.945 6.6C6.885 6.81 6.79 7 6.66 7.17L7.92 8.37C8.16 7.94 8.35 7.4675 8.49 6.9525C8.63 6.4375 8.7 5.91 8.7 5.37V2.4L4.8 0.975L0.9 2.4V5.37C0.9 6.68 1.2625 7.8625 1.9875 8.9175C2.7125 9.9725 3.65 10.69 4.8 11.07ZM4.8 12C3.4 11.65 2.25 10.8375 1.35 9.5625C0.45 8.2875 0 6.89 0 5.37V1.8L4.8 0L9.6 1.8V5.37C9.6 6.89 9.15 8.2875 8.25 9.5625C7.35 10.8375 6.2 11.65 4.8 12Z" fill="#1A1A1A"/>
</svg>
