<svg width="21" height="20" viewBox="0 0 21 20" fill="none" xmlns="http://www.w3.org/2000/svg">
<path d="M8.58341 15L3.79175 10L5.143 8.58L8.58341 12.17L15.8572 4.58L17.2084 6L8.58341 15ZM10.5001 0C9.24158 0 7.9954 0.258658 6.8327 0.761205C5.66999 1.26375 4.61354 2.00035 3.72364 2.92893C1.92642 4.8043 0.916748 7.34784 0.916748 10C0.916748 12.6522 1.92642 15.1957 3.72364 17.0711C4.61354 17.9997 5.66999 18.7362 6.8327 19.2388C7.9954 19.7413 9.24158 20 10.5001 20C13.0417 20 15.4793 18.9464 17.2765 17.0711C19.0737 15.1957 20.0834 12.6522 20.0834 10C20.0834 8.68678 19.8355 7.38642 19.3539 6.17317C18.8723 4.95991 18.1664 3.85752 17.2765 2.92893C16.3866 2.00035 15.3302 1.26375 14.1675 0.761205C13.0048 0.258658 11.7586 0 10.5001 0Z" fill="#27AE60"/>
</svg>
