<?xml version="1.0" encoding="utf-8"?>
<!-- Generator: Adobe Illustrator 24.3.0, SVG Export Plug-In . SVG Version: 6.00 Build 0)  -->
<svg version="1.1" id="Capa_1" xmlns="http://www.w3.org/2000/svg" xmlns:xlink="http://www.w3.org/1999/xlink" x="0px" y="0px" width="50px" height="50px"
	 viewBox="0 0 24 24" style="enable-background:new 0 0 24 24;" xml:space="preserve">
<style type="text/css">
	.st0{fill:none;}
	.st1{fill:#7DCEA0;}
</style>
<g>
	<rect class="st0" width="24" height="24"/>
</g>
<g>
	<path class="st1" d="M23,12l-2.4-2.8l0.3-3.7l-3.6-0.8l-1.9-3.2L12,3L8.6,1.5L6.7,4.7L3.1,5.5l0.3,3.7L1,12l2.4,2.8l-0.3,3.7
		l3.6,0.8l1.9,3.2L12,21l3.4,1.5l1.9-3.2l3.6-0.8l-0.3-3.7L23,12z M10.1,16.7l-3.8-3.8l1.5-1.5l2.3,2.3l5.9-5.9l1.5,1.5L10.1,16.7z"
		/>
</g>
</svg>
