<?xml version="1.0" encoding="UTF-8"?><svg id="Vsphere" xmlns="http://www.w3.org/2000/svg" viewBox="0 0 32 32"><defs><style>.cls-1{fill:#fff188;}.cls-2{fill:#fff;}.cls-3{fill:#ffd61f;}.cls-4{fill:#ffc800;}.cls-5{fill:#ffd800;}.cls-6{fill:#ffc50c;}.cls-7{fill:#ffd331;}.cls-8{fill:#fef5a5;}.cls-9{fill:#80ce3d;}.cls-10{fill:#98cd4c;}.cls-11{fill:#c1e769;}.cls-12{fill:#65b631;}.cls-13{fill:#b9e866;}.cls-14{fill:#ccf073;}.cls-15{fill:#c6ed69;}.cls-16{fill:#70c036;}.cls-17{fill:#449f24;}.cls-18{fill:#55aa2b;}.cls-19{fill:#75c639;}.cls-20{fill:#5caf2e;}.cls-21{fill:#51a629;}.cls-22{stroke:#fd4;}.cls-22,.cls-23,.cls-24,.cls-25,.cls-26,.cls-27,.cls-28,.cls-29,.cls-30,.cls-31,.cls-32,.cls-33,.cls-34,.cls-35,.cls-36,.cls-37,.cls-38,.cls-39,.cls-40,.cls-41,.cls-42,.cls-43,.cls-44,.cls-45,.cls-46,.cls-47,.cls-48,.cls-49,.cls-50,.cls-51,.cls-52,.cls-53,.cls-54,.cls-55,.cls-56,.cls-57,.cls-58,.cls-59,.cls-60,.cls-61,.cls-62,.cls-63,.cls-64,.cls-65,.cls-66,.cls-67,.cls-68,.cls-69,.cls-70,.cls-71{fill:none;stroke-width:.11px;}.cls-23{stroke:#ffe480;}.cls-24{stroke:#ffdb4a;}.cls-25{stroke:#ffe998;}.cls-26{stroke:#ffeb8f;}.cls-27{stroke:#ffec80;}.cls-28{stroke:#ffe544;}.cls-29{stroke:#ffe454;}.cls-30{stroke:#ffe46b;}.cls-31{stroke:#fff8c4;}.cls-32{stroke:#fffad2;}.cls-33{stroke:#ffe286;}.cls-34{stroke:#ffe25d;}.cls-35{stroke:#e3f6b4;}.cls-36{stroke:#e6f8b9;}.cls-37{stroke:#ffce19;}.cls-38{stroke:#ffd710;}.cls-39{stroke:#ffd528;}.cls-40{stroke:#ffd619;}.cls-41{stroke:#ffc706;}.cls-42{stroke:#89c749;}.cls-43{stroke:#91ce4c;}.cls-44{stroke:#97d750;}.cls-45{stroke:#b8e09b;}.cls-46{stroke:#83c347;}.cls-47{stroke:#9ddb52;}.cls-48{stroke:#8cca49;}.cls-49{stroke:#bae39c;}.cls-50{stroke:#7bca3b;}.cls-51{stroke:#6bbb34;}.cls-52{stroke:#a2cf92;}.cls-53{stroke:#6eb638;}.cls-54{stroke:#61b330;}.cls-55{stroke:#85c647;}.cls-56{stroke:#53a82a;}.cls-57{stroke:#73c338;}.cls-58{stroke:#4ba327;}.cls-59{stroke:#59ad2d;}.cls-60{stroke:#57ab2c;}.cls-61{stroke:#aad595;}.cls-62{stroke:#a6df58;}.cls-63{stroke:#a8d394;}.cls-64{stroke:#b2db98;}.cls-65{stroke:#cce6a6;}.cls-66{stroke:#afdd5b;}.cls-67{stroke:#aed797;}.cls-68{stroke:#c0e79e;}.cls-69{stroke:#dcf4b3;}.cls-70{stroke:#e0f3b4;}.cls-71{stroke:#c3ec6d;}</style></defs><path class="cls-68" d="m8.24,5.09l.03,2.91" vector-effect="non-scaling-stroke"/><path class="cls-36" d="m8.27,7.99c.02.23-.08.39-.33.38-.64-.01-1.52-.02-2.65-.02-.96,0-1.93.05-2.81.29-.43.12-.83.34-1.19.67-.14.13-.26.32-.39.48-.09.11-.13.25-.22.37-.2.27-.29.73-.36,1.05-.01.07-.03.14-.04.23-.09.48-.13.96-.13,1.44,0,2.54-.01,5.07,0,7.61" vector-effect="non-scaling-stroke"/><path class="cls-69" d="m.15,20.5v4.57" vector-effect="non-scaling-stroke"/><path class="cls-49" d="m.15,25.07v1.17" vector-effect="non-scaling-stroke"/><path class="cls-45" d="m.16,26.24c-.02.97,0,1.97.18,2.89" vector-effect="non-scaling-stroke"/><path class="cls-64" d="m.35,29.13c.13.82.53,1.6,1.21,2.1" vector-effect="non-scaling-stroke"/><path class="cls-67" d="m1.56,31.23c.84.56,1.77.67,2.73.75" vector-effect="non-scaling-stroke"/><path class="cls-61" d="m4.29,31.98l4.19.02" vector-effect="non-scaling-stroke"/><path class="cls-63" d="m8.48,31.99h7.56" vector-effect="non-scaling-stroke"/><path class="cls-52" d="m16.04,31.99c1.63,0,2.64,0,3.03,0,1-.03,1.95-.1,2.76-.47,1.74-.79,1.89-2.74,1.91-4.4.01-1.15.02-2.29.01-3.42,0-.03.03-.06.06-.06h0c1.05,0,2.08,0,3.09,0,.79,0,1.54-.08,2.24-.22,1.54-.32,2.29-1.35,2.53-2.82.11-.64.16-1.28.16-1.93,0-3.1,0-6.19,0-9.29" vector-effect="non-scaling-stroke"/><path class="cls-63" d="m31.85,9.39c0-1.55,0-3.11-.01-4.66,0-1.2-.13-2.59-.94-3.53" vector-effect="non-scaling-stroke"/><path class="cls-67" d="m30.9,1.2c-.56-.64-1.44-.97-2.27-1.05" vector-effect="non-scaling-stroke"/><path class="cls-64" d="m28.63.15c-1.28-.18-2.6-.13-3.89-.13" vector-effect="non-scaling-stroke"/><path class="cls-45" d="m24.75.02h-4.05" vector-effect="non-scaling-stroke"/><path class="cls-49" d="m20.7.02h-2.28" vector-effect="non-scaling-stroke"/><path class="cls-68" d="m18.42.02c-.52,0-1.05.01-1.57.02-.39,0-.9-.04-1.35,0" vector-effect="non-scaling-stroke"/><path class="cls-36" d="m15.5.03c-.82-.03-1.36-.04-1.61-.02-.57.04-1.19,0-1.69.04-1.06.08-2.22.24-2.96,1.1-.05.05-.06.12-.11.17-.24.25-.4.58-.49.92-.02.08-.09.12-.11.21-.14.56-.23,1.12-.26,1.7,0,.13-.07.27-.06.41.03.23.03.35.03.53" vector-effect="non-scaling-stroke"/><path class="cls-62" d="m15.5.03l.13.02s.01,0,0,0c-.25.02-.5.04-.75.07-.58.07-1.32-.04-2,.03-.19.02-.43.04-.71.05-.98.05-2.28.34-2.91,1.17-.09.11-.17.23-.26.34-.17.22-.19.49-.31.74-.12.24-.09.45-.14.71-.04.21-.05.69-.2,1.05-.06.16-.07.33-.03.5,0,.02,0,.04,0,.05l-.08.31" vector-effect="non-scaling-stroke"/><path class="cls-50" d="m18.42.02l.07.1s.03.03.04.03h.24s.05,0,.05.02c.02.03.02.07,0,.1,0,.01-.03.02-.05.02-.21,0-.24.21-.38.33-.02.02-.03.04-.02.05.02.04.02.09,0,.13,0,.02-.02.03-.03.04l-.22.09s-.03.03-.02.04c.03.18-.04.3-.19.38-.19.09-.33.17-.43.24-.01,0-.02.03-.03.04-.01.09-.05.17-.11.23-.08.08-.08.13-.11.23,0,.02-.02.03-.04.03-.12,0-.21.05-.25.15-.14.3-.29.55-.44.75-.01.02-.03.03-.05.03-.17,0-.24.09-.22.25,0,.02,0,.05-.02.05l-.17.07s-.03.02-.04.04c-.06.11-.14.19-.24.26-.18.12-.24.22-.34.39,0,.01,0,.03,0,.05.05.05.03.09-.06.11" vector-effect="non-scaling-stroke"/><path class="cls-68" d="m15.39,4.24c-.74.04-1.2.03-1.71.19-1.32.42-1.4,1.64-1.42,2.82-.01.58-.02,1.17-.02,1.75" vector-effect="non-scaling-stroke"/><path class="cls-50" d="m12.24,9.01l-.03-.23s0-.02,0,0l-.02.09s0,0-.01,0c-.04-.04-.29.17-.32.2-.01.01-.02.03-.03.05-.06.28-.24.3-.33.5,0,.02-.02.03-.04.04-.13.08-.23.24-.29.49,0,.02-.02.04-.04.05-.13.04-.23.13-.29.25-.01.02-.02.03-.03.04-.12.05-.17.15-.14.29,0,.01-.01.03-.03.03,0,0,0,0,0,0-.09-.01-.14.03-.16.11,0,0-.01.02-.03.03l-.21.16s-.01.03,0,.05c.07.2-.12.18-.22.25-.13.09-.25.19-.35.31-.01.01-.02.03-.02.05v.11s0,.03-.02.04c-.14.05-.22.16-.24.3,0,0-.02.02-.04.04-.04.04-.05.08-.04.14,0,.01,0,.03-.01.03,0,0,0,0,0,0-.11,0-.18.02-.21.07,0,.01-.02.03-.04.03-.05.02-.11.02-.16.01,0,0-.01,0-.01.01,0,0,0,0,0,0h0s-.02.03-.03.03c0,0,0,0,0,0-.07,0-.08,0-.02.03" vector-effect="non-scaling-stroke"/><path class="cls-68" d="m8.78,12.62c-.81-.04-1.61-.03-2.41.03-2.01.15-2.2,1.44-2.22,3.08,0,.75-.01,1.5-.02,2.25" vector-effect="non-scaling-stroke"/><path class="cls-50" d="m4.13,17.98l-.07.26s-.02.02-.04.02c-.14-.03-.22.03-.29.16-.18.31-.4.58-.67.81-.08.07-.15.15-.21.24-.16.23-.34.44-.56.61-.01.01-.02.03-.03.04l-.03.12s-.02.03-.04.03c-.12.02-.2.09-.23.21,0,.01-.02.03-.03.04l-.32.18s-.02.03-.02.05c.06.3-.23.09-.28.23,0,.01,0,.02.01.03,0,0,0,0,0,0,.06,0,.08.03.07.09,0,.01-.02.02-.04.03-.07,0-.12.04-.17.08-.01.01-.02.03-.02.05.02.08,0,.09-.06.04-.02-.02-.03-.01-.02.02v.04s.02.04.01.05c-.06.12-.16.18-.29.17-.01,0-.03,0-.05.02-.09.05-.1.11-.02.18.02.02.03.03.03.04-.04.1-.09.12-.15.05-.02-.03-.04-.02-.05,0-.02.07-.07.09-.15.08-.01,0-.03.01-.04.03l-.04.1s0,.03.02.05c.03.05.03.09,0,.14-.01.02-.02.04-.02.06l-.05,1.71" vector-effect="non-scaling-stroke"/><path class="cls-47" d="m.29,24.05v-9.4" vector-effect="non-scaling-stroke"/><path class="cls-62" d="m.29,14.65c0-.4-.01-.8,0-1.19,0-.08.03-.18.03-.29,0-.41-.03-.79.04-1.1.06-.25.05-.5.12-.75.05-.17.05-.33.11-.5.03-.08.05-.15.06-.23,0-.02.02-.04.03-.05.08-.05.13-.13.13-.23,0-.01.01-.03.03-.06.06-.08.11-.16.15-.25.04-.09.11-.14.16-.23.04-.08.08-.14.11-.17,1.04-1.01,2.26-.97,3.61-1.09.89-.08,1.71-.07,2.92-.06.12,0,.24-.02.36-.03.07,0,.12-.05.13-.12.02-.09.01-.19-.02-.3" vector-effect="non-scaling-stroke"/><path class="cls-44" d="m.29,24.05c-.01.3,0,.61.03.93,0,.03-.02.06-.05.06,0,0,0,0-.01,0-.05,0-.08,0-.11.04" vector-effect="non-scaling-stroke"/><path class="cls-71" d="m.29,14.65c0,.08-.02.12-.06.11-.03,0-.06.01-.07.05,0,0,0,0,0,.01v5.69" vector-effect="non-scaling-stroke"/><path class="cls-57" d="m4.13,20.74c-.02.23.05.72-.07.99,0,0-.02.02-.04.02h-.13s-.03.03-.04.05c-.07.12-.19.17-.26.27-.08.11-.16.22-.25.34-.01.02-.03.03-.05.04-.15.05-.24.16-.27.33,0,.01-.01.03-.03.04-.06.07-.12.14-.18.21-.07.09-.16.13-.23.23-.37.51-.84,1-1.26,1.47-.05.06-.06.12-.12.17-.01.01-.03.02-.05.02-.18,0-.28.1-.3.27,0,.02-.02.04-.04.04-.09.02-.12.07-.08.15,0,.02,0,.04-.01.06-.03.03-.06.05-.1.07-.02,0-.04.02-.05.04-.05.08-.12.11-.21.06-.02-.01-.04-.01-.05,0l-.03.02s-.02.03-.01.04c.02.06.01.11-.02.15-.01.01-.02.03-.02.06,0,.09,0,.41-.03.48-.03.04-.04,0-.05-.12" vector-effect="non-scaling-stroke"/><path class="cls-57" d="m20.7.02l.7.02s.02,0,0,.01c-.08.04-.15.07-.22.11-.1.06-.26.03-.23.23,0,.07-.03.14-.1.21l-.41.4s-.02.03-.03.05c-.05.17-.17.34-.37.51-.03.02-.04.05-.05.07-.03.19-.13.31-.32.36-.02,0-.04.02-.04.04-.04.1-.11.18-.21.24-.01,0-.02.02-.03.05v.05s-.03.03-.05.04l-.24.21s-.02.03-.02.05c0,.23-.24.09-.31.3,0,.02-.02.04-.03.05-.14.07-.23.18-.27.34,0,.02-.02.04-.03.04-.1.03-.15.1-.13.21,0,.01,0,.03-.03.04-.15.09-.27.22-.36.36-.04.07-.03.1.03.08.06-.02.11,0,.13.06,0,.01,0,.03-.01.04-.03.02-.06.02-.1.02,0,0,0,0,0,0l.48.04" vector-effect="non-scaling-stroke"/><path class="cls-49" d="m18.45,4.24h-3.06" vector-effect="non-scaling-stroke"/><path class="cls-35" d="m27.11,4.79c.44.42.65,1.03.7,1.61.04.63.06,1.39.06,2.13,0,3.03.05,6.08-.04,9.11-.02.67-.31,1.48-.95,1.87-.23.14-.53.21-.8.3" vector-effect="non-scaling-stroke"/><path class="cls-65" d="m26.07,19.8c-.94.13-1.85.1-2.78.12" vector-effect="non-scaling-stroke"/><path class="cls-52" d="m23.29,19.92h-3.21" vector-effect="non-scaling-stroke"/><path class="cls-70" d="m20.09,19.92l-.26-.02s-.06.02-.06.06c0,0,0,0,0,0-.03,1.35-.05,2.67,0,3.99.03.71-.04,1.2-.05,1.86-.01,1.03-.37,1.93-1.45,2.23-.79.22-1.76.23-2.39.2-.35-.02-.65,0-.89.03" vector-effect="non-scaling-stroke"/><path class="cls-63" d="m14.99,28.27l-5.73-.02" vector-effect="non-scaling-stroke"/><path class="cls-61" d="m9.26,28.25h-1.98" vector-effect="non-scaling-stroke"/><path class="cls-67" d="m7.28,28.25c-.91-.05-1.93,0-2.59-.76" vector-effect="non-scaling-stroke"/><path class="cls-64" d="m4.69,27.49c-.59-.72-.53-1.85-.56-2.72" vector-effect="non-scaling-stroke"/><path class="cls-45" d="m4.13,24.77v-4.03" vector-effect="non-scaling-stroke"/><path class="cls-49" d="m4.13,20.74v-2.76" vector-effect="non-scaling-stroke"/><path class="cls-49" d="m8.78,12.62h3.43s.03-.02.03-.04v-3.58" vector-effect="non-scaling-stroke"/><path class="cls-51" d="m4.13,24.77c-.02.1-.07.19-.15.25,0,0-.03.01-.05.02-.07.02-.14.17-.17.23-.08.15-.22.24-.31.38,0,.01-.01.03-.02.05,0,.03-.02.05-.05.06-.01,0-.03.02-.04.04-.12.29-.52.34-.62.64-.05.14-.16.17-.25.28-.16.21-.32.42-.48.62-.05.06-.15.14-.2.25,0,.02-.02.04-.03.05-.14.1-.27.23-.37.37,0,0-.02.02-.05.03-.1.05-.18.13-.22.24,0,.02-.02.03-.04.05-.12.11-.25.28-.38.51-.07.12-.19.22-.38.28" vector-effect="non-scaling-stroke"/><path class="cls-51" d="m24.75.02l.05.02s.03.01,0,.01h-.31s-.02,0-.02.02c0,0,0,0,0,0,.02.04,0,.06-.03.09,0,0,0,.02,0,.03,0,0,0,0,0,0,.07.1-.26.25-.32.26-.02,0-.03.01-.04.02l-.17.28s-.03.04-.04.04l-.1.05s-.03.02-.04.04c-.05.06-.1.12-.16.18-.12.11-.19.25-.33.34-.01,0-.02.03-.03.05-.06.12-.13.23-.22.33-.02.02-.04.04-.04.04-.08.02-.12.07-.13.15,0,.01-.01.03-.03.04-.14.14-.22.28-.38.39-.28.19-.29.39-.45.65-.1.16-.16.35-.4.36-.02,0-.04,0-.05.02-.05.05-.08.11-.09.18,0,.01-.01.03-.03.04-.14.11-.25.26-.3.43,0,.01,0,.02.01.03,0,0,0,0,0,0,0,0,.02,0,.02,0,.03.01.02.02-.04.03l-.53.08" vector-effect="non-scaling-stroke"/><path class="cls-45" d="m20.56,4.25h-2.11" vector-effect="non-scaling-stroke"/><path class="cls-42" d="m18.69,28.11c-.46.18-.93.27-1.42.28-.76,0-1.52-.03-2.28-.11" vector-effect="non-scaling-stroke"/><path class="cls-54" d="m4.69,27.49c-.11.07-.22.16-.31.25-.04.04-.08.11-.13.21-.06.14-.16.22-.21.36,0,.02-.02.03-.03.05-.14.12-.21.26-.35.38-.14.12-.21.28-.34.4-.13.13-.25.27-.35.43-.01.02-.02.03-.04.04-.1.05-.25.13-.21.23,0,.01,0,.02-.01.01-.03,0-.2.25-.25.29-.01.01-.03.02-.05.03-.11.03-.14.1-.1.2,0,.02,0,.04,0,.06-.03.06-.07.09-.13.11-.02,0-.03.01-.04.03l-.58.66" vector-effect="non-scaling-stroke"/><path class="cls-59" d="m7.28,28.25h.23s.01.02,0,.03c0,0-.02.02-.02.03,0,.01,0,.02.02.03,0,0,0,0,0,0,.23.03.02.42-.02.55,0,.02-.02.04-.04.04-.12.03-.21.1-.28.21,0,.02-.03.03-.05.04-.21.1-.37.26-.48.48,0,.02-.02.03-.04.04-.14.09-.27.2-.37.34-.07.09-.13.16-.2.23-.13.11-.23.24-.33.39-.06.1-.17.16-.21.29,0,.02-.02.04-.03.05-.2.12-.32.29-.36.53,0,.01-.01.03-.03.04-.12.14-.23.35-.44.33-.02,0-.04,0-.04.02,0,0,0,0,0,0v.03s-.01.03-.03.03c-.06,0-.28-.06-.28.02" vector-effect="non-scaling-stroke"/><path class="cls-58" d="m16.04,31.99c.11.01.16-.02.15-.09,0-.02,0-.03.02-.05l.12-.1s.02-.03.01-.05c0,0,0,0,0,0-.05-.02-.06-.05-.02-.09.01-.01.02-.03.02-.04.01-.19.12-.32.22-.46.1-.15.27-.25.4-.39.01-.01.03-.02.05-.01.04,0,.06,0,.07-.04,0-.02.02-.04.03-.05.07-.06.13-.14.16-.23.07-.17.14-.23.28-.32.02-.01.03-.03.03-.05.03-.11.08-.21.17-.29,0,0,.02-.01.04-.02.09-.01.18-.04.23-.12.06-.1.09-.2.09-.31,0-.03,0-.05.01-.06.03-.03.05-.07.06-.11,0-.02.02-.03.04-.02,0,0,0,0,.01,0,.18.16.2-.03.25-.13,0-.01.02-.02.04-.02.23.06.28-.27.2-.42,0-.01-.02-.02-.04-.03-.14-.06-.15-.14-.04-.25.01-.01.02-.03.02-.04,0,0,0-.01-.02-.02-.01,0-.02,0,0-.02.02-.02.03-.04.03-.06" vector-effect="non-scaling-stroke"/><path class="cls-46" d="m18.69,28.11c.58-.28.95-.74,1.09-1.38.08-.33.11-.6.12-.8.02-1.19.01-3.1-.01-5.71,0-.13.07-.22.2-.3" vector-effect="non-scaling-stroke"/><path class="cls-53" d="m23.29,19.92c.64.02,1.09,0,1.44.04.28.03.57,0,.85.03.08.01.25,0,.48-.03" vector-effect="non-scaling-stroke"/><path class="cls-56" d="m8.48,31.99s-.03-.04.04-.04c.02,0,.02,0,0-.02-.03-.02-.04-.05-.05-.09-.02-.15,0-.23.06-.26.1-.04.17-.11.19-.21,0-.01,0-.03-.02-.04-.1-.05-.12-.39.12-.38.02,0,.04,0,.05-.01.11-.07.19-.15.26-.25.09-.13.16-.18.28-.25.03-.02.04-.03.04-.04,0-.06.03-.12.07-.17,0,0,0-.03,0-.06,0-.13.05-.19.19-.17.02,0,.04,0,.05-.02.03-.06.07-.1.12-.12.02,0,.03-.02.04-.04.08-.15.22-.28.31-.38.08-.1.34-.39.48-.4.02,0,.04-.01.05-.03,0-.05,0-.09-.03-.13-.01-.01,0-.04.01-.05l.24-.23s.02-.03.01-.04l-.11-.21s-.02-.03-.03-.04h-.2s-.02-.02-.03-.04c0-.01-1.25-.02-1.38-.03" vector-effect="non-scaling-stroke"/><path class="cls-54" d="m28.63.15v.06s-.01.03-.03.03c0,0,0,0,0,0-.03,0-.05,0-.07.02-.02.02-.03.03-.03.04-.02.06-.02.11,0,.17,0,.02,0,.04-.02.06-.04.05-.09.09-.16.11-.02,0-.03.02-.04.04-.04.07-.08.14-.13.21-.1.16-.26.26-.36.44-.07.12-.12.2-.17.25-.16.16-.31.23-.46.45-.01.01-.02.03-.04.04-.18.09-.17.22-.28.35-.1.11-.21.22-.32.33-.14.14-.18.32-.37.44-.02.01-.03.02-.04.04-.05.11-.1.17-.13.19-.15.1-.33.37-.44.53,0,.01-.01.03-.01.05l.02.2s0,.03,0,.03c0,0,0,0,0,0-.08,0-.07.02.06.07" vector-effect="non-scaling-stroke"/><path class="cls-64" d="m25.6,4.3c-.36-.03-.61-.05-.77-.05-1.42,0-2.85,0-4.27,0" vector-effect="non-scaling-stroke"/><path class="cls-60" d="m30.9,1.2c0,.07-.02.11-.08.12-.02,0-.03.02-.04.03-.04.08-.1.13-.19.17-.02,0-.03.02-.04.05-.02.06-.06.12-.11.17-.02.01-.02.03-.02.05,0,.04-.02.05-.06.04-.02,0-.04,0-.05.02-.12.14-.16.3-.26.43-.17.21-.33.44-.48.67-.05.09-.13.18-.22.27-.14.15-.24.32-.38.46-.04.04-.08.09-.12.14-.2.29-.35.46-.65.65-.18.12-.31.38-.45.55-.01.01-.02.03-.02.05,0,.04-.02.06-.04.05-.02,0-.03,0-.04,0l-.03.05" vector-effect="non-scaling-stroke"/><path class="cls-43" d="m27.63,5.17c-.05-.07-.44-.67-.52-.38" vector-effect="non-scaling-stroke"/><path class="cls-67" d="m27.11,4.79c-.44-.33-.95-.5-1.51-.49" vector-effect="non-scaling-stroke"/><path class="cls-55" d="m28,13.75c0,1.25,0,2.51,0,3.76,0,1.26-.58,2.27-1.92,2.45" vector-effect="non-scaling-stroke"/><path class="cls-66" d="m26.07,19.96c.03-.06.03-.11,0-.16" vector-effect="non-scaling-stroke"/><path class="cls-58" d="m31.85,9.39s-.05.09-.06.14c0,0,0,0,0,0,0-.01,0-.02-.01-.03,0,0-.02,0-.04,0,0,0,0,0,0,0-.08.11-.17.21-.28.3-.02.02-.04.02-.06.02-.1-.02-.17.02-.19.12,0,.01-.02.03-.04.05-.16.13-.19.31-.36.43-.02.01-.03.03-.03.04-.08.19-.23.31-.32.49,0,.02-.02.03-.02.02,0,0,0-.02,0-.03,0-.02,0-.02-.02,0-.1.1-.2.17-.28.29-.13.2-.28.38-.44.55-.02.02-.03.03-.03.04-.01.07-.05.11-.12.12-.02,0-.04.01-.06.03l-.14.16s-.02.03-.03.05c-.04.14-.16.19-.22.27-.05.06-.1.12-.14.18-.01.01-.03.02-.04.03-.09.03-.14.09-.16.19,0,0,0,.02-.02.05l-.06.11s-.03.02-.04.02c-.05-.01-.17.12-.22.18-.01.02-.03.03-.05.03-.06,0-.11.04-.15.09,0,0-.02,0-.05,0-.13-.02-.12.28-.12.4,0,.02,0,.02,0,0-.02-.05-.03-.05-.04,0" vector-effect="non-scaling-stroke"/><path class="cls-48" d="m28,13.75c0-2.24-.03-4.48,0-6.72.01-.63-.08-1.3-.37-1.86" vector-effect="non-scaling-stroke"/><path class="cls-25" d="m15.41,11.48v2.38" vector-effect="non-scaling-stroke"/><path class="cls-32" d="m15.4,13.86c-.04.46-.05.93-.03,1.4.01.35-.25.46-.56.45-.51-.02-1.03,0-1.54.04" vector-effect="non-scaling-stroke"/><path class="cls-25" d="m13.26,15.75h-.11" vector-effect="non-scaling-stroke"/><path class="cls-26" d="m13.15,15.76h-.35" vector-effect="non-scaling-stroke"/><path class="cls-27" d="m12.8,15.75h-1.4" vector-effect="non-scaling-stroke"/><path class="cls-31" d="m11.4,15.75c-.59,0-1.19-.01-1.78-.02-.04,0-.09,0-.16-.02-.13-.02-.28,0-.4-.02-.41-.05-.68.07-1.03.18-.16.05-.42.22-.5.38-.06.12-.14.17-.17.3-.15.52-.19,1.01-.15,1.55.01.14-.01.46.03.53.01.03.02.04.02.05,0,.61.01,1.22,0,1.83,0,.16.02.34-.03.52,0,.02,0,.04,0,.05.07.14.02.63.03.82,0,.13-.1.21-.1.35,0,.26.02.71.06,1.35.09,1.7,1.44,1.66,2.72,1.57" vector-effect="non-scaling-stroke"/><path class="cls-25" d="m9.95,25.16h1.4" vector-effect="non-scaling-stroke"/><path class="cls-23" d="m11.34,25.16c1.17,0,2.35,0,3.52,0,.97-.01,1.62-.31,1.76-1.34.03-.25.05-.41.05-.48,0-1.96,0-3.91,0-5.87,0-.21-.09-.43.13-.58.08-.05.2-.08.38-.08,1.81.02,3.63.02,5.44,0" vector-effect="non-scaling-stroke"/><path class="cls-33" d="m22.62,16.79c1.46.07,2.15-.39,2.15-1.92,0-.83,0-2.66,0-5.5,0-.68-.09-1.48-.78-1.83" vector-effect="non-scaling-stroke"/><path class="cls-31" d="m23.99,7.55c-.22-.11-.5-.18-.83-.19-.69-.02-1.26-.01-1.68.03" vector-effect="non-scaling-stroke"/><path class="cls-23" d="m21.48,7.4l-1,.03" vector-effect="non-scaling-stroke"/><path class="cls-25" d="m20.48,7.42c-.58-.07-1.07.03-1.68-.01" vector-effect="non-scaling-stroke"/><path class="cls-31" d="m18.81,7.41c-.52,0-1.03-.03-1.54-.09-.09-.01-.27,0-.54.02-.01,0-.03.01-.04.03-.02.02-.05.03-.09.03-.64-.05-1.16.61-1.24,1.16-.05.31-.04.76,0,1.12.01.12-.03.24-.02.37.01.15.02.24.02.27-.01.39,0,.77.05,1.16" vector-effect="non-scaling-stroke"/><path class="cls-34" d="m18.81,7.41c-.7.08-1.15.11-1.33.1-.24-.01-.43,0-.57.05" vector-effect="non-scaling-stroke"/><path class="cls-28" d="m16.91,7.56c-.52.07-.93.14-1.17.57-.19.32-.19.75-.24,1.05-.02.15-.03.31-.04.46" vector-effect="non-scaling-stroke"/><path class="cls-34" d="m15.46,9.64c-.04.61-.06,1.23-.06,1.84" vector-effect="non-scaling-stroke"/><path class="cls-37" d="m20.48,7.42c-.42.8-.84,1.6-1.28,2.4-.98,1.79-2.58,5.07-3.98,7.7-.56,1.06-1.53,2.94-2.9,5.63-.31.62-.59,1.29-.98,1.86,0,0-.01.03-.01.05v.09" vector-effect="non-scaling-stroke"/><path class="cls-34" d="m9.95,25.16l-1.2-.06" vector-effect="non-scaling-stroke"/><path class="cls-39" d="m8.74,25.1c-.04-.22.03-.4.2-.54,0,0,.01-.02.02-.04l.05-.11s.02-.04.02-.04c0-.09.03-.17.11-.25.17-.15.25-.52.35-.7.12-.22.28-.41.38-.65.08-.19.16-.35.25-.47.06-.1.07-.19.12-.26.18-.29.3-.59.48-.9.16-.27.26-.57.42-.84.16-.27.31-.61.43-.82.27-.48.52-.97.76-1.47,0-.02.03-.03.04-.03.06.02.08,0,.07-.05,0-.01,0-.03.01-.05.38-.72.6-1.17.67-1.34.11-.28.21-.49.32-.63.02-.02.02-.03,0-.03-.05,0-.09,0-.13-.03-.03-.02-.04-.03-.04-.03-.02-.03-.06-.04-.11-.04" vector-effect="non-scaling-stroke"/><path class="cls-30" d="m13.26,15.75c.12.04.22.06.29.06.48,0,.95,0,1.43,0,.24,0,.39-.12.44-.35,0-.02,0-.04,0-.05-.06-.16.02-.29.02-.43,0-.37-.02-.73-.04-1.1" vector-effect="non-scaling-stroke"/><path class="cls-40" d="m15.46,9.64l.07.24s0,.03,0,.04c-.05.19-.06.32-.03.4.01.02.04.03.07.02,0,0,.01,0,.02-.02.1-.14.21-.23.26-.41.06-.21.16-.41.28-.6,0-.01.01-.03.01-.05,0-.1.03-.18.08-.26.22-.26.3-.55.46-.81.07-.11.26-.37.26-.48,0-.02.01-.03.03-.04.27-.09.24-.14-.09-.12" vector-effect="non-scaling-stroke"/><path class="cls-41" d="m23.42,7.52v.56s-.02.04-.03.05c-.08.17-.19.44-.09.62.12.2.27.36.3.62.03.19.09.32.14.49,0,.01,0,.03,0,.05-.03.13-.08.24-.15.36,0,.01-.01.04,0,.06.03.28-.12.54-.1.8.02.16.01.29-.02.4-.03.15.03.25,0,.4-.03.19-.02.38.05.57,0,.02,0,.04,0,.05-.11.23-.09.49-.13.7-.08.38-.14.76-.17,1.14,0,0,0,0,0,0,0,0-.01,0-.01,0-.03.32-.14.64-.13.96,0,.3,0,.59-.01.89,0,.14.06.27.02.43,0,.02-.02.03-.04.04-.13.05-.27.07-.42.08" vector-effect="non-scaling-stroke"/><path class="cls-28" d="m11.4,15.75c-.29.1-.53.03-.78.04-.59.02-1.17.06-1.76.11-.3.03-.53.07-.69.13-.81.31-.71,1.33-.77,2.02-.02.26.02.51-.03.77-.02.12-.03.27-.03.44,0,.23,0,.78-.02,1.67" vector-effect="non-scaling-stroke"/><path class="cls-29" d="m7.32,20.93v2.45s0,.04,0,.05c.04.06.06.11.06.14,0,.42.13.79.4,1.1.01.01.02.03.02.05.05.27.7.37.94.39" vector-effect="non-scaling-stroke"/><path class="cls-38" d="m12.8,15.75c-.07.2-.18.38-.33.55-.02.02-.03.05-.03.09,0,.02,0,.04-.01.05-.16.27-.25.57-.41.84-.06.1-.37.61-.35.7,0,.02,0,.03,0,.05-.07.11-.14.23-.21.34-.18.29-.28.62-.48.91-.06.08-.09.2-.17.29-.01.01-.02.03-.02.05-.04.28-.24.45-.33.71,0,.02-.02.03-.03.04-.1.08-.11.19-.15.27-.05.09-.49.9-.48.92,0,0,0,.02,0,.03-.13.22-.23.45-.35.66-.13.22-.15.41-.35.64,0,0-.01.03-.02.05-.03.18-.09.34-.2.49-.1.14-.17.26-.22.37l-.11.27s-.02.03-.04.04c-.08.06-.13.13-.15.22-.02.09-.23.75-.41.42-.03-.06-.07-.11-.1-.14-.4-.4-.43-1.04-.41-1.58,0-.12.05-.87,0-.93-.01-.01-.02-.03-.02-.05-.02-.33-.03-.66-.01-1,0-.02-.02-.07-.06-.13" vector-effect="non-scaling-stroke"/><path class="cls-24" d="m23.99,7.55s-.02.07-.05.1c-.01.01-.03.02-.05.01l-.47-.14" vector-effect="non-scaling-stroke"/><path class="cls-22" d="m23.42,7.52l-1.94-.12" vector-effect="non-scaling-stroke"/><path class="cls-2" d="m8.24,5.09l.03,2.91c.02.23-.08.39-.33.38-.64-.01-1.52-.02-2.65-.02-.96,0-1.93.05-2.81.29-.43.12-.83.34-1.19.67-.14.13-.26.32-.39.48-.09.11-.13.25-.22.37-.2.27-.29.73-.36,1.05-.01.07-.03.14-.04.23-.09.48-.13.96-.13,1.44,0,2.54-.01,5.07,0,7.61v4.57s.02,1.17.02,1.17c-.02.97,0,1.97.18,2.89.13.82.53,1.6,1.21,2.1.84.56,1.77.67,2.73.75l4.19.02h7.56c1.63,0,2.64,0,3.03,0,1-.03,1.95-.1,2.76-.47,1.74-.79,1.89-2.74,1.91-4.4.01-1.15.02-2.29.01-3.42,0-.03.03-.06.06-.06h0c1.05,0,2.08,0,3.09,0,.79,0,1.54-.08,2.24-.22,1.54-.32,2.29-1.35,2.53-2.82.11-.64.16-1.28.16-1.93,0-3.1,0-6.19,0-9.29,0-1.55,0-3.11-.01-4.66,0-1.2-.13-2.59-.94-3.53-.56-.64-1.44-.97-2.27-1.05-1.28-.18-2.6-.13-3.89-.13h-6.32c-.52,0-1.05,0-1.57.02-.39,0-.9-.04-1.35,0-.82-.03-1.36-.04-1.61-.02-.57.04-1.19,0-1.69.04-1.06.08-2.22.24-2.96,1.1-.05.05-.06.12-.11.17-.24.25-.4.58-.49.92-.02.08-.09.12-.11.21-.14.56-.23,1.12-.26,1.7,0,.13-.07.27-.06.41.03.23.03.35.03.53Z"/><path class="cls-14" d="m15.5.03l.13.02s.01,0,0,0c-.25.02-.5.04-.75.07-.58.07-1.32-.04-2,.03-.19.02-.43.04-.71.05-.98.05-2.28.34-2.91,1.17-.09.11-.17.23-.26.34-.17.22-.19.49-.31.74-.12.24-.09.45-.14.71-.04.21-.05.69-.2,1.05-.06.16-.07.33-.03.5,0,.02,0,.04,0,.05l-.08.31c0-.19,0-.3-.03-.53-.02-.14.05-.28.06-.41.03-.57.12-1.14.26-1.7.02-.09.09-.13.11-.21.09-.33.25-.67.49-.92.05-.05.07-.12.11-.17.74-.86,1.9-1.02,2.96-1.1.5-.04,1.12,0,1.69-.04.25-.02.79,0,1.61.02Z"/><path class="cls-9" d="m18.42.02l.07.1s.03.03.04.03h.24s.05,0,.05.02c.02.03.02.07,0,.1,0,.01-.03.02-.05.02-.21,0-.24.21-.38.33-.02.02-.03.04-.02.05.02.04.02.09,0,.13,0,.02-.02.03-.03.04l-.22.09s-.03.03-.02.04c.03.18-.04.3-.19.38-.19.09-.33.17-.43.24-.01,0-.02.03-.03.04-.01.09-.05.17-.11.23-.08.08-.08.13-.11.23,0,.02-.02.03-.04.03-.12,0-.21.05-.25.15-.14.3-.29.55-.44.75-.01.02-.03.03-.05.03-.17,0-.24.09-.22.25,0,.02,0,.05-.02.05l-.17.07s-.03.02-.04.04c-.06.11-.14.19-.24.26-.18.12-.24.22-.34.39,0,.01,0,.03,0,.05.05.05.03.09-.06.11-.74.04-1.2.03-1.71.19-1.32.42-1.4,1.64-1.42,2.82-.01.58-.02,1.17-.02,1.75l-.03-.23s0-.02,0,0l-.02.09s0,0-.01,0c-.04-.04-.29.17-.32.2-.01.01-.02.03-.03.05-.06.28-.24.3-.33.5,0,.02-.02.03-.04.04-.13.08-.23.24-.29.49,0,.02-.02.04-.04.05-.13.04-.23.13-.29.25-.01.02-.02.03-.03.04-.12.05-.17.15-.14.29,0,.01-.01.03-.03.03,0,0,0,0,0,0-.09-.01-.14.03-.16.11,0,0-.01.02-.03.03l-.21.16s-.01.03,0,.05c.07.2-.12.18-.22.25-.13.09-.25.19-.35.31-.01.01-.02.03-.02.05v.11s0,.03-.02.04c-.14.05-.22.16-.24.3,0,0-.02.02-.04.04-.04.04-.05.08-.04.14,0,.01,0,.03-.01.03,0,0,0,0,0,0-.11,0-.18.02-.21.07,0,.01-.02.03-.04.03-.05.02-.11.02-.16.01,0,0-.01,0-.01.01,0,0,0,0,0,0h0s-.02.03-.03.03c0,0,0,0,0,0-.07,0-.08,0-.02.03-.81-.04-1.61-.03-2.41.03-2.01.15-2.2,1.44-2.22,3.08,0,.75-.01,1.5-.02,2.25l-.07.26s-.02.02-.04.02c-.14-.03-.22.03-.29.16-.18.31-.4.58-.67.81-.08.07-.15.15-.21.24-.16.23-.34.44-.56.61-.01.01-.02.03-.03.04l-.03.12s-.02.03-.04.03c-.12.02-.2.09-.23.21,0,.01-.02.03-.03.04l-.32.18s-.02.03-.02.05c.06.3-.23.09-.28.23,0,.01,0,.02.01.03,0,0,0,0,0,0,.06,0,.08.03.07.09,0,.01-.02.02-.04.03-.07,0-.12.04-.17.08-.01.01-.02.03-.02.05.02.08,0,.09-.06.04-.02-.02-.03-.01-.02.02v.04s.02.04.01.05c-.06.12-.16.18-.29.17-.01,0-.03,0-.05.02-.09.05-.1.11-.02.18.02.02.03.03.03.04-.04.1-.09.12-.15.05-.02-.03-.04-.02-.05,0-.02.07-.07.09-.15.08-.01,0-.03.01-.04.03l-.04.1s0,.03.02.05c.03.05.03.09,0,.14-.01.02-.02.04-.02.06l-.05,1.71v-9.4c-.01-.4-.02-.8,0-1.19,0-.08.03-.18.03-.29,0-.41-.03-.79.04-1.1.06-.25.05-.5.12-.75.05-.17.05-.33.11-.5.03-.08.05-.15.06-.23,0-.02.02-.04.03-.05.08-.05.13-.13.13-.23,0-.01.01-.03.03-.06.06-.08.11-.16.15-.25.04-.09.11-.14.16-.23.04-.08.08-.14.11-.17,1.04-1.01,2.26-.97,3.61-1.09.89-.08,1.71-.07,2.92-.06.12,0,.24-.02.36-.03.07,0,.12-.05.13-.12.02-.09.01-.19-.02-.3l-.03-2.91.08-.31s0-.04,0-.05c-.04-.18-.03-.34.03-.5.15-.36.16-.84.2-1.05.05-.26.01-.47.14-.71.13-.25.14-.52.31-.74.09-.11.17-.22.26-.34.62-.83,1.93-1.13,2.91-1.17.28-.01.52-.03.71-.05.68-.07,1.42.04,2-.03.25-.03.5-.05.75-.07.01,0,.01,0,0,0l-.13-.02c.45-.04.96.01,1.35,0,.52-.01,1.05-.02,1.57-.02Z"/><path class="cls-19" d="m18.42.02h2.28s.7.02.7.02c.02,0,.02,0,0,.01-.08.04-.15.07-.22.11-.1.06-.26.03-.23.23,0,.07-.03.14-.1.21l-.41.4s-.02.03-.03.05c-.05.17-.17.34-.37.51-.03.02-.04.05-.05.07-.03.19-.13.31-.32.36-.02,0-.04.02-.04.04-.04.1-.11.18-.21.24-.01,0-.02.02-.03.05v.05s-.03.03-.05.04l-.24.21s-.02.03-.02.05c0,.23-.24.09-.31.3,0,.02-.02.04-.03.05-.14.07-.23.18-.27.34,0,.02-.02.04-.03.04-.1.03-.15.1-.13.21,0,.01,0,.03-.03.04-.15.09-.27.22-.36.36-.04.07-.03.1.03.08.06-.02.11,0,.13.06,0,.01,0,.03-.01.04-.03.02-.06.02-.1.02,0,0,0,0,0,0l.48.04h-3.06c.09-.02.11-.05.06-.11-.01-.01-.01-.03,0-.05.09-.17.16-.27.34-.39.1-.06.18-.15.24-.26.01-.02.03-.04.04-.04l.17-.07s.02-.03.02-.05c-.02-.16.05-.24.22-.25.02,0,.03-.01.05-.03.15-.2.3-.45.44-.75.05-.1.13-.15.25-.15.02,0,.03-.01.04-.03.03-.1.03-.15.11-.23.06-.06.1-.14.11-.23,0-.02.01-.04.03-.04.09-.06.24-.14.43-.24.15-.08.22-.2.19-.38,0-.02,0-.04.02-.04l.22-.09s.03-.02.03-.04c.02-.04.01-.08,0-.13,0-.01,0-.03.02-.05.14-.12.16-.32.38-.33.02,0,.04,0,.05-.02.02-.03.03-.07,0-.1,0-.01-.03-.02-.05-.02h-.24s-.03,0-.04-.03l-.07-.1Z"/><path class="cls-16" d="m20.7.02h4.05l.05.02s.03.01,0,.01h-.31s-.02,0-.02.02c0,0,0,0,0,0,.02.04,0,.06-.03.09,0,0,0,.02,0,.03,0,0,0,0,0,0,.07.1-.26.25-.32.26-.02,0-.03.01-.04.02l-.17.28s-.03.04-.04.04l-.1.05s-.03.02-.04.04c-.05.06-.1.12-.16.18-.12.11-.19.25-.33.34-.01,0-.02.03-.03.05-.06.12-.13.23-.22.33-.02.02-.04.04-.04.04-.08.02-.12.07-.13.15,0,.01-.01.03-.03.04-.14.14-.22.28-.38.39-.28.19-.29.39-.45.65-.1.16-.16.35-.4.36-.02,0-.04,0-.05.02-.05.05-.08.11-.09.18,0,.01-.01.03-.03.04-.14.11-.25.26-.3.43,0,.01,0,.02.01.03,0,0,0,0,0,0,0,0,.02,0,.02,0,.03.01.02.02-.04.03l-.53.08h-2.11s-.48-.05-.48-.05c0,0,0,0,0,0,.03,0,.07,0,.1-.02.01,0,.02-.02.01-.04-.02-.06-.07-.08-.13-.06-.06.02-.07-.01-.03-.08.09-.15.21-.27.36-.36.02-.01.03-.03.03-.04-.02-.11.03-.18.13-.21.02,0,.03-.02.03-.04.04-.16.13-.27.27-.34.01,0,.02-.02.03-.05.07-.21.31-.07.31-.3,0-.03,0-.05.02-.05l.24-.21s.03-.03.04-.04v-.05s.03-.04.05-.05c.1-.05.17-.13.21-.24,0-.02.02-.03.04-.04.19-.05.3-.16.32-.36,0-.02.02-.04.05-.07.2-.17.32-.34.37-.51,0-.02.02-.04.03-.05l.41-.4c.08-.07.11-.15.1-.21-.02-.2.13-.17.23-.23.07-.04.15-.08.22-.11.02,0,.01-.01,0-.01l-.7-.02Z"/><path class="cls-12" d="m24.75.02c1.29,0,2.61-.06,3.89.13v.06s-.01.03-.03.03c0,0,0,0,0,0-.03,0-.05,0-.07.02-.02.02-.03.03-.03.04-.02.06-.02.11,0,.17,0,.02,0,.04-.02.06-.04.05-.09.09-.16.11-.02,0-.03.02-.04.04-.04.07-.08.14-.13.21-.1.16-.26.26-.36.44-.07.12-.12.2-.17.25-.16.16-.31.23-.46.45-.01.01-.02.03-.04.04-.18.09-.17.22-.28.35-.1.11-.21.22-.32.33-.14.14-.18.32-.37.44-.02.01-.03.02-.04.04-.05.11-.1.17-.13.19-.15.1-.33.37-.44.53,0,.01-.01.03-.01.05l.02.2s0,.03,0,.03c0,0,0,0,0,0-.08,0-.07.02.06.07-.36-.03-.61-.05-.77-.05-1.42,0-2.85,0-4.27,0l.53-.08c.06,0,.07-.02.04-.03,0,0-.02,0-.02,0-.01,0-.02,0-.02-.02,0,0,0,0,0,0,.06-.18.16-.32.3-.43.02-.01.03-.03.03-.04.01-.07.04-.13.09-.18.01-.01.03-.02.05-.02.23,0,.3-.2.4-.36.16-.26.17-.46.45-.65.17-.11.25-.25.38-.39.02-.02.03-.03.03-.04,0-.08.04-.13.13-.15,0,0,.02-.02.04-.04.09-.1.17-.21.22-.33,0-.02.02-.04.03-.05.14-.1.21-.23.33-.34.06-.05.11-.11.16-.18.01-.02.03-.03.04-.04l.1-.05s.03-.02.04-.04l.17-.28s.02-.02.04-.02c.06-.01.39-.16.32-.26,0,0,0-.02,0-.03,0,0,0,0,0,0,.04-.02.05-.05.03-.09,0-.01,0-.02,0-.03,0,0,0,0,0,0h.31s.02,0,0-.01l-.05-.02Z"/><path class="cls-20" d="m28.63.15c.83.08,1.71.41,2.27,1.05,0,.07-.02.11-.08.12-.02,0-.03.02-.04.03-.04.08-.1.13-.19.17-.02,0-.03.02-.04.05-.02.06-.06.12-.11.17-.02.01-.02.03-.02.05,0,.04-.02.05-.06.04-.02,0-.04,0-.05.02-.12.14-.16.3-.26.43-.17.21-.33.44-.48.67-.05.09-.13.18-.22.27-.14.15-.24.32-.38.46-.04.04-.08.09-.12.14-.2.29-.35.46-.65.65-.18.12-.31.38-.45.55-.01.01-.02.03-.02.05,0,.04-.02.06-.04.05-.02,0-.03,0-.04,0l-.03.05c-.05-.07-.44-.67-.52-.38-.44-.33-.95-.5-1.51-.49-.12-.05-.14-.07-.06-.07,0,0,0-.01,0-.03,0,0,0,0,0,0l-.02-.2s0-.04.01-.05c.11-.17.28-.44.44-.53.03-.02.08-.08.13-.19,0-.02.02-.03.04-.04.18-.13.23-.3.37-.44.11-.11.21-.22.32-.33.11-.12.1-.26.28-.35.02,0,.03-.02.04-.04.15-.22.3-.29.46-.45.05-.04.1-.13.17-.25.1-.18.26-.28.36-.44.04-.07.09-.14.13-.21.01-.02.03-.03.04-.04.06-.02.12-.06.16-.11.01-.02.02-.04.02-.06-.01-.06,0-.12,0-.17,0,0,.02-.02.03-.04.02-.02.04-.02.07-.02.02,0,.03,0,.03-.02,0,0,0,0,0,0v-.06Z"/><path class="cls-21" d="m30.9,1.2c.81.94.93,2.33.94,3.53,0,1.55.01,3.11.01,4.66-.03.04-.05.09-.06.14,0,0,0,0,0,0,0-.01,0-.02-.01-.03,0,0-.02,0-.04,0,0,0,0,0,0,0-.08.11-.17.21-.28.3-.02.02-.04.02-.06.02-.1-.02-.17.02-.19.12,0,.01-.02.03-.04.05-.16.13-.19.31-.36.43-.02.01-.03.03-.03.04-.08.19-.23.31-.32.49,0,.02-.02.03-.02.02,0,0,0-.02,0-.03,0-.02,0-.02-.02,0-.1.1-.2.17-.28.29-.13.2-.28.38-.44.55-.02.02-.03.03-.03.04-.01.07-.05.11-.12.12-.02,0-.04.01-.06.03l-.14.16s-.02.03-.03.05c-.04.14-.16.19-.22.27-.05.06-.1.12-.14.18-.01.01-.03.02-.04.03-.09.03-.14.09-.16.19,0,0,0,.02-.02.05l-.06.11s-.03.02-.04.02c-.05-.01-.17.12-.22.18-.01.02-.03.03-.05.03-.06,0-.11.04-.15.09,0,0-.02,0-.05,0-.13-.02-.12.28-.12.4,0,.02,0,.02,0,0-.02-.05-.03-.05-.04,0,0-2.24-.03-4.48,0-6.72.01-.63-.08-1.3-.37-1.86l.03-.05s.03-.01.04,0c.02.01.03,0,.04-.05,0-.02,0-.04.02-.05.14-.17.27-.43.45-.55.3-.19.45-.37.65-.65.03-.05.07-.1.12-.14.14-.14.24-.32.38-.46.09-.1.17-.19.22-.27.15-.23.31-.45.48-.67.1-.13.14-.3.26-.43.01-.02.03-.02.05-.02.04.01.06,0,.06-.04,0-.01,0-.03.02-.05.05-.05.08-.1.11-.17,0-.02.02-.04.04-.05.08-.04.14-.09.19-.17,0-.02.02-.03.04-.03.05-.02.08-.06.08-.12Z"/><path class="cls-2" d="m15.39,4.24h3.06s2.11,0,2.11,0c1.42,0,2.85,0,4.27,0,.15,0,.41.02.77.05.56,0,1.07.16,1.51.49.44.42.65,1.03.7,1.61.04.63.06,1.39.06,2.13,0,3.03.05,6.08-.04,9.11-.02.67-.31,1.48-.95,1.87-.23.14-.53.21-.8.3-.94.13-1.85.1-2.78.12h-3.21l-.26-.02s-.06.02-.06.06c0,0,0,0,0,0-.03,1.35-.05,2.67,0,3.99.03.71-.04,1.2-.05,1.86-.01,1.03-.37,1.93-1.45,2.23-.79.22-1.76.23-2.39.2-.35-.02-.65,0-.89.03l-5.73-.02h-1.98c-.91-.05-1.93,0-2.59-.76-.59-.72-.53-1.85-.56-2.72v-4.03s0-2.76,0-2.76c0-.75.01-1.5.02-2.25.02-1.63.21-2.93,2.22-3.08.8-.06,1.61-.07,2.41-.03h3.43s.03-.02.03-.04v-3.58c0-.58,0-1.17.02-1.75.02-1.18.1-2.4,1.42-2.82.51-.16.97-.15,1.71-.19Zm.02,7.24v2.38c-.05.46-.06.93-.04,1.4.01.35-.25.46-.56.45-.51-.02-1.03,0-1.54.04h-.11s-.35,0-.35,0h-1.4c-.59-.01-1.19-.02-1.78-.03-.04,0-.09,0-.16-.02-.13-.02-.28,0-.4-.02-.41-.05-.68.07-1.03.18-.16.05-.42.22-.5.38-.06.12-.14.17-.17.3-.15.52-.19,1.01-.15,1.55.01.14-.01.46.03.53.01.03.02.04.02.05,0,.61.01,1.22,0,1.83,0,.16.02.34-.03.52,0,.02,0,.04,0,.05.07.14.02.63.03.82,0,.13-.1.21-.1.35,0,.26.02.71.06,1.35.09,1.7,1.44,1.66,2.72,1.57h1.4c1.17,0,2.35,0,3.52-.01.97-.01,1.62-.31,1.76-1.34.03-.25.05-.41.05-.48,0-1.96,0-3.91,0-5.87,0-.21-.09-.43.13-.58.08-.05.2-.08.38-.08,1.81.02,3.63.02,5.44,0,1.46.07,2.15-.39,2.15-1.92,0-.83,0-2.66,0-5.5,0-.68-.09-1.48-.78-1.83-.22-.11-.5-.18-.83-.19-.69-.02-1.26-.01-1.68.03l-1,.03c-.58-.07-1.07.03-1.68-.01-.52,0-1.03-.03-1.54-.09-.09-.01-.27,0-.54.02-.01,0-.03.01-.04.03-.02.02-.05.03-.09.03-.64-.05-1.16.61-1.24,1.16-.05.31-.04.76,0,1.12.01.12-.03.24-.02.37.01.15.02.24.02.27-.01.39,0,.77.05,1.16Z"/><path class="cls-15" d="m27.63,5.17c.29.56.38,1.23.37,1.86-.04,2.24-.01,4.48,0,6.72,0,1.25,0,2.51,0,3.76,0,1.26-.58,2.27-1.92,2.45.03-.06.03-.11,0-.16.27-.08.57-.16.8-.3.65-.38.93-1.2.95-1.87.09-3.03.05-6.07.04-9.11,0-.74-.01-1.5-.06-2.13-.04-.58-.26-1.18-.7-1.61.09-.29.48.31.52.38Z"/><path class="cls-1" d="m18.81,7.41c-.7.08-1.15.11-1.33.1-.24-.01-.43,0-.57.05-.52.07-.93.14-1.17.57-.19.32-.19.75-.24,1.05-.02.15-.03.31-.04.46-.04.61-.06,1.23-.06,1.84-.05-.38-.07-.77-.05-1.16,0-.03,0-.13-.02-.27-.01-.13.03-.25.02-.37-.04-.36-.04-.81,0-1.12.08-.55.6-1.21,1.24-1.16.04,0,.07,0,.09-.03.01-.02.03-.02.04-.03.26-.02.44-.03.54-.02.51.06,1.02.09,1.54.09Z"/><path class="cls-1" d="m23.99,7.55s-.02.07-.05.1c-.01.01-.03.02-.05.01l-.47-.14-1.94-.12c.43-.04.99-.06,1.68-.03.33.01.61.07.83.19Z"/><path class="cls-7" d="m20.48,7.42c-.42.8-.84,1.6-1.28,2.4-.98,1.79-2.58,5.07-3.98,7.7-.56,1.06-1.53,2.94-2.9,5.63-.31.62-.59,1.29-.98,1.86,0,0-.01.03-.01.05v.09s-1.4,0-1.4,0l-1.2-.06c-.04-.22.03-.4.2-.54,0,0,.01-.02.02-.04l.05-.11s.02-.04.02-.04c0-.09.03-.17.11-.25.17-.15.25-.52.35-.7.12-.22.28-.41.38-.65.08-.19.16-.35.25-.47.06-.1.07-.19.12-.26.18-.29.3-.59.48-.9.16-.27.26-.57.42-.84.16-.27.31-.61.43-.82.27-.48.52-.97.76-1.47,0-.02.03-.03.04-.03.06.02.08,0,.07-.05,0-.01,0-.03.01-.05.38-.72.6-1.17.67-1.34.11-.28.21-.49.32-.63.02-.02.02-.03,0-.03-.05,0-.09,0-.13-.03-.03-.02-.04-.03-.04-.03-.02-.03-.06-.04-.11-.04h.11c.12.03.22.05.29.05.48,0,.95,0,1.43,0,.24,0,.39-.12.44-.35,0-.02,0-.04,0-.05-.06-.16.02-.29.02-.43,0-.37-.02-.73-.04-1.1v-2.38c0-.61.02-1.23.06-1.84l.07.24s0,.03,0,.04c-.05.19-.06.32-.03.4.01.02.04.03.07.02,0,0,.01,0,.02-.02.1-.14.21-.23.26-.41.06-.21.16-.41.28-.6,0-.01.01-.03.01-.05,0-.1.03-.18.08-.26.22-.26.3-.55.46-.81.07-.11.26-.37.26-.48,0-.02.01-.03.03-.04.27-.09.24-.14-.09-.12.14-.05.33-.07.57-.05.18.01.62-.02,1.33-.1.61.04,1.1-.06,1.68.01Z"/><path class="cls-4" d="m21.48,7.4l1.94.12v.56s-.02.04-.03.05c-.08.17-.19.44-.09.62.12.2.27.36.3.62.03.19.09.32.14.49,0,.01,0,.03,0,.05-.03.13-.08.24-.15.36,0,.01-.01.04,0,.06.03.28-.12.54-.1.8.02.16.01.29-.02.4-.03.15.03.25,0,.4-.03.19-.02.38.05.57,0,.02,0,.04,0,.05-.11.23-.09.49-.13.7-.08.38-.14.76-.17,1.14,0,0,0,0,0,0,0,0-.01,0-.01,0-.03.32-.14.64-.13.96,0,.3,0,.59-.01.89,0,.14.06.27.02.43,0,.02-.02.03-.04.04-.13.05-.27.07-.42.08-1.81.03-3.63.03-5.44,0-.18,0-.3.02-.38.08-.22.15-.13.37-.13.58,0,1.96,0,3.91,0,5.87,0,.08-.02.24-.05.48-.14,1.03-.79,1.33-1.76,1.34-1.17.01-2.35.02-3.52,0v-.09s0-.04.01-.05c.39-.57.67-1.25.98-1.86,1.37-2.69,2.33-4.57,2.9-5.63,1.4-2.64,3-5.91,3.98-7.7.43-.79.86-1.59,1.28-2.4l1-.03Z"/><path class="cls-6" d="m23.42,7.52l.47.14s.04,0,.05-.01c.03-.02.04-.06.05-.1.69.34.78,1.15.78,1.83,0,2.84,0,4.67,0,5.5,0,1.52-.69,1.98-2.15,1.92.14,0,.28-.03.42-.08.02,0,.03-.02.04-.04.05-.16-.02-.28-.02-.43.02-.3.02-.59.01-.89,0-.32.1-.63.13-.96,0,0,0,0,.01,0,0,0,0,0,0,0,.03-.38.09-.76.17-1.14.05-.21.03-.46.13-.7,0-.02,0-.04,0-.05-.06-.19-.08-.38-.05-.57.02-.15-.04-.26,0-.4.03-.11.03-.24.02-.4-.03-.26.13-.51.1-.8,0-.03,0-.05,0-.06.07-.11.11-.23.15-.36,0-.02,0-.04,0-.05-.05-.17-.11-.3-.14-.49-.04-.26-.18-.42-.3-.62-.11-.18,0-.45.09-.62,0-.01.01-.03.01-.05v-.56Z"/><path class="cls-5" d="m16.91,7.56c.33-.01.35.03.09.12-.02,0-.03.02-.03.04,0,.11-.2.37-.26.48-.16.26-.25.55-.46.81-.06.07-.09.16-.08.26,0,.02,0,.04-.01.05-.12.19-.22.39-.28.6-.05.17-.16.27-.26.41-.02.02-.05.03-.07.01,0,0-.01-.01-.02-.02-.04-.08-.03-.21.03-.4,0,0,0-.02,0-.04l-.07-.24c0-.15.01-.31.04-.46.04-.31.05-.73.24-1.05.25-.43.65-.5,1.17-.57Z"/><path class="cls-14" d="m8.27,7.99c.03.11.03.21.02.3-.01.07-.06.11-.13.12-.12.01-.24.03-.36.03-1.21-.01-2.04-.02-2.92.06-1.34.12-2.57.08-3.61,1.09-.03.03-.07.09-.11.17-.05.09-.12.14-.16.23-.04.09-.09.17-.15.25-.02.02-.03.04-.03.06,0,.1-.05.18-.13.23-.01,0-.02.03-.03.05-.02.08-.04.16-.06.23-.05.16-.06.33-.11.5-.07.25-.06.49-.12.75-.07.32-.03.7-.04,1.1,0,.11-.03.21-.03.29,0,.4,0,.8,0,1.19,0,.08-.02.12-.06.11-.03,0-.06.01-.07.05,0,0,0,0,0,.01v5.69c-.01-2.54,0-5.07,0-7.61,0-.48.05-.96.13-1.44.01-.08.03-.16.04-.23.07-.32.16-.79.36-1.05.09-.12.13-.26.22-.37.13-.16.24-.35.39-.48.36-.33.76-.55,1.19-.67.87-.24,1.85-.29,2.81-.29,1.13,0,2.01,0,2.65.02.24,0,.35-.16.33-.38Z"/><path class="cls-19" d="m12.24,9.01v3.58s-.01.03-.03.03h-3.43c-.06-.02-.05-.03.02-.02.02,0,.04,0,.04-.01,0,0,0,0,0,0h0s0-.03.01-.03c0,0,0,0,0,0,.05,0,.11,0,.16-.01.02,0,.03-.02.04-.03.03-.05.1-.07.21-.07.01,0,.02-.01.02-.02,0,0,0,0,0,0-.02-.06,0-.11.04-.14.02-.02.04-.04.04-.04.02-.15.11-.25.24-.3.01,0,.02-.02.02-.04v-.11s0-.04.02-.05c.1-.12.22-.22.35-.31.1-.07.29-.05.22-.25,0-.02,0-.04,0-.05l.21-.16s.03-.03.03-.03c.01-.09.07-.13.16-.11.02,0,.03,0,.04-.02,0,0,0,0,0,0-.02-.14.03-.23.14-.29.01,0,.02-.02.03-.04.06-.12.16-.21.29-.25.02,0,.04-.02.04-.05.06-.24.16-.41.29-.49.02,0,.03-.02.04-.04.09-.2.27-.23.33-.5,0-.02.01-.03.03-.05.04-.03.29-.24.32-.2,0,0,.01,0,.01,0l.02-.09s0-.02,0,0l.03.23Z"/><path class="cls-17" d="m31.85,9.39c0,3.1,0,6.19,0,9.29,0,.65-.05,1.3-.16,1.93-.25,1.47-.99,2.5-2.53,2.82-.71.15-1.45.22-2.24.22-1.02,0-2.05,0-3.09,0-.03,0-.06.03-.06.06h0c0,1.13,0,2.27-.01,3.42-.02,1.66-.17,3.61-1.91,4.4-.81.37-1.76.44-2.76.47-.39.01-1.4.01-3.03,0,.11.01.16-.02.15-.09,0-.02,0-.03.02-.05l.12-.1s.02-.03.01-.05c0,0,0,0,0,0-.05-.02-.06-.05-.02-.09.01-.01.02-.03.02-.04.01-.19.12-.32.22-.46.1-.15.27-.25.4-.39.01-.01.03-.02.05-.01.04,0,.06,0,.07-.04,0-.02.02-.04.03-.05.07-.06.13-.14.16-.23.07-.17.14-.23.28-.32.02-.01.03-.03.03-.05.03-.11.08-.21.17-.29,0,0,.02-.01.04-.02.09-.01.18-.04.23-.12.06-.1.09-.2.09-.31,0-.03,0-.05.01-.06.03-.03.05-.07.06-.11,0-.02.02-.03.04-.02,0,0,0,0,.01,0,.18.16.2-.03.25-.13,0-.01.02-.02.04-.02.23.06.28-.27.2-.42,0-.01-.02-.02-.04-.03-.14-.06-.15-.14-.04-.25.01-.01.02-.03.02-.04,0,0,0-.01-.02-.02-.01,0-.02,0,0-.02.02-.02.03-.04.03-.06.58-.28.95-.74,1.09-1.38.08-.33.11-.6.12-.8.02-1.19.01-3.1-.01-5.71,0-.13.07-.22.2-.3h3.21c.64.02,1.09,0,1.44.04.28.03.57,0,.85.03.08.01.25,0,.48-.03,1.34-.18,1.92-1.19,1.92-2.45,0-1.25,0-2.51,0-3.76,0-.05.02-.05.04,0,0,.01,0,.01,0,0,0-.12,0-.42.12-.4.02,0,.04,0,.05,0,.04-.05.09-.08.15-.09.02,0,.04-.01.05-.03.05-.06.17-.19.22-.18.02,0,.04,0,.04-.02l.06-.11s.02-.04.02-.05c.01-.1.06-.16.16-.19.02,0,.03-.02.04-.03.05-.06.09-.12.14-.18.06-.08.18-.13.22-.27,0-.02.01-.04.03-.05l.14-.16s.04-.03.06-.03c.07,0,.11-.05.12-.12,0,0,.01-.03.03-.04.16-.17.31-.35.44-.55.08-.12.18-.19.28-.29.02-.02.02-.01.02,0,0,0,0,.02,0,.03,0,0,.01,0,.02-.02.1-.18.24-.3.32-.49,0-.02.02-.03.03-.04.16-.12.19-.3.36-.43.02-.02.03-.03.04-.05.02-.1.09-.13.19-.12.02,0,.04,0,.06-.02.11-.09.2-.18.28-.3,0-.01.03-.02.04-.02,0,0,0,0,0,0,0,0,0,.02.01.03,0,0,0,0,0,0,0-.05.03-.1.06-.14Z"/><path class="cls-8" d="m15.4,13.86c.02.37.03.73.04,1.1,0,.14-.07.27-.02.43,0,.02,0,.04,0,.05-.05.24-.2.35-.44.35-.48,0-.95,0-1.43,0-.07,0-.17-.02-.29-.06.51-.04,1.02-.06,1.54-.04.32.01.58-.1.56-.45-.02-.47,0-.93.03-1.4Z"/><path class="cls-13" d="m.29,14.65v9.4c0,.3,0,.61.04.93,0,.03-.02.06-.05.06,0,0,0,0-.01,0-.05,0-.08,0-.11.04v-4.57s0-5.69,0-5.69c0-.03.03-.06.06-.06,0,0,0,0,.01,0,.04,0,.06-.03.06-.11Z"/><path class="cls-1" d="m11.4,15.75c-.29.1-.53.03-.78.04-.59.02-1.17.06-1.76.11-.3.03-.53.07-.69.13-.81.31-.71,1.33-.77,2.02-.02.26.02.51-.03.77-.02.12-.03.27-.03.44,0,.23,0,.78-.02,1.67v2.45s0,.04,0,.05c.04.06.06.11.06.14,0,.42.13.79.4,1.1.01.01.02.03.02.05.05.27.7.37.94.39l1.2.06c-1.28.09-2.63.13-2.72-1.57-.03-.64-.05-1.09-.06-1.35,0-.14.1-.22.1-.35,0-.18.04-.68-.03-.82,0-.02-.01-.03,0-.05.05-.18.03-.36.03-.52,0-.61,0-1.22,0-1.83,0,0,0-.03-.02-.05-.04-.07-.01-.39-.03-.53-.04-.54,0-1.03.15-1.55.04-.13.11-.17.17-.3.08-.15.34-.33.5-.38.35-.11.62-.23,1.03-.18.12.02.27,0,.4.02.07.01.12.02.16.02.59,0,1.19.02,1.78.02Z"/><path class="cls-5" d="m11.4,15.75h1.4c-.07.21-.18.39-.33.56-.02.02-.03.05-.03.09,0,.02,0,.04-.01.05-.16.27-.25.57-.41.84-.06.1-.37.61-.35.7,0,.02,0,.03,0,.05-.07.11-.14.23-.21.34-.18.29-.28.62-.48.91-.06.08-.09.2-.17.29-.01.01-.02.03-.02.05-.04.28-.24.45-.33.71,0,.02-.02.03-.03.04-.1.08-.11.19-.15.27-.05.09-.49.9-.48.92,0,0,0,.02,0,.03-.13.22-.23.45-.35.66-.13.22-.15.41-.35.64,0,0-.01.03-.02.05-.03.18-.09.34-.2.49-.1.14-.17.26-.22.37l-.11.27s-.02.03-.04.04c-.08.06-.13.13-.15.22-.02.09-.23.75-.41.42-.03-.06-.07-.11-.1-.14-.4-.4-.43-1.04-.41-1.58,0-.12.05-.87,0-.93-.01-.01-.02-.03-.02-.05-.02-.33-.03-.66-.01-1,0-.02-.02-.07-.06-.13.02-.89.02-1.44.02-1.67,0-.17,0-.32.03-.44.05-.26,0-.51.03-.77.06-.69-.04-1.71.77-2.02.16-.06.39-.11.69-.13.59-.05,1.17-.09,1.76-.11.25-.01.5.06.78-.04Z"/><path class="cls-3" d="m12.8,15.75h.35c.05,0,.09.02.11.05,0,0,.02.01.04.03.04.03.09.04.13.03.02,0,.03,0,0,.03-.11.15-.22.36-.32.63-.07.17-.29.62-.67,1.34-.01.02-.02.04-.01.05.01.05-.01.07-.07.05-.01,0-.03,0-.04.03-.24.5-.5.99-.76,1.47-.12.21-.27.55-.43.82-.16.27-.26.57-.42.84-.18.3-.3.6-.48.9-.05.08-.06.17-.12.26-.08.13-.16.28-.25.47-.1.23-.26.42-.38.65-.1.18-.17.55-.35.7-.09.07-.12.16-.11.25,0,0,0,.02-.02.04l-.05.11s-.02.04-.02.04c-.17.14-.24.32-.2.54-.24-.02-.89-.13-.94-.39,0-.02-.01-.04-.02-.05-.27-.31-.4-.68-.4-1.1,0-.03-.02-.07-.06-.14-.01-.02-.02-.03-.02-.05v-2.45c.05.06.07.1.07.13-.01.33,0,.67.01,1,0,.01,0,.03.02.05.05.05,0,.8,0,.93-.01.54.01,1.18.41,1.58.03.03.06.08.1.14.18.33.38-.34.41-.42.02-.09.07-.16.15-.22.02-.01.03-.03.04-.04l.11-.27c.04-.11.12-.24.22-.37.11-.15.17-.31.2-.49,0-.02,0-.04.02-.05.21-.22.22-.42.35-.64.13-.22.23-.45.35-.66,0,0,0-.02,0-.03-.01-.02.43-.83.48-.92.04-.08.05-.19.15-.27.02-.01.03-.03.03-.04.1-.26.29-.43.33-.71,0-.02.01-.04.02-.05.08-.09.12-.21.17-.29.2-.29.3-.62.48-.91.07-.11.14-.22.21-.34,0-.01.01-.03,0-.05-.02-.09.29-.59.35-.7.16-.26.25-.56.41-.84,0-.01.01-.03.01-.05,0-.04.01-.07.03-.09.15-.17.26-.35.33-.55Z"/><path class="cls-19" d="m4.13,17.98v2.76c-.01.23.05.72-.07.99,0,0-.02.02-.04.02h-.13s-.03.03-.04.05c-.07.12-.19.17-.26.27-.08.11-.16.22-.25.34-.01.02-.03.03-.05.04-.15.05-.24.16-.27.33,0,.01-.01.03-.03.04-.06.07-.12.14-.18.21-.07.09-.16.13-.23.23-.37.51-.84,1-1.26,1.47-.05.06-.06.12-.12.17-.01.01-.03.02-.05.02-.18,0-.28.1-.3.27,0,.02-.02.04-.04.04-.09.02-.12.07-.08.15,0,.02,0,.04-.01.06-.03.03-.06.05-.1.07-.02,0-.04.02-.05.04-.05.08-.12.11-.21.06-.02-.01-.04-.01-.05,0l-.03.02s-.02.03-.01.04c.02.06.01.11-.02.15-.01.01-.02.03-.02.06,0,.09,0,.41-.03.48-.03.04-.04,0-.05-.12v-1.17s.05-.05.09-.04c.03,0,.06-.01.06-.05,0,0,0,0,0-.01-.03-.31-.04-.62-.03-.93l.05-1.71s0-.03.02-.06c.02-.05.02-.09,0-.14-.01-.02-.02-.05-.02-.05l.04-.1s.03-.03.04-.03c.08.01.12-.01.15-.08.01-.03.03-.04.05,0,.06.07.11.05.15-.05,0,0,0-.03-.03-.04-.08-.06-.07-.12.02-.18.02-.01.04-.02.05-.02.13,0,.23-.05.29-.17,0,0,0-.03,0-.05v-.04s-.01-.04.01-.02c.06.05.08.04.06-.04,0-.01,0-.03.02-.05.05-.05.11-.08.17-.08.02,0,.04-.01.04-.03,0-.06-.01-.08-.07-.09-.01,0-.02-.01-.02-.02,0,0,0,0,0,0,.05-.14.34.07.28-.23,0-.02,0-.04.02-.05l.32-.18s.03-.02.03-.04c.03-.11.11-.18.23-.21.02,0,.04-.02.04-.03l.03-.12s.01-.03.03-.04c.22-.18.4-.38.56-.61.06-.09.13-.17.21-.24.27-.23.49-.5.67-.81.07-.12.15-.19.29-.16.02,0,.04,0,.04-.02l.07-.26Z"/><path class="cls-10" d="m26.07,19.8s.03.1,0,.16c-.24.03-.4.04-.48.03-.29-.04-.57,0-.85-.03-.35-.03-.8-.02-1.44-.04.93-.02,1.84.01,2.78-.12Z"/><path class="cls-11" d="m20.09,19.92c-.14.07-.2.17-.2.3.03,2.61.03,4.52.01,5.71,0,.2-.04.47-.12.8-.15.64-.51,1.1-1.09,1.38-.46.18-.93.27-1.42.28-.76,0-1.52-.03-2.28-.11.24-.04.53-.05.89-.03.62.03,1.6.02,2.39-.2,1.08-.3,1.44-1.2,1.45-2.23,0-.66.07-1.15.05-1.86-.05-1.32-.03-2.64,0-3.99,0-.04.03-.06.06-.06,0,0,0,0,0,0l.26.02Z"/><path class="cls-16" d="m4.13,20.74v4.03c-.02.1-.07.19-.15.25,0,0-.03.01-.05.02-.07.02-.14.17-.17.23-.08.15-.22.24-.31.38,0,.01-.01.03-.02.05,0,.03-.02.05-.05.06-.01,0-.03.02-.04.04-.12.29-.52.34-.62.64-.05.14-.16.17-.25.28-.16.21-.32.42-.48.62-.05.06-.15.14-.2.25,0,.02-.02.04-.03.05-.14.1-.27.23-.37.37,0,0-.02.02-.05.03-.1.05-.18.13-.22.24,0,.02-.02.03-.04.05-.12.11-.25.28-.38.51-.07.12-.19.22-.38.28-.19-.92-.21-1.92-.18-2.89,0,.12.02.16.05.12.04-.07.03-.39.03-.48,0-.02,0-.04.02-.06.04-.05.04-.1.02-.15,0-.02,0-.04.01-.04l.03-.02s.03,0,.05,0c.09.04.16.02.21-.06,0-.02.03-.03.05-.04.04-.02.07-.04.1-.07.02-.02.02-.04.01-.06-.04-.08-.02-.13.08-.15.02,0,.04-.02.04-.04.02-.17.13-.26.3-.27.02,0,.03,0,.05-.02.06-.05.07-.11.12-.17.42-.48.89-.96,1.26-1.47.07-.1.16-.13.23-.23.05-.08.11-.15.18-.21.01-.01.02-.03.03-.04.02-.17.11-.28.27-.33.02,0,.03-.02.05-.04.08-.11.16-.23.25-.34.08-.1.19-.15.26-.27.01-.02.03-.04.04-.04h.13s.04-.02.04-.03c.12-.26.05-.75.07-.99Z"/><path class="cls-12" d="m4.13,24.77c.03.87-.03,2,.56,2.72-.11.07-.22.16-.31.25-.04.04-.08.11-.13.21-.06.14-.16.22-.21.36,0,.02-.02.03-.03.05-.14.12-.21.26-.35.38-.14.12-.21.28-.34.4-.13.13-.25.27-.35.43-.01.02-.02.03-.04.04-.1.05-.25.13-.21.23,0,.01,0,.02-.01.01-.03,0-.2.25-.25.29-.01.01-.03.02-.05.03-.11.03-.14.1-.1.2,0,.02,0,.04,0,.06-.03.06-.07.09-.13.11-.02,0-.03.01-.04.03l-.58.66c-.68-.5-1.08-1.28-1.21-2.1.18-.06.31-.15.38-.28.13-.23.25-.4.38-.51.02-.01.03-.03.04-.05.04-.11.12-.18.22-.24.03-.01.05-.03.05-.03.1-.15.22-.27.37-.37.01,0,.02-.02.03-.05.04-.11.15-.19.2-.25.16-.21.32-.41.48-.62.08-.11.2-.13.25-.28.1-.3.5-.35.62-.64,0-.02.02-.04.04-.04.03,0,.05-.03.05-.06,0-.02,0-.04.02-.05.1-.14.23-.23.31-.38.03-.06.1-.21.17-.23.03,0,.04-.02.05-.02.08-.06.13-.15.15-.25Z"/><path class="cls-20" d="m4.69,27.49c.66.75,1.69.71,2.59.76h.23s.01.02,0,.03c0,0-.02.02-.02.03,0,.01,0,.02.02.03,0,0,0,0,0,0,.23.03.02.42-.02.55,0,.02-.02.04-.04.04-.12.03-.21.1-.28.21,0,.02-.03.03-.05.04-.21.1-.37.26-.48.48,0,.02-.02.03-.04.04-.14.09-.27.2-.37.34-.07.09-.13.16-.2.23-.13.11-.23.24-.33.39-.06.1-.17.16-.21.29,0,.02-.02.04-.03.05-.2.12-.32.29-.36.53,0,.01-.01.03-.03.04-.12.14-.23.35-.44.33-.02,0-.04,0-.04.02,0,0,0,0,0,0v.03s-.01.03-.03.03c-.06,0-.28-.06-.28.02-.96-.08-1.9-.19-2.73-.75l.58-.66s.03-.02.04-.03c.06-.02.1-.06.13-.11,0-.02.01-.04,0-.06-.05-.1-.01-.16.1-.2.02,0,.04-.02.05-.03.05-.04.22-.3.25-.29.01,0,.02,0,.01-.01-.04-.11.11-.19.21-.23.02,0,.03-.02.04-.04.1-.16.21-.3.35-.43.13-.12.19-.28.34-.4.14-.12.21-.26.35-.38.01-.01.02-.03.03-.05.05-.14.15-.22.21-.36.04-.1.08-.16.13-.21.1-.1.2-.18.31-.25Z"/><path class="cls-21" d="m18.69,28.11s-.01.04-.03.06c0,0,0,.02,0,.02.01,0,.02,0,.02.02,0,0,0,.02-.02.04-.11.1-.1.19.04.25.02,0,.03.02.04.03.08.15.03.48-.2.42-.02,0-.03,0-.04.02-.05.1-.06.29-.25.13-.01-.01-.03,0-.04,0,0,0,0,0,0,.01-.01.04-.03.08-.06.11,0,0-.01.03-.01.06,0,.11-.03.22-.09.31-.05.09-.14.11-.23.12-.02,0-.03,0-.04.02-.09.08-.14.18-.17.29,0,.02-.02.04-.03.05-.14.09-.2.16-.28.32-.04.09-.09.16-.16.23-.01,0-.02.03-.03.05-.01.03-.04.05-.07.04-.02,0-.04,0-.05.01-.13.14-.3.23-.4.39-.1.15-.21.28-.22.46,0,.02-.01.03-.02.04-.04.03-.04.06.02.09.01,0,.02.03,0,.04,0,0,0,0,0,.01l-.12.1s-.02.03-.02.05c0,.07-.04.1-.15.09h-7.56s-.03-.04.04-.04c.02,0,.02,0,0-.02-.03-.02-.04-.05-.05-.09-.02-.15,0-.23.06-.26.1-.04.17-.11.19-.21,0-.01,0-.03-.02-.04-.1-.05-.12-.39.12-.38.02,0,.04,0,.05-.01.11-.07.19-.15.26-.25.09-.13.16-.18.28-.25.03-.02.04-.03.04-.04,0-.06.03-.12.07-.17,0,0,0-.03,0-.06,0-.13.05-.19.19-.17.02,0,.04,0,.05-.02.03-.06.07-.1.12-.12.02,0,.03-.02.04-.04.08-.15.22-.28.31-.38.08-.1.34-.39.48-.4.02,0,.04-.01.05-.03,0-.05,0-.09-.03-.13-.01-.01,0-.04.01-.05l.24-.23s.02-.03.01-.04l-.11-.21s-.02-.03-.03-.04h-.2s-.02-.02-.03-.04c0-.01-1.25-.02-1.38-.03l5.73.02c.76.08,1.52.12,2.28.11.49,0,.97-.1,1.42-.28Z"/><path class="cls-18" d="m7.28,28.25h1.98c.13,0,1.38.01,1.38.03,0,.02.02.03.03.03h.2s.02.03.03.05l.11.21s0,.03-.01.04l-.24.23s-.02.04-.01.05c.03.04.04.08.03.13,0,.01-.02.02-.05.03-.15.02-.41.31-.48.4-.08.1-.23.23-.31.38,0,.02-.02.03-.04.04-.06.02-.1.06-.12.12,0,.02-.03.02-.05.02-.14-.01-.2.04-.19.17,0,.03,0,.05,0,.06-.04.05-.07.1-.07.17,0,0-.02.03-.04.04-.12.07-.2.12-.28.25-.07.1-.15.19-.26.25-.01,0-.03.01-.05.01-.25-.01-.22.33-.12.38.01,0,.02.02.02.04-.02.1-.08.17-.19.21-.06.02-.08.11-.06.26,0,.04.02.06.05.09.01.01.01.02,0,.02-.07,0-.08.01-.04.04l-4.19-.02c0-.08.22-.02.28-.02.02,0,.03-.01.03-.03v-.03s.02-.03.04-.02c0,0,0,0,0,0,.21.02.32-.19.44-.33.01-.02.02-.03.03-.04.04-.23.16-.41.36-.53.01,0,.03-.02.03-.05.04-.13.15-.19.21-.29.09-.15.2-.28.33-.39.07-.06.14-.14.2-.23.1-.13.22-.25.37-.34.02-.01.03-.03.04-.04.1-.21.26-.37.48-.48.02-.01.04-.02.05-.04.06-.11.15-.18.28-.21.02,0,.03-.02.04-.04.04-.13.25-.52.02-.55-.01,0-.03-.01-.02-.02,0,0,0,0,0,0,0-.01.01-.02.02-.03,0,0,0-.01,0-.01h-.23Z"/></svg>