<?xml version="1.0" encoding="utf-8"?>
<!-- Generator: Adobe Illustrator 25.1.0, SVG Export Plug-In . SVG Version: 6.00 Build 0)  -->
<svg version="1.1" id="Capa_1" xmlns="http://www.w3.org/2000/svg" xmlns:xlink="http://www.w3.org/1999/xlink" x="0px" y="0px"
	 viewBox="0 0 69.6 45" style="enable-background:new 0 0 69.6 45;" xml:space="preserve">
<style type="text/css">
	.st0{fill:#FFFFFF;}
	.st1{display:none;fill:#FFFFFF;}
</style>
<g>
	<g>
		<path class="st0" d="M26.5,16.5c0-0.8,0.1-1.6,0.2-2.4L20.2,3.8h11.4L32,4.3c0.7-0.6,1.5-1.2,2.3-1.7l-0.7-1
			c-0.3-0.4-0.7-0.7-1.2-0.7H17.6c-0.5,0-1,0.3-1.3,0.7c-0.2,0.5-0.2,1,0,1.5l10.5,16.8C26.6,18.7,26.5,17.6,26.5,16.5z"/>
		<path class="st0" d="M37.9,31.9c-1.9-0.6-3.6-1.5-5.1-2.7l8.9,14.2c0.3,0.4,0.8,0.7,1.2,0.7c0.3,0,0.5-0.1,0.8-0.2
			c0.7-0.4,0.9-1.3,0.5-2L37.9,31.9z"/>
	</g>
	<g>
		<path class="st0" d="M36.7,44.2c-0.5,0-1-0.2-1.2-0.7L10.6,3.8H4.1L27.9,42c0.4,0.7,0.2,1.6-0.5,2c-0.7,0.4-1.6,0.2-2-0.5L0.2,3.1
			c-0.3-0.4-0.3-1,0-1.5s0.7-0.7,1.3-0.7h10c0.5,0,1,0.3,1.2,0.7L37.9,42c0.4,0.7,0.2,1.6-0.5,2C37.2,44.1,36.9,44.2,36.7,44.2z"/>
	</g>
	<path class="st0" d="M31.4,0.6"/>
	<g>
		<path class="st0" d="M36.7,44.2h-10c-0.8,0-1.5-0.7-1.5-1.5s0.6-1.5,1.5-1.5h10c0.8,0,1.5,0.7,1.5,1.5S37.5,44.2,36.7,44.2z"/>
	</g>
	<g>
		<path class="st1" d="M47.9,19.9c-1,0-1.9-0.9-1.9-1.9s0.8-1.9,1.9-1.9s1.9,0.9,1.9,1.9C49.8,19,48.9,19.9,47.9,19.9z"/>
		<g>
			<path class="st0" d="M47.9,16.5c0.8,0,1.4,0.6,1.4,1.4s-0.6,1.4-1.4,1.4s-1.4-0.6-1.4-1.4C46.5,17.2,47.1,16.5,47.9,16.5
				 M47.9,15.6c-1.3,0-2.4,1.1-2.4,2.4c0,1.3,1.1,2.4,2.4,2.4s2.4-1.1,2.4-2.4C50.2,16.6,49.2,15.6,47.9,15.6L47.9,15.6z"/>
		</g>
	</g>
	<g>
		<path class="st0" d="M57.6,16.5c0.8,0,1.4,0.6,1.4,1.4s-0.6,1.4-1.4,1.4s-1.4-0.6-1.4-1.4C56.2,17.2,56.8,16.5,57.6,16.5
			 M57.6,15.6c-1.3,0-2.4,1.1-2.4,2.4c0,1.3,1.1,2.4,2.4,2.4s2.4-1.1,2.4-2.4S58.9,15.6,57.6,15.6L57.6,15.6z"/>
	</g>
	<g>
		<path class="st0" d="M55.7,19.4c-0.3-0.4-0.5-0.9-0.5-1.5c0-0.5,0.2-1,0.5-1.5h-5.9c0.3,0.4,0.5,0.9,0.5,1.5c0,0.5-0.2,1-0.5,1.5
			H55.7z"/>
	</g>
	<g>
		<path class="st0" d="M57.6,20.3c-0.7,0-1.4-0.3-1.8-0.9l-14,22.4c-0.4,0.7-0.2,1.6,0.5,2c0.2,0.2,0.5,0.2,0.8,0.2
			c0.5,0,1-0.2,1.2-0.7L58.8,20C58.5,20.2,58,20.3,57.6,20.3z"/>
		<path class="st0" d="M69.4,1.6c-0.2-0.5-0.7-0.7-1.3-0.7H53.3c-0.5,0-1,0.3-1.2,0.7l-0.7,1.2c0.8,0.5,1.6,1.1,2.3,1.8l0.5-0.7
			h11.4l-7.4,11.9c1,0.2,1.8,1.2,1.8,2.3c0,0.1,0,0.2,0,0.3l9.5-15.1C69.7,2.6,69.7,2.1,69.4,1.6z"/>
	</g>
	<g>
		<g>
			<path class="st0" d="M55.2,18c0-0.5,0.2-1,0.5-1.4H55c0,6.7-5.5,12.1-12.2,12.1c-6.7,0-12.2-5.5-12.2-12.2S36,4.3,42.8,4.3
				c3.8,0,7.3,1.8,9.5,4.5c0.3-0.9,1.2-1.5,2.2-1.5h0c-2.7-3.5-7-5.7-11.7-5.7c-8.2,0-14.9,6.7-14.9,14.9s6.7,14.9,14.9,14.9
				c6.9,0,12.7-4.7,14.4-11C56,20.1,55.2,19.1,55.2,18z"/>
		</g>
		<g>
			<path class="st0" d="M54.5,8.3c0.8,0,1.4,0.6,1.4,1.4s-0.6,1.4-1.4,1.4s-1.4-0.6-1.4-1.4S53.7,8.3,54.5,8.3 M54.5,7.3
				c-1.3,0-2.4,1.1-2.4,2.4s1.1,2.4,2.4,2.4s2.4-1.1,2.4-2.4S55.8,7.3,54.5,7.3L54.5,7.3z"/>
		</g>
	</g>
</g>
</svg>
