<svg width="24" height="24" viewBox="0 0 24 24" fill="none" xmlns="http://www.w3.org/2000/svg">
<g clip-path="url(#clip0_2223_8501)">
<path d="M6.07407 19.1111C5.75802 19.1111 5.48148 18.9926 5.24444 18.7556C5.0074 18.5185 4.88889 18.242 4.88889 17.926V6.0741C4.88889 5.75805 5.0074 5.48151 5.24444 5.24447C5.48148 5.00743 5.75802 4.88892 6.07407 4.88892H17.9259C18.242 4.88892 18.5185 5.00743 18.7556 5.24447C18.9926 5.48151 19.1111 5.75805 19.1111 6.0741V17.926C19.1111 18.242 18.9926 18.5185 18.7556 18.7556C18.5185 18.9926 18.242 19.1111 17.9259 19.1111H6.07407ZM6.07407 17.926H17.9259V6.0741H6.07407V17.926ZM11.4469 15.8321H12.5531L12.7506 14.7655C13.014 14.6864 13.2379 14.5877 13.4222 14.4692C13.6066 14.3506 13.7778 14.2124 13.9358 14.0543L15.1605 14.4297L15.6741 13.363L14.7457 12.7704C14.7984 12.4939 14.8247 12.2371 14.8247 12C14.8247 11.763 14.7984 11.5062 14.7457 11.2297L15.6741 10.6371L15.1605 9.5704L13.9358 9.94571C13.7778 9.78768 13.6066 9.64941 13.4222 9.53089C13.2379 9.41237 13.014 9.31361 12.7506 9.2346L12.5531 8.16793H11.4469L11.2494 9.2346C10.986 9.31361 10.7621 9.41237 10.5778 9.53089C10.3934 9.64941 10.2222 9.78768 10.0642 9.94571L8.8395 9.5704L8.32592 10.6371L9.25432 11.2297C9.20164 11.5062 9.17531 11.763 9.17531 12C9.17531 12.2371 9.20164 12.4939 9.25432 12.7704L8.32592 13.363L8.8395 14.4297L10.0642 14.0543C10.2222 14.2124 10.3934 14.3506 10.5778 14.4692C10.7621 14.5877 10.986 14.6864 11.2494 14.7655L11.4469 15.8321ZM12 13.679C11.5259 13.679 11.1276 13.5177 10.8049 13.1951C10.4823 12.8725 10.321 12.4741 10.321 12C10.321 11.526 10.4823 11.1276 10.8049 10.805C11.1276 10.4823 11.5259 10.321 12 10.321C12.4741 10.321 12.8724 10.4823 13.1951 10.805C13.5177 11.1276 13.679 11.526 13.679 12C13.679 12.4741 13.5177 12.8725 13.1951 13.1951C12.8724 13.5177 12.4741 13.679 12 13.679ZM6.07407 17.926V6.0741V17.926Z" fill="#1A1A1A"/>
</g>
<defs>
<clipPath id="clip0_2223_8501">
<rect width="16" height="16" fill="white" transform="translate(4 4)"/>
</clipPath>
</defs>
</svg>
