<svg width="24" height="24" viewBox="0 0 24 24" fill="none" xmlns="http://www.w3.org/2000/svg">
<path d="M7.52042 6.5718C7.2253 6.5718 6.97585 6.67369 6.77207 6.87747C6.56829 7.08125 6.4664 7.3307 6.4664 7.62582C6.4664 7.92095 6.56829 8.1704 6.77207 8.37418C6.97585 8.57795 7.2253 8.67984 7.52042 8.67984C7.81555 8.67984 8.065 8.57795 8.26877 8.37418C8.47255 8.1704 8.57444 7.92095 8.57444 7.62582C8.57444 7.3307 8.47255 7.08125 8.26877 6.87747C8.065 6.67369 7.81555 6.5718 7.52042 6.5718ZM7.52042 15.2991C7.2253 15.2991 6.97585 15.401 6.77207 15.6047C6.56829 15.8085 6.4664 16.058 6.4664 16.3531C6.4664 16.6482 6.56829 16.8977 6.77207 17.1014C6.97585 17.3052 7.2253 17.4071 7.52042 17.4071C7.81555 17.4071 8.065 17.3052 8.26877 17.1014C8.47255 16.8977 8.57444 16.6482 8.57444 16.3531C8.57444 16.058 8.47255 15.8085 8.26877 15.6047C8.065 15.401 7.81555 15.2991 7.52042 15.2991ZM4.71673 4H18.4401C18.6649 4 18.8441 4.06675 18.9776 4.20026C19.1111 4.33377 19.1779 4.51296 19.1779 4.73781V10.4084C19.1779 10.6473 19.1111 10.8511 18.9776 11.0198C18.8441 11.1884 18.6649 11.2727 18.4401 11.2727H4.71673C4.50593 11.2727 4.33377 11.1884 4.20026 11.0198C4.06675 10.8511 4 10.6473 4 10.4084V4.73781C4 4.51296 4.06675 4.33377 4.20026 4.20026C4.33377 4.06675 4.50593 4 4.71673 4ZM5.26482 5.26482V10.0079H17.913V5.26482H5.26482ZM4.71673 12.7062H18.3557C18.5665 12.7062 18.7563 12.794 18.9249 12.9697C19.0935 13.1454 19.1779 13.3456 19.1779 13.5705V19.1357C19.1779 19.4168 19.0935 19.6311 18.9249 19.7787C18.7563 19.9262 18.5665 20 18.3557 20H4.82213C4.59728 20 4.40404 19.9262 4.24242 19.7787C4.08081 19.6311 4 19.4168 4 19.1357V13.5705C4 13.3456 4.06675 13.1454 4.20026 12.9697C4.33377 12.794 4.50593 12.7062 4.71673 12.7062ZM5.26482 13.971V18.7352H17.913V13.971H5.26482ZM5.26482 5.26482V10.0079V5.26482ZM5.26482 13.971V18.7352V13.971Z" fill="#1A1A1A"/>
</svg>
