<svg width="24" height="24" viewBox="0 0 24 24" fill="none" xmlns="http://www.w3.org/2000/svg">
<path d="M8.05278 15.9083H13.4V14.7417H8.05278V15.9083ZM8.05278 12.5833H15.9472V11.4167H8.05278V12.5833ZM8.05278 9.25833H15.9472V8.09167H8.05278V9.25833ZM6.16667 19C5.85556 19 5.58333 18.8833 5.35 18.65C5.11667 18.4167 5 18.1444 5 17.8333V6.16667C5 5.85556 5.11667 5.58333 5.35 5.35C5.58333 5.11667 5.85556 5 6.16667 5H17.8333C18.1444 5 18.4167 5.11667 18.65 5.35C18.8833 5.58333 19 5.85556 19 6.16667V17.8333C19 18.1444 18.8833 18.4167 18.65 18.65C18.4167 18.8833 18.1444 19 17.8333 19H6.16667ZM6.16667 17.8333H17.8333V6.16667H6.16667V17.8333ZM6.16667 17.8333V6.16667V17.8333Z" fill="#1A1A1A"/>
</svg>
