<svg width="24" height="24" viewBox="0 0 24 24" fill="none" xmlns="http://www.w3.org/2000/svg">
<path fill-rule="evenodd" clip-rule="evenodd" d="M7.1955 8.24597C6.93483 8.06232 6.93483 7.64891 7.1955 7.46541L12.009 4.07522C12.1514 3.97493 12.335 3.97493 12.4774 4.07522L17.2911 7.46541C17.5517 7.64891 17.5517 8.06232 17.2911 8.24597L12.4774 11.6362C12.335 11.7365 12.1514 11.7365 12.009 11.6362L7.1955 8.24597Z" fill="#1A1A1A"/>
<path fill-rule="evenodd" clip-rule="evenodd" d="M13.0019 8.84367H13.3358C13.5309 8.84367 13.6528 8.615 13.5552 8.43212L12.4613 6.37934C12.3638 6.19647 12.1201 6.19647 12.0225 6.37934L10.9285 8.43212C10.8311 8.615 10.9529 8.84367 11.1479 8.84367H11.4819C11.6218 8.84367 11.7352 8.96662 11.7352 9.11814V11.4612L11.9593 11.6191C12.1311 11.7402 12.3526 11.7402 12.5245 11.6191L12.7486 11.4612V9.11814C12.7486 8.96662 12.8619 8.84367 13.0019 8.84367Z" fill="white"/>
<path fill-rule="evenodd" clip-rule="evenodd" d="M13.911 13.3737L12.75 12.556V12.9435C13.1289 13.1193 13.5185 13.2562 13.911 13.3737Z" fill="#1A1A1A"/>
<path fill-rule="evenodd" clip-rule="evenodd" d="M12.75 13.6406V14.1846C13.1336 14.3114 13.5218 14.4156 13.906 14.5182C15.1608 14.8534 16.3459 15.1698 17.2988 16.2023C17.3472 16.2546 17.3927 16.308 17.4377 16.3616C17.5354 16.1593 17.4864 15.8923 17.2909 15.7547L15.4055 14.4266C14.9478 14.263 14.4815 14.1379 14.0207 14.0149C13.586 13.8988 13.161 13.783 12.75 13.6406Z" fill="#1A1A1A"/>
<path fill-rule="evenodd" clip-rule="evenodd" d="M11.7356 13.1948C11.5729 13.1039 11.4127 13.0062 11.2581 12.8932L10.8269 13.1968C11.1177 13.4285 11.4222 13.6163 11.7356 13.7737V13.1948Z" fill="#1A1A1A"/>
<path fill-rule="evenodd" clip-rule="evenodd" d="M13.1795 14.9261C13.0353 14.8876 12.8922 14.8492 12.75 14.8099V15.3446C12.8552 15.3732 12.9602 15.4016 13.0648 15.4295C14.3196 15.7645 15.5047 16.0809 16.4578 17.1134C16.4594 17.1153 16.4608 17.117 16.4625 17.1189L16.8701 16.8317C16.8453 16.8036 16.8219 16.7747 16.7961 16.7469C15.7489 15.6122 14.4425 15.2634 13.1795 14.9261Z" fill="#1A1A1A"/>
<path fill-rule="evenodd" clip-rule="evenodd" d="M11.7369 14.492C11.1916 14.2897 10.6749 14.0293 10.2034 13.6367L9.78125 13.9342C10.3815 14.4705 11.0499 14.7959 11.7369 15.0372V14.492Z" fill="#1A1A1A"/>
<path fill-rule="evenodd" clip-rule="evenodd" d="M11.7353 15.6727C10.7968 15.4063 9.91424 15.0809 9.16019 14.3698L8.74519 14.6621C9.6308 15.546 10.6843 15.9155 11.7353 16.2081V15.6727Z" fill="#1A1A1A"/>
<path fill-rule="evenodd" clip-rule="evenodd" d="M12.75 16.4843C13.7318 16.759 14.6549 17.0873 15.4369 17.8418L15.8496 17.5512C14.9359 16.6206 13.8395 16.2491 12.75 15.9492V16.4843Z" fill="#1A1A1A"/>
<path fill-rule="evenodd" clip-rule="evenodd" d="M8.13311 15.0938L7.72356 15.3822C7.73789 15.3982 7.75093 15.4148 7.76569 15.4306C8.81308 16.5653 10.1191 16.9141 11.3823 17.2515C12.4763 17.5435 13.5171 17.822 14.3975 18.5726L14.8174 18.2769C13.8255 17.3721 12.6438 17.0543 11.497 16.7482C10.2548 16.4164 9.08119 16.1017 8.13311 15.0938Z" fill="#1A1A1A"/>
<path fill-rule="evenodd" clip-rule="evenodd" d="M7.26441 15.9762C7.21669 15.9245 7.17184 15.8719 7.12742 15.819C6.9407 16.0216 6.96262 16.3709 7.19677 16.5357L8.61417 17.5341C9.24154 17.8154 9.89757 17.9913 10.5427 18.1636C11.5498 18.4325 12.512 18.6903 13.3455 19.3155L13.7742 19.0134C12.8264 18.2415 11.7267 17.9458 10.6572 17.6602C9.40261 17.3251 8.21751 17.0088 7.26441 15.9762Z" fill="#1A1A1A"/>
<path fill-rule="evenodd" clip-rule="evenodd" d="M11.8754 19.8314C11.9698 19.8811 12.0631 19.9334 12.1548 19.9896C12.2642 20.0146 12.3804 19.9939 12.4776 19.9255L12.7154 19.758C11.9512 19.2042 11.1016 18.9237 10.2548 18.6901L11.8754 19.8314Z" fill="#1A1A1A"/>
</svg>
