<svg width="24" height="24" viewBox="0 0 24 24" fill="none" xmlns="http://www.w3.org/2000/svg">
<path d="M17.5725 12.735C17.6025 12.495 17.625 12.255 17.625 12C17.625 11.745 17.6025 11.505 17.5725 11.265L19.155 10.0275C19.2975 9.915 19.335 9.7125 19.245 9.5475L17.745 6.9525C17.6775 6.8325 17.55 6.765 17.415 6.765C17.37 6.765 17.325 6.7725 17.2875 6.7875L15.42 7.5375C15.03 7.2375 14.61 6.99 14.1525 6.8025L13.8675 4.815C13.845 4.635 13.6875 4.5 13.5 4.5H10.5C10.3125 4.5 10.155 4.635 10.1325 4.815L9.8475 6.8025C9.39 6.99 8.97 7.245 8.58 7.5375L6.7125 6.7875C6.6675 6.7725 6.6225 6.765 6.5775 6.765C6.45 6.765 6.3225 6.8325 6.255 6.9525L4.755 9.5475C4.6575 9.7125 4.7025 9.915 4.845 10.0275L6.4275 11.265C6.3975 11.505 6.375 11.7525 6.375 12C6.375 12.2475 6.3975 12.495 6.4275 12.735L4.845 13.9725C4.7025 14.085 4.665 14.2875 4.755 14.4525L6.255 17.0475C6.3225 17.1675 6.45 17.235 6.585 17.235C6.63 17.235 6.675 17.2275 6.7125 17.2125L8.58 16.4625C8.97 16.7625 9.39 17.01 9.8475 17.1975L10.1325 19.185C10.155 19.365 10.3125 19.5 10.5 19.5H13.5C13.6875 19.5 13.845 19.365 13.8675 19.185L14.1525 17.1975C14.61 17.01 15.03 16.755 15.42 16.4625L17.2875 17.2125C17.3325 17.2275 17.3775 17.235 17.4225 17.235C17.55 17.235 17.6775 17.1675 17.745 17.0475L19.245 14.4525C19.335 14.2875 19.2975 14.085 19.155 13.9725L17.5725 12.735ZM16.0875 11.4525C16.1175 11.685 16.125 11.8425 16.125 12C16.125 12.1575 16.11 12.3225 16.0875 12.5475L15.9825 13.395L16.65 13.92L17.46 14.55L16.935 15.4575L15.9825 15.075L15.2025 14.76L14.5275 15.27C14.205 15.51 13.8975 15.69 13.59 15.8175L12.795 16.14L12.675 16.9875L12.525 18H11.475L11.3325 16.9875L11.2125 16.14L10.4175 15.8175C10.095 15.6825 9.795 15.51 9.495 15.285L8.8125 14.76L8.0175 15.0825L7.065 15.465L6.54 14.5575L7.35 13.9275L8.0175 13.4025L7.9125 12.555C7.89 12.3225 7.875 12.15 7.875 12C7.875 11.85 7.89 11.6775 7.9125 11.4525L8.0175 10.605L7.35 10.08L6.54 9.45L7.065 8.5425L8.0175 8.925L8.7975 9.24L9.4725 8.73C9.795 8.49 10.1025 8.31 10.41 8.1825L11.205 7.86L11.325 7.0125L11.475 6H12.5175L12.66 7.0125L12.78 7.86L13.575 8.1825C13.8975 8.3175 14.1975 8.49 14.4975 8.715L15.18 9.24L15.975 8.9175L16.9275 8.535L17.4525 9.4425L16.65 10.08L15.9825 10.605L16.0875 11.4525ZM12 9C10.3425 9 9 10.3425 9 12C9 13.6575 10.3425 15 12 15C13.6575 15 15 13.6575 15 12C15 10.3425 13.6575 9 12 9ZM12 13.5C11.175 13.5 10.5 12.825 10.5 12C10.5 11.175 11.175 10.5 12 10.5C12.825 10.5 13.5 11.175 13.5 12C13.5 12.825 12.825 13.5 12 13.5Z" fill="#1A1A1A"/>
</svg>
