<svg width="24" height="24" viewBox="0 0 24 24" fill="none" xmlns="http://www.w3.org/2000/svg">
<path d="M12.4 13.72C12.8933 13.72 13.3133 13.55 13.66 13.21C14.0067 12.87 14.18 12.4467 14.18 11.94C14.18 11.4467 14.0067 11.0267 13.66 10.68C13.3133 10.3333 12.8933 10.16 12.4 10.16C11.9067 10.16 11.4867 10.3333 11.14 10.68C10.7933 11.0267 10.62 11.4467 10.62 11.94C10.62 12.4467 10.7933 12.87 11.14 13.21C11.4867 13.55 11.9067 13.72 12.4 13.72ZM12.4 18.76C13.0267 18.5467 13.6667 18.21 14.32 17.75C14.9733 17.29 15.5 16.7667 15.9 16.18L14.06 14.42C13.8067 14.5667 13.54 14.6867 13.26 14.78C12.98 14.8733 12.6933 14.92 12.4 14.92C11.5733 14.92 10.87 14.6333 10.29 14.06C9.71 13.4867 9.42 12.78 9.42 11.94C9.42 11.1133 9.71 10.41 10.29 9.83C10.87 9.25 11.5733 8.96 12.4 8.96C13.2267 8.96 13.93 9.25 14.51 9.83C15.09 10.41 15.38 11.12 15.38 11.96C15.38 12.24 15.34 12.52 15.26 12.8C15.18 13.08 15.0533 13.3333 14.88 13.56L16.56 15.16C16.88 14.5867 17.1333 13.9567 17.32 13.27C17.5067 12.5833 17.6 11.88 17.6 11.16V7.2L12.4 5.3L7.2 7.2V11.16C7.2 12.9067 7.68333 14.4833 8.65 15.89C9.61667 17.2967 10.8667 18.2533 12.4 18.76ZM12.4 20C10.5333 19.5333 9 18.45 7.8 16.75C6.6 15.05 6 13.1867 6 11.16V6.4L12.4 4L18.8 6.4V11.16C18.8 13.1867 18.2 15.05 17 16.75C15.8 18.45 14.2667 19.5333 12.4 20Z" fill="#1A1A1A"/>
</svg>
