<svg width="24" height="24" viewBox="0 0 24 24" fill="none" xmlns="http://www.w3.org/2000/svg">
<path d="M19.5 17.25H15V14.25H12.99C12.135 16.065 10.29 17.25 8.25 17.25C5.355 17.25 3 14.895 3 12C3 9.105 5.355 6.75 8.25 6.75C10.29 6.75 12.1275 7.935 12.99 9.75H21V14.25H19.5V17.25ZM16.5 15.75H18V12.75H19.5V11.25H11.955L11.7825 10.7475C11.2575 9.255 9.8325 8.25 8.25 8.25C6.18 8.25 4.5 9.93 4.5 12C4.5 14.07 6.18 15.75 8.25 15.75C9.8325 15.75 11.2575 14.745 11.7825 13.2525L11.955 12.75H16.5V15.75ZM8.25 14.25C7.0125 14.25 6 13.2375 6 12C6 10.7625 7.0125 9.75 8.25 9.75C9.4875 9.75 10.5 10.7625 10.5 12C10.5 13.2375 9.4875 14.25 8.25 14.25ZM8.25 11.25C7.8375 11.25 7.5 11.5875 7.5 12C7.5 12.4125 7.8375 12.75 8.25 12.75C8.6625 12.75 9 12.4125 9 12C9 11.5875 8.6625 11.25 8.25 11.25Z" fill="#1A1A1A"/>
</svg>
