<svg width="24" height="24" viewBox="0 0 24 24" fill="none" xmlns="http://www.w3.org/2000/svg">
<mask id="path-2-inside-1_16549_147936" fill="white">
<path d="M10.7 14.3L8.4 12L10.7 9.7L10 9L7 12L10 15L10.7 14.3ZM13.3 14.3L15.6 12L13.3 9.7L14 9L17 12L14 15L13.3 14.3Z"/>
</mask>
<path d="M10.7 14.3L11.4071 15.0071L12.1142 14.3L11.4071 13.5929L10.7 14.3ZM8.4 12L7.69289 11.2929L6.98579 12L7.69289 12.7071L8.4 12ZM10.7 9.7L11.4071 10.4071L12.1142 9.7L11.4071 8.99289L10.7 9.7ZM10 9L10.7071 8.29289L10 7.58579L9.29289 8.29289L10 9ZM7 12L6.29289 11.2929L5.58579 12L6.29289 12.7071L7 12ZM10 15L9.29289 15.7071L10 16.4142L10.7071 15.7071L10 15ZM15.6 12L16.3071 12.7071L17.0142 12L16.3071 11.2929L15.6 12ZM13.3 9.7L12.5929 8.99289L11.8858 9.7L12.5929 10.4071L13.3 9.7ZM14 9L14.7071 8.29289L14 7.58579L13.2929 8.29289L14 9ZM17 12L17.7071 12.7071L18.4142 12L17.7071 11.2929L17 12ZM14 15L13.2929 15.7071L14 16.4142L14.7071 15.7071L14 15ZM13.3 14.3L12.5929 13.5929L11.8858 14.3L12.5929 15.0071L13.3 14.3ZM11.4071 13.5929L9.10711 11.2929L7.69289 12.7071L9.99289 15.0071L11.4071 13.5929ZM9.10711 12.7071L11.4071 10.4071L9.99289 8.99289L7.69289 11.2929L9.10711 12.7071ZM11.4071 8.99289L10.7071 8.29289L9.29289 9.70711L9.99289 10.4071L11.4071 8.99289ZM9.29289 8.29289L6.29289 11.2929L7.70711 12.7071L10.7071 9.70711L9.29289 8.29289ZM6.29289 12.7071L9.29289 15.7071L10.7071 14.2929L7.70711 11.2929L6.29289 12.7071ZM10.7071 15.7071L11.4071 15.0071L9.99289 13.5929L9.29289 14.2929L10.7071 15.7071ZM14.0071 15.0071L16.3071 12.7071L14.8929 11.2929L12.5929 13.5929L14.0071 15.0071ZM16.3071 11.2929L14.0071 8.99289L12.5929 10.4071L14.8929 12.7071L16.3071 11.2929ZM14.0071 10.4071L14.7071 9.70711L13.2929 8.29289L12.5929 8.99289L14.0071 10.4071ZM13.2929 9.70711L16.2929 12.7071L17.7071 11.2929L14.7071 8.29289L13.2929 9.70711ZM16.2929 11.2929L13.2929 14.2929L14.7071 15.7071L17.7071 12.7071L16.2929 11.2929ZM14.7071 14.2929L14.0071 13.5929L12.5929 15.0071L13.2929 15.7071L14.7071 14.2929Z" fill="#1A1A1A" mask="url(#path-2-inside-1_16549_147936)"/>
<rect x="4.5" y="4.5" width="15" height="15" rx="7.5" stroke="#1A1A1A"/>
</svg>
