<svg width="100%" height="100%" viewBox="0 0 272 137" fill="none" xmlns="http://www.w3.org/2000/svg">
<path d="M272 -8H0V137H272V-8Z" fill="#00D2FF"/>
<path d="M232.55 27.72C240.18 27.72 246.37 33.91 246.37 41.54C246.37 49.17 240.18 55.36 232.55 55.36C224.92 55.36 218.73 49.17 218.73 41.54C218.73 33.91 224.92 27.72 232.55 27.72ZM232.55 18.22C219.7 18.22 209.24 28.68 209.24 41.53C209.24 54.38 219.7 64.84 232.55 64.84C245.4 64.84 255.86 54.38 255.86 41.53C255.86 28.68 245.4 18.22 232.55 18.22Z" fill="#40DDFF"/>
<path d="M167.85 99.31C155 99.31 144.54 109.77 144.54 122.62C144.54 128.04 146.41 133.04 149.52 137H186.18C189.3 133.04 191.16 128.04 191.16 122.62C191.16 109.77 180.7 99.31 167.85 99.31ZM167.85 136.44C160.22 136.44 154.03 130.25 154.03 122.62C154.03 114.99 160.22 108.8 167.85 108.8C175.48 108.8 181.67 114.99 181.67 122.62C181.66 130.25 175.48 136.44 167.85 136.44Z" fill="#40DDFF"/>
<path d="M239.5 122.62C239.5 128.04 241.37 133.04 244.48 137H272V132.92C269.56 135.1 266.35 136.43 262.82 136.43C255.19 136.43 249 130.24 249 122.61C249 114.98 255.19 108.79 262.82 108.79C266.35 108.79 269.56 110.13 272 112.3V101.2C269.18 99.99 266.08 99.31 262.82 99.31C249.96 99.31 239.5 109.77 239.5 122.62Z" fill="#40DDFF"/>
<path d="M244.34 136.78C241.32 132.85 239.51 127.95 239.51 122.62C239.51 117.29 241.33 112.39 244.34 108.46H186.33C189.35 112.39 191.16 117.29 191.16 122.62C191.16 127.95 189.34 132.85 186.33 136.78H244.34Z" fill="#40DDFF"/>
<path d="M237.24 108.8C237.18 118.4 235.97 127.73 233.76 136.67H244.27C241.3 132.76 239.51 127.9 239.51 122.62C239.51 117.45 241.23 112.68 244.09 108.8H237.24Z" fill="#40DDFF"/>
<path d="M210.81 33.18C214.18 24.44 222.64 18.22 232.55 18.22C232.59 18.22 232.62 18.23 232.66 18.23C224.97 8.39 216.04 -0.42 206.11 -8H146.26C172.08 -1.66 194.62 13.09 210.81 33.18Z" fill="#40DDFF"/>
<path d="M0 22.1V88.34C7.85 41.18 43.42 3.27 89.35 -8H29.46C18.25 0.55 8.32 10.7 0 22.1Z" fill="#40DDFF"/>
<path d="M0 127.59V136.67H1.86C1.12 133.69 0.51 130.66 0 127.59Z" fill="#40DDFF"/>
<path d="M236.692 44.5376C236.692 44.6608 236.692 44.7488 236.692 44.8324C236.692 45.7916 236.696 46.7552 236.687 47.7144C236.687 47.886 236.665 48.0664 236.608 48.2336C236.472 48.6428 236.098 48.8936 235.614 48.8936C232.542 48.898 229.471 48.898 226.4 48.8936C225.709 48.8936 225.296 48.4668 225.296 47.7716C225.296 44.7312 225.291 41.6864 225.3 38.646C225.3 38.448 225.344 38.2324 225.432 38.0564C225.586 37.7308 225.868 37.546 226.242 37.5416C227.166 37.5372 228.09 37.5416 229.014 37.5372C229.344 37.5372 229.348 37.5372 229.348 37.216C229.348 36.2392 229.348 35.2668 229.348 34.29C229.348 33.5332 229.74 33.146 230.505 33.1416C232.142 33.1416 233.774 33.1416 235.411 33.1416C236.81 33.1416 238.21 33.1328 239.613 33.1504C239.842 33.1548 240.097 33.2208 240.3 33.3308C240.63 33.5112 240.748 33.8456 240.748 34.2064C240.753 37.2908 240.753 40.3796 240.748 43.464C240.748 44.1284 240.317 44.5288 239.618 44.5332C238.746 44.5376 237.871 44.5332 237 44.5332C236.898 44.5376 236.81 44.5376 236.692 44.5376ZM240.124 38.8396C240.124 37.3084 240.124 35.7772 240.124 34.2416C240.124 33.8764 240.005 33.7576 239.635 33.7576C236.564 33.7576 233.493 33.7576 230.422 33.7576C230.074 33.7576 229.96 33.872 229.96 34.2152C229.96 35.4252 229.955 36.6352 229.964 37.8452C229.964 38.0564 229.907 38.1224 229.691 38.118C228.604 38.1092 227.522 38.1136 226.435 38.1136C226.035 38.1136 225.912 38.2412 225.912 38.6372C225.912 41.6776 225.912 44.7224 225.912 47.7628C225.912 48.1544 226.03 48.2688 226.422 48.2688C229.471 48.2688 232.52 48.2688 235.57 48.2688C235.948 48.2688 236.071 48.15 236.071 47.7716C236.071 46.5748 236.076 45.3824 236.067 44.1856C236.067 43.9568 236.137 43.904 236.353 43.904C237.44 43.9128 238.522 43.9084 239.609 43.9084C240.005 43.9084 240.119 43.794 240.119 43.4024C240.124 41.8888 240.124 40.3664 240.124 38.8396Z" fill="#32324B"/>
<path d="M234.888 34.8532C236.023 34.8532 237.163 34.8488 238.298 34.8576C238.412 34.8576 238.553 34.8972 238.628 34.9764C238.773 35.1304 238.659 35.3944 238.443 35.4296C238.364 35.4428 238.28 35.4384 238.201 35.4384C236.111 35.4384 234.021 35.4384 231.931 35.4384C231.632 35.4384 231.632 35.4384 231.632 35.742C231.632 36.9872 231.632 38.2368 231.632 39.482C231.632 39.7988 231.632 39.7988 231.324 39.7988C230.18 39.7988 229.036 39.7988 227.892 39.7988C227.593 39.7988 227.584 39.8076 227.584 40.1068C227.584 42.2056 227.584 44.3 227.584 46.3988C227.584 46.7024 227.491 46.8608 227.302 46.8696C227.104 46.8784 227.003 46.7156 227.003 46.4032C227.003 44.1724 227.003 41.946 227.003 39.7152C227.003 39.2972 227.087 39.218 227.509 39.218C228.574 39.218 229.634 39.218 230.699 39.218C231.016 39.218 231.016 39.218 231.016 38.91C231.016 37.7352 231.016 36.5648 231.016 35.39C231.016 34.9632 231.121 34.8576 231.544 34.8576C232.657 34.8488 233.77 34.8532 234.888 34.8532Z" fill="#32324B"/>
<path d="M229.885 45.3252C230.994 45.3252 232.085 45.3252 233.198 45.3252C233.198 45.2372 233.198 45.158 233.198 45.0788C233.198 42.5444 233.198 40.01 233.198 37.4756C233.198 37.0928 233.321 36.9652 233.704 36.9652C234.954 36.9652 236.203 36.9652 237.449 36.9652C237.761 36.9652 237.919 37.1148 237.924 37.436C237.928 38.69 237.928 39.9484 237.924 41.2024C237.924 41.5148 237.757 41.6908 237.462 41.6908C236.52 41.6952 235.579 41.6908 234.637 41.6908C234.611 41.6908 234.58 41.682 234.531 41.6776C234.531 41.462 234.531 41.2464 234.531 41.0044C235.407 41.0044 236.296 41.0044 237.198 41.0044C237.198 39.8824 237.198 38.7824 237.198 37.6736C236.102 37.6736 235.02 37.6736 233.893 37.6736C233.893 37.7528 233.893 37.8364 233.893 37.92C233.893 40.4456 233.893 42.9756 233.893 45.5012C233.893 45.8972 233.77 46.0292 233.379 46.0292C232.129 46.0292 230.879 46.0292 229.634 46.0292C229.317 46.0292 229.168 45.884 229.168 45.5628C229.168 44.3 229.168 43.0372 229.168 41.7744C229.168 41.4884 229.309 41.308 229.573 41.308C230.549 41.2992 231.526 41.3036 232.521 41.3036C232.521 41.5368 232.521 41.7568 232.521 41.9944C231.645 41.9944 230.774 41.9944 229.881 41.9944C229.885 43.112 229.885 44.212 229.885 45.3252Z" fill="#46465D"/>
</svg>
